<?xml version="1.0" encoding="utf-8"?><svg xmlns="http://www.w3.org/2000/svg" xmlns:xlink="http://www.w3.org/1999/xlink"><symbol viewBox="0 0 17 30" id="arrow-right" xmlns="http://www.w3.org/2000/svg"><title>4780E0AE-985D-436D-93C4-F71EF6A590E5</title><path d="M1.897 0L0 1.884 13.206 15 0 28.116 1.897 30 17 15z" fill-rule="evenodd"/></symbol><symbol viewBox="0 0 58 68" id="balloons" xmlns="http://www.w3.org/2000/svg"><title>CC5E0B74-3784-47E3-A055-4F472C85DB33</title><defs><path id="ba" d="M.01.088V68h57.845V.088z"/></defs><g fill-rule="evenodd"><path d="M22.665 7.643a8.9 8.9 0 0 1 1.882 1.175c.152.123.32.182.484.182.334 0 .659-.242.838-.675.268-.647.11-1.476-.351-1.851a10.67 10.67 0 0 0-2.247-1.406c-.507-.233-1.055.152-1.222.863-.167.711.109 1.477.616 1.712zm7.489 12.137c0 1.613-.16 3.262-.475 4.9-.113.583.2 1.162.697 1.293a.818.818 0 0 0 .204.027c.422 0 .803-.341.9-.844.345-1.794.52-3.603.52-5.375 0-3.776-.787-6.921-2.338-9.348-.305-.478-.884-.575-1.292-.217-.408.357-.492 1.035-.186 1.513 1.307 2.044 1.97 4.754 1.97 8.052z"/><mask id="bb"><use xlink:href="#ba"/></mask><path d="M14.455 36.022c-2.703-1.855-5.12-5.41-6.464-9.511a1.087 1.087 0 0 0-1.374-.696c-.57.19-.88.807-.692 1.381 1.513 4.61 4.175 8.486 7.305 10.633a1.084 1.084 0 0 0 1.51-.287c.34-.499.212-1.18-.285-1.52z" mask="url(#bb)"/><path d="M52.43 17.951c-3.31-3.243-7.95-5.03-13.063-5.03-1.078 0-2.144.081-3.18.238-.864-3.152-2.426-5.875-4.637-8.041C28.24 1.874 23.6.088 18.487.088c-5.112 0-9.75 1.786-13.061 5.03C1.876 8.594 0 13.505 0 19.319c0 5.922 1.93 12.085 5.294 16.91 2.867 4.114 6.406 6.761 10.184 7.683a3.42 3.42 0 0 0-.398 1.606v2.334a1.09 1.09 0 0 0 1.087 1.094h1.169c-.089.672-.259 1.128-.446 1.631-.305.816-.65 1.741-.65 3.494 0 1.754.345 2.68.649 3.496.274.736.511 1.37.511 2.729 0 1.358-.237 1.993-.511 2.728-.304.817-.649 1.742-.649 3.495a1.09 1.09 0 0 0 1.088 1.094c.6 0 1.087-.489 1.087-1.094 0-1.357.237-1.992.51-2.727.305-.817.65-1.742.65-3.496s-.345-2.68-.65-3.496c-.273-.736-.51-1.37-.51-2.729 0-1.356.237-1.99.51-2.725.234-.627.491-1.32.598-2.4h1.285c.6 0 1.087-.49 1.087-1.094v-2.334c0-.58-.144-1.126-.398-1.606a13.356 13.356 0 0 0 1.629-.509c2.857 7.067 7.811 11.987 13.237 13.335a3.427 3.427 0 0 0-.403 1.615v2.333a1.09 1.09 0 0 0 1.087 1.094h1.168c-.088.673-.258 1.13-.446 1.632-.304.816-.649 1.74-.649 3.494A1.09 1.09 0 0 0 38.208 68c.6 0 1.087-.49 1.087-1.094 0-1.356.237-1.991.51-2.726.234-.626.491-1.319.598-2.4h1.285c.6 0 1.087-.49 1.087-1.094v-2.333a3.42 3.42 0 0 0-.399-1.606c3.779-.922 7.318-3.57 10.186-7.683 3.364-4.825 5.293-10.988 5.293-16.91 0-5.814-1.876-10.726-5.425-14.203zM7.074 34.974C3.961 30.508 2.175 24.8 2.175 19.319c0-5.21 1.649-9.58 4.768-12.634 2.902-2.844 7.002-4.41 11.545-4.41 4.542 0 8.642 1.566 11.544 4.41 3.12 3.055 4.768 7.424 4.768 12.634 0 5.482-1.786 11.189-4.9 15.655-3.199 4.59-7.252 7.117-11.412 7.117-4.16 0-8.214-2.528-11.414-7.117zM19.72 45.518v1.24h-2.465v-1.24c0-.684.553-1.24 1.233-1.24s1.232.556 1.232 1.24zM40.6 58.353v1.239h-2.465v-1.24c0-.683.553-1.239 1.232-1.239.68 0 1.233.556 1.233 1.24zm10.181-10.545c-3.2 4.59-7.253 7.117-11.414 7.117-2.932 0-5.866-1.285-8.485-3.717-2.354-2.185-4.392-5.27-5.783-8.736.708-.4 1.401-.865 2.077-1.391 1.555 4.145 4.044 7.6 6.934 9.582a1.083 1.083 0 0 0 1.51-.287c.34-.499.211-1.18-.285-1.52-2.663-1.827-5.046-5.305-6.403-9.33a23.98 23.98 0 0 0 2.75-3.296c3.364-4.826 5.293-10.99 5.293-16.91 0-1.395-.11-2.737-.322-4.02a19.12 19.12 0 0 1 2.714-.19c4.543 0 8.643 1.565 11.546 4.409 3.119 3.055 4.767 7.424 4.767 12.634 0 5.483-1.786 11.189-4.899 15.655z" mask="url(#bb)"/><path d="M49.662 22.433c-.305-.478-.884-.575-1.292-.217-.408.358-.492 1.035-.186 1.513 1.307 2.045 1.97 4.754 1.97 8.052 0 1.613-.16 3.261-.475 4.9-.113.582.2 1.16.697 1.292a.786.786 0 0 0 .204.027c.422 0 .803-.341.9-.844.345-1.794.52-3.603.52-5.375 0-3.776-.787-6.92-2.338-9.348zm-3.145-2.96a10.63 10.63 0 0 0-2.246-1.404c-.508-.235-1.055.151-1.222.862-.168.71.108 1.476.616 1.71.669.31 1.302.704 1.882 1.175a.757.757 0 0 0 .484.184c.334 0 .659-.243.838-.676.268-.646.111-1.475-.352-1.851z"/></g></symbol><symbol viewBox="0 0 55 62" id="boy-broad-smile" xmlns="http://www.w3.org/2000/svg"><title>87215E2C-9503-4B90-84F1-9D1BDDF0AE72</title><defs><path id="ca" d="M54.822.11H.011v61.223h54.811V.11z"/></defs><g fill-rule="evenodd"><path d="M15.5 35.121c.57 0 1.105.202 1.508.568.228.207.526.312.826.311.298 0 .596-.104.824-.31a.994.994 0 0 0 0-1.501C17.815 33.422 16.693 33 15.5 33c-1.193 0-2.314.422-3.158 1.189a.994.994 0 0 0 0 1.5 1.25 1.25 0 0 0 1.65 0 2.232 2.232 0 0 1 1.508-.568zm20.842-.933a.995.995 0 0 0 0 1.501 1.25 1.25 0 0 0 1.65 0c.831-.756 2.185-.756 3.016 0 .228.207.526.311.825.311.299 0 .597-.104.825-.311a.995.995 0 0 0 0-1.501c-1.741-1.584-4.575-1.584-6.316 0z"/><mask id="cb"><use xlink:href="#ca"/></mask><path d="M39.433 45.922c-6.628 6.587-17.415 6.587-24.044 0a1.166 1.166 0 0 0-1.643 0 1.15 1.15 0 0 0 0 1.632c3.768 3.745 8.716 5.616 13.665 5.616s9.897-1.871 13.665-5.616a1.15 1.15 0 0 0 0-1.632 1.167 1.167 0 0 0-1.643 0z" mask="url(#cb)"/><path d="M54.822 36.791c0-3.136-2.281-5.751-5.281-6.297V11.181a7.428 7.428 0 0 0-3.355-6.214 7.523 7.523 0 0 0-6.638-.82l-7.293-2.461c-5.605-1.89-11.504-2.084-17.06-.56C7.92 3.12 3.75 7.336 3.105 13.332a8.745 8.745 0 0 0-1.33 2.49l-.565 1.664c-.304.894.03 1.832.833 2.336a1.997 1.997 0 0 0 2.481-.254 4.04 4.04 0 0 1 .756-.57v11.495C2.281 31.04 0 33.654 0 36.791c0 3.261 2.468 5.96 5.644 6.352.798 4.378 2.894 8.416 6.1 11.648 4.186 4.219 9.749 6.542 15.667 6.542h.002c5.91 0 11.467-2.288 15.647-6.441 3.264-3.244 5.383-7.324 6.154-11.754 3.16-.409 5.608-3.098 5.608-6.347zm-9.92-29.9a5.06 5.06 0 0 1 2.315 4.29v15.108c-3.605-.557-6.374-3.663-6.374-7.4l-.096-12.695a5.114 5.114 0 0 1 4.155.697zM3.752 17.226l.226-.664a6.492 6.492 0 0 1 3.603-3.875 6.553 6.553 0 0 1 5.309.083c3.518 1.628 7.77.748 10.342-2.14l.287-.324a1.15 1.15 0 0 0-.1-1.63 1.168 1.168 0 0 0-1.64.1l-.288.323c-1.894 2.129-5.028 2.778-7.62 1.578a8.891 8.891 0 0 0-7.204-.112c-.21.09-.414.189-.615.293 1.35-3.578 4.619-6.097 9.76-7.507 5.107-1.4 10.534-1.22 15.696.521l6.916 2.334.09 5.965a20.433 20.433 0 0 1-12.687 7.945 20.525 20.525 0 0 1-15.054-2.954 6.328 6.328 0 0 0-7.02.064zM2.324 36.79c0-1.856 1.25-3.427 2.957-3.927v6.258c0 .54.02 1.078.057 1.613-1.736-.482-3.014-2.066-3.014-3.944zm39.093 16.47c-3.74 3.717-8.714 5.765-14.004 5.765h-.002c-5.29 0-10.268-2.08-14.013-5.854-3.736-3.767-5.793-8.757-5.793-14.048V18.454c.658.05 1.31.26 1.898.642a22.858 22.858 0 0 0 16.758 3.29c4.735-.897 8.989-3.214 12.258-6.63v3.132c0 5.012 3.807 9.155 8.698 9.729V39.34c0 5.258-2.06 10.201-5.8 13.92zm8.08-12.529c.028-.46.044-.924.044-1.39v-6.476c1.707.5 2.957 2.07 2.957 3.927 0 1.872-1.272 3.454-3.002 3.94z" mask="url(#cb)"/></g></symbol><symbol viewBox="0 0 25 23" id="close" xmlns="http://www.w3.org/2000/svg"><title>@3xX</title><path d="M1 0l23 23M1 23L24 0" fill-rule="evenodd"/></symbol><symbol viewBox="0 0 44 44" id="fb" xmlns="http://www.w3.org/2000/svg"><title>7C106036-999A-487D-9177-D75CE8268C7D</title><g fill-rule="evenodd"><path d="M23.034 16.098c0-.74.49-.914.837-.914h2.12V11.93l-2.922-.012c-3.243 0-3.981 2.43-3.981 3.98v2.17h-1.875v3.353h1.875v9.49h3.946v-9.49h2.661l.344-3.35h-3.005v-1.973z"/><path d="M21.626 1.648c-11.016 0-19.978 8.962-19.978 19.978 0 11.017 8.962 19.978 19.978 19.978 11.017 0 19.978-8.961 19.978-19.978 0-11.016-8.961-19.978-19.978-19.978m0 41.604C9.702 43.252 0 33.55 0 21.626 0 9.702 9.702 0 21.626 0 33.55 0 43.252 9.702 43.252 21.626c0 11.924-9.702 21.626-21.626 21.626"/></g></symbol><symbol viewBox="0 0 43 67" id="gold-medal" xmlns="http://www.w3.org/2000/svg"><title>98815559-31AB-4F5F-8EE7-CC4A6D3B946E</title><g fill-rule="evenodd"><path d="M21.5 48C9.644 48 0 38.356 0 26.5S9.644 5 21.5 5 43 14.644 43 26.5 33.356 48 21.5 48m0-40.737c-10.607 0-19.237 8.63-19.237 19.237 0 10.607 8.63 19.237 19.237 19.237 10.607 0 19.237-8.63 19.237-19.237 0-10.607-8.63-19.237-19.237-19.237"/><path d="M34.777 12.03a1.18 1.18 0 0 1-.71-.234c-3.494-2.604-7.66-3.98-12.049-3.98-4.389 0-8.555 1.376-12.049 3.98a1.19 1.19 0 0 1-1.22.121 1.114 1.114 0 0 1-.65-1.003V1.117C8.1.5 8.62 0 9.26 0h25.518c.641 0 1.16.5 1.16 1.117v9.797c0 .426-.252.815-.65 1.003a1.2 1.2 0 0 1-.51.114m-12.76-6.448c4.145 0 8.113 1.098 11.599 3.193V2.233H10.419v6.543c3.486-2.095 7.454-3.193 11.6-3.193M34.777 67c-.302 0-.599-.114-.82-.327L22.018 55.179 10.08 66.673c-.332.32-.83.414-1.265.242a1.117 1.117 0 0 1-.715-1.032V42.686c0-.426.251-.815.65-1.003a1.2 1.2 0 0 1 1.22.12c3.493 2.605 7.66 3.98 12.048 3.98 4.389 0 8.555-1.375 12.049-3.98a1.2 1.2 0 0 1 1.22-.12c.398.188.65.577.65 1.003v23.197c0 .451-.282.86-.716 1.032a1.206 1.206 0 0 1-.444.085M22.018 52.483c.297 0 .594.11.82.328l10.779 10.377V44.824c-3.486 2.095-7.454 3.193-11.599 3.193-4.145 0-8.113-1.098-11.599-3.193v18.364L21.2 52.81a1.18 1.18 0 0 1 .82-.328"/><path d="M30.423 38c-.15 0-.302-.03-.445-.09L21.5 34.331l-8.478 3.58a1.143 1.143 0 0 1-1.157-.16 1.063 1.063 0 0 1-.377-1.071l1.876-8.07-6.052-6.089a1.061 1.061 0 0 1-.254-1.095c.132-.383.475-.663.885-.724l8.54-1.292 4.018-7.857c.377-.737 1.621-.737 1.998 0l4.018 7.857 8.54 1.292c.41.061.752.341.885.724.132.382.035.804-.254 1.095l-6.052 6.089 1.876 8.07c.092.397-.054.811-.377 1.071a1.138 1.138 0 0 1-.712.249M21.5 32.07c.152 0 .302.03.445.09l6.907 2.914-1.524-6.559a1.06 1.06 0 0 1 .284-.988l4.98-5.009-6.99-1.057a1.11 1.11 0 0 1-.826-.588L21.5 14.467l-3.276 6.406a1.11 1.11 0 0 1-.826.588l-6.99 1.057 4.98 5.009c.26.263.368.634.284.988l-1.524 6.56 6.907-2.915c.143-.06.293-.09.445-.09"/></g></symbol><symbol viewBox="0 0 60 60" id="health" xmlns="http://www.w3.org/2000/svg"><title>F840B01F-1A63-410C-A525-CFB8C7F34925</title><g fill-rule="evenodd"><path d="M48.967 46.398c-4.5 0-8.161-3.662-8.161-8.162 0-4.5 3.661-8.16 8.161-8.16 4.502 0 8.162 3.66 8.162 8.16s-3.66 8.162-8.162 8.162zm-28.564-6.349l-1.36-1.813h2.72l-1.36 1.813zM10.882 2.87a2.726 2.726 0 0 1 2.72 2.723 2.725 2.725 0 0 1-2.72 2.722 2.725 2.725 0 0 1-2.724-2.722c0-1.5 1.22-2.722 2.724-2.722zm19.042 5.445c-1.5 0-2.72-1.22-2.72-2.722 0-1.5 1.22-2.722 2.72-2.722a2.726 2.726 0 0 1 2.723 2.722 2.726 2.726 0 0 1-2.723 2.722zm19.043 19.04c-6 0-10.88 4.884-10.88 10.882 0 5.492 4.103 10.001 9.398 10.731-.602 4.675-4.563 8.313-9.398 8.313h-1.361c-8.106 0-14.713-6.485-14.942-14.54l3.701-4.933c1.276-1.122 15.32-13.653 15.32-22.694V9.672c0-3-2.439-5.441-5.44-5.441h-.19c-.61-2.34-2.722-4.082-5.251-4.082-3 0-5.44 2.441-5.44 5.443 0 3 2.44 5.442 5.44 5.442 2.529 0 4.642-1.741 5.25-4.083h.19c1.5 0 2.723 1.222 2.723 2.72v5.442c0 6.468-9.848 16.6-14.118 20.404h-7.133C12.566 31.712 2.72 21.581 2.72 15.113V9.672c0-1.499 1.22-2.72 2.72-2.72h.191c.609 2.34 2.72 4.082 5.25 4.082a5.45 5.45 0 0 0 5.442-5.442A5.449 5.449 0 0 0 10.882.149c-2.53 0-4.642 1.742-5.25 4.082H5.44A5.446 5.446 0 0 0 0 9.67v5.442c0 9.04 14.044 21.572 15.32 22.694l3.748 4.995C19.328 52.326 27.14 60 36.726 60h1.36c6.327 0 11.488-4.844 12.118-11.008 5.413-.62 9.647-5.177 9.647-10.756 0-5.998-4.884-10.882-10.884-10.882z"/><path d="M49.5 41.251a2.755 2.755 0 0 1-2.751-2.751 2.753 2.753 0 0 1 2.75-2.749 2.753 2.753 0 0 1 2.75 2.749 2.755 2.755 0 0 1-2.75 2.751m0-8.251A5.505 5.505 0 0 0 44 38.5c0 3.033 2.465 5.5 5.5 5.5 3.034 0 5.5-2.467 5.5-5.5S52.534 33 49.5 33"/></g></symbol><symbol viewBox="0 0 44 44" id="lin" xmlns="http://www.w3.org/2000/svg"><title>1E0491AF-BEBC-4A56-BCC1-A10311D1E797</title><g fill-rule="evenodd"><path d="M22.723 21.399H22.7c.005-.013.018-.026.023-.04v.04zm3.335-1.878c-1.963 0-2.843 1.079-3.335 1.837v-1.573h-3.696c.044 1.041 0 11.127 0 11.127h3.696v-6.215c0-.333.022-.666.121-.9.267-.668.876-1.354 1.9-1.354 1.336 0 1.874 1.02 1.874 2.513v5.956h3.7v-6.386c0-3.416-1.828-5.005-4.26-5.005zM13.277 30.913h3.7V19.785h-3.7zm1.873-16.496c-1.264 0-2.09.83-2.09 1.924 0 1.069.803 1.922 2.045 1.922h.023c1.29 0 2.094-.853 2.094-1.922-.028-1.093-.804-1.924-2.072-1.924"/><path d="M21.768 1.648C10.752 1.648 1.79 10.61 1.79 21.626c0 11.017 8.962 19.978 19.978 19.978 11.017 0 19.979-8.961 19.979-19.978 0-11.016-8.962-19.978-19.979-19.978m0 41.604C9.844 43.252.142 33.55.142 21.626.142 9.702 9.844 0 21.768 0c11.925 0 21.626 9.702 21.626 21.626 0 11.924-9.701 21.626-21.626 21.626"/></g></symbol><symbol viewBox="0 0 24 24" id="page-1" xmlns="http://www.w3.org/2000/svg"><title>AEC36E9E-F583-4AFE-BB2D-F38C40EF8471</title><path d="M23 0L11.854 11.146.707 0 0 .706l11.146 11.147L0 22.999l.707.708L11.854 12.56 23 23.707l.706-.708L12.56 11.853 23.706.706z" fill-rule="evenodd"/></symbol><symbol viewBox="0 0 64 59" id="tea" xmlns="http://www.w3.org/2000/svg"><title>A734F530-BD84-4F37-94E0-3B7668BE1090</title><defs><path id="ja" d="M63.68.383H0V59h63.68z"/></defs><g fill-rule="evenodd"><mask id="jb"><use xlink:href="#ja"/></mask><path d="M63.68 25.527c0-6.306-5.105-11.429-11.377-11.429-2.283 0-4.477.687-6.367 1.976-3.795-3.783-8.488-6.434-13.554-7.344.704-.882 1.15-1.986 1.15-3.203 0-2.84-2.3-5.144-5.122-5.144-2.823 0-5.117 2.304-5.117 5.144a5.1 5.1 0 0 0 1.171 3.237c-5.038.943-9.804 3.616-13.767 7.79L7.47 13.663c-1.483-1.328-3.672-1.618-5.329-.709-1.199.653-1.97 1.759-2.115 3.03-.145 1.24.322 2.44 1.283 3.299 2.556 2.294 3.456 5.67 2.343 8.811a37.404 37.404 0 0 0-.676 2.21H2.97l-.021.089a29.918 29.918 0 0 0-.738 3.644c-.062.373-.111.75-.153 1.121a25.92 25.92 0 0 0-.086.94 28.403 28.403 0 0 0-.097 2.163c0 5.602 1.657 10.996 4.796 15.58.271.399.573.776.9 1.133C9.843 57.485 13.32 59 16.976 59h23.066c3.66 0 7.138-1.515 9.41-4.026.324-.357.624-.734.896-1.133 3.138-4.584 4.8-9.973 4.8-15.58 0-.556-.018-1.117-.05-1.668 5.033-1.262 8.583-5.766 8.583-11.066zm-11.138 8.52a5.558 5.558 0 0 1-3.4-1.607 7.945 7.945 0 0 0-10.906-.332l-.388.332c-.106.107-.228.178-.333.274V16.381h-7.967V10.7c11.089.62 21.088 11.044 22.994 23.347zm-30.962-1.01c2.14-1.099 4.823-.776 6.61 1.024a7.907 7.907 0 0 0 5.636 2.342c.477 0 .95-.045 1.41-.126V47.24H21.58V33.037zm8.224-.597a7.952 7.952 0 0 0-8.224-1.902v-11.87h13.656v15.24c-1.883.486-3.96.012-5.432-1.468zM28.41 2.67a2.85 2.85 0 0 1 2.844 2.857 2.853 2.853 0 0 1-2.844 2.857 2.856 2.856 0 0 1-2.845-2.857A2.853 2.853 0 0 1 28.41 2.67zM2.824 17.58c-.398-.357-.599-.848-.543-1.334.06-.53.4-.987.95-1.289.294-.163.645-.24 1.001-.24.609 0 1.249.229 1.727.653l3.966 3.554c.51.458 1.311.419 1.778-.1 4.373-4.905 9.856-7.757 15.566-8.114v5.67h-7.96v15.39c-.14.106-.283.22-.417.337l-.388.332a5.617 5.617 0 0 1-4.022 1.674 5.615 5.615 0 0 1-4.024-1.674 7.815 7.815 0 0 0-5.056-2.297c.136-.43.246-.86.396-1.285 1.428-4.034.283-8.353-2.974-11.277zm45.652 34.96a8.293 8.293 0 0 1-.728.923c-1.845 2.026-4.69 3.246-7.706 3.246H16.976c-2.578 0-5.044-.899-6.85-2.433a8.498 8.498 0 0 1-.778-.74c-.022-.032-.05-.053-.073-.073a8.592 8.592 0 0 1-.727-.917C5.668 48.338 4.154 43.4 4.154 38.26c0-.658.031-1.317.082-1.976.023-.24.039-.474.061-.708a27.88 27.88 0 0 1 .2-1.504c.072-.455.156-.905.25-1.359.023-.101.045-.207.068-.304h.05c1.5 0 2.923.58 3.99 1.651a7.883 7.883 0 0 0 5.627 2.342c1.765 0 3.443-.58 4.827-1.642v14.766h18.206V35.49a8.535 8.535 0 0 0 1.588-1.096l.383-.333a5.672 5.672 0 0 1 8.05 0 7.862 7.862 0 0 0 5.262 2.302c0 .02.006.04.006.057.044.633.07 1.244.07 1.841-.005 5.139-1.521 10.077-4.398 14.28zm6.421-18.264c-.75-6.116-3.217-12.114-6.899-16.803a8.973 8.973 0 0 1 4.305-1.093c5.016 0 9.1 4.102 9.1 9.146 0 4.113-2.667 7.621-6.506 8.75z" mask="url(#jb)"/><path d="M29 45.001c0 .549-.448.999-1 .999s-1-.45-1-.999a1.001 1.001 0 0 1 2 0m5-7.005a.999.999 0 1 1-2 0c0-.549.444-.996.997-.996a.997.997 0 0 1 1.003.996m-9 0c0 .556-.448 1.004-1 1.004a1.001 1.001 0 1 1 1-1.004m4 0a1.001 1.001 0 1 1-2.002.006A1.001 1.001 0 0 1 29 37.996m3 3.003A1 1 0 1 1 30 41a1 1 0 0 1 2 0m-5-.001A.998.998 0 0 1 26.003 42 1.002 1.002 0 0 1 25 40.999c0-.552.45-.999 1.003-.999.551 0 .997.447.997.999"/></g></symbol><symbol viewBox="0 0 79 58" id="team" xmlns="http://www.w3.org/2000/svg"><title>DAC1B051-3E84-4AC1-9B39-5DA32E0A0642</title><defs><path id="ka" d="M.01 58V.02H79V58z"/></defs><g fill-rule="evenodd"><mask id="kb"><use xlink:href="#ka"/></mask><path d="M68.664 28.19a1.157 1.157 0 0 0 1.035-2.07c-2.688-1.344-7.728-1.36-7.942-1.36a1.157 1.157 0 1 0 0 2.314c1.301 0 5.077.2 6.907 1.115" mask="url(#kb)"/><path d="M65.206 40.677a8.598 8.598 0 0 0 2.818-.382v.467c0 .23.03.456.084.674l-2.639 2.637-2.626-2.625a3.17 3.17 0 0 0 .072-.687v-.488c.728.239 1.497.38 2.291.404zm-6.003-8.886V29.63c0-.18-.042-.357-.123-.518l-.714-1.43a3.81 3.81 0 0 1-.4-1.695v-.068a5.034 5.034 0 0 1 5.029-5.029h9.979v4.805c0 .777-.184 1.555-.531 2.25l-.584 1.167c-.08.161-.123.338-.123.518v2.474a6.21 6.21 0 0 1-1.903 4.496 6.22 6.22 0 0 1-4.557 1.766c-3.349-.1-6.073-3.05-6.073-6.574zM44.338 45.05a.074.074 0 0 1-.059.036.073.073 0 0 1-.064-.023l-2.896-2.895 5.46-3.731 1.158 1.216-3.599 5.397zm-9.524.013c-.008.008-.026.027-.064.023a.074.074 0 0 1-.059-.036l-3.599-5.397 1.158-1.217 5.46 3.731-2.896 2.896zm3.802-9.358c.305.02.608.03.91.03 2.213 0 4.343-.53 6.255-1.533v2.113l-6.266 4.283-6.267-4.283v-2.16a13.032 13.032 0 0 0 5.368 1.55zM28.299 21.783v-2.87c0-.175-.04-.347-.116-.504a11.095 11.095 0 0 1-1.122-4.862v-2.474c0-4.818 3.922-8.739 8.742-8.739h16.165v11.213c0 1.685-.377 3.32-1.122 4.862a1.157 1.157 0 0 0-.115.503v3.294c0 3.134-1.26 6.04-3.548 8.183-.285.268-.582.519-.888.752l-.02.015c-2.143 1.626-4.768 2.417-7.51 2.24-5.869-.38-10.466-5.481-10.466-11.613zM10.533 43.679l-1.076-1.023a2.39 2.39 0 0 0 .282-1.13v-1.233a8.61 8.61 0 0 0 5.11 0l-.001 1.233c0 .404.1.79.281 1.13l-1.076 1.023a2.554 2.554 0 0 1-3.52 0zM3.71 38.164c.316-.826.521-1.772.66-2.77a8.627 8.627 0 0 0 3.054 3.767v1.387c-2.165-.779-3.25-1.817-3.714-2.384zm1.076-9.69c.148-2.08.979-3.995 2.34-5.394a7.153 7.153 0 0 1 5.167-2.19 7.15 7.15 0 0 1 5.168 2.19c1.36 1.4 2.192 3.315 2.34 5.394.045.644.07 1.395.097 2.19l.006.207c-1.259-1.94-3.203-3.369-5.715-4.176-2.322-.745-4.318-.7-4.402-.697-.303.009-.59.135-.801.353l-2.088 2.165a1.157 1.157 0 1 0 1.666 1.606l1.737-1.8c1.497.072 6.31.632 8.182 4.753a6.251 6.251 0 0 1-6.19 5.293 6.273 6.273 0 0 1-6.266-6.265 1.157 1.157 0 0 0-1.347-1.14l.01-.298c.026-.796.05-1.547.096-2.191zm12.376 12.078v-1.38a8.558 8.558 0 0 0 3.056-3.772c.138.997.343 1.94.659 2.764-.461.562-1.552 1.61-3.715 2.388zm58.306 2.04l-4.779-1.366a.485.485 0 0 1-.35-.464v-1.595c.389-.27.76-.571 1.106-.908a8.51 8.51 0 0 0 2.606-6.157v-2.2l.462-.924a7.379 7.379 0 0 0 .775-3.284v-5.962c0-.639-.518-1.157-1.157-1.157H62.995c-4.05 0-7.344 3.294-7.344 7.342v.07c0 .942.223 1.886.645 2.73l.592 1.184v1.89A9.026 9.026 0 0 0 60.6 39.09v1.671c0 .258 0 .365-.955.638l-2.332.666-6.746-2.453a1.155 1.155 0 0 0-.315-.885l-2.156-2.264v-3.801c.228-.188.452-.38.67-.585a13.577 13.577 0 0 0 4.28-9.87V19.17a13.37 13.37 0 0 0 1.237-5.624V1.177c0-.638-.519-1.156-1.158-1.156H35.803c-6.097 0-11.056 4.958-11.056 11.052v2.474c0 1.947.416 3.838 1.237 5.624v2.612c0 4.325 1.924 8.22 4.95 10.79v3.89l-2.156 2.264c-.232.244-.34.567-.316.886l-7.12 2.588a6.069 6.069 0 0 0-1.43.75l-1.118-.56c3.328-1.448 4.382-3.485 4.433-3.586.163-.326.163-.71 0-1.035-.835-1.668-.936-4.725-1.017-7.182a62.559 62.559 0 0 0-.101-2.279c-.395-5.549-4.615-9.734-9.816-9.734-5.201 0-9.421 4.185-9.815 9.734-.05.689-.075 1.461-.102 2.28-.081 2.456-.182 5.513-1.016 7.181-.163.326-.163.71 0 1.035.05.101 1.102 2.134 4.437 3.584L2.692 43.94A4.842 4.842 0 0 0 0 48.295v8.547a1.157 1.157 0 0 0 2.314 0v-8.547a2.54 2.54 0 0 1 1.413-2.284l3.867-1.933 1.345 1.278a4.856 4.856 0 0 0 3.354 1.34 4.857 4.857 0 0 0 3.354-1.34l1.345-1.278 1.261.63a6.091 6.091 0 0 0-.93 3.23v8.905a1.157 1.157 0 0 0 2.314 0v-8.905a3.803 3.803 0 0 1 2.496-3.562l7.507-2.73 3.125 4.687A2.386 2.386 0 0 0 34.76 47.4c.632 0 1.238-.249 1.69-.701l1.907-1.906v12.05a1.157 1.157 0 0 0 2.315 0v-12.05l1.906 1.906a2.384 2.384 0 0 0 1.93.69 2.386 2.386 0 0 0 1.756-1.055l3.125-4.686 7.507 2.729a3.803 3.803 0 0 1 2.496 3.563v8.904a1.157 1.157 0 0 0 2.314 0V47.94a6.116 6.116 0 0 0-1.711-4.233l.286-.082a6.347 6.347 0 0 0 1.077-.389l2.954 2.954v10.654a1.157 1.157 0 0 0 2.315 0V46.19l2.934-2.933c.156.08.32.146.492.195l4.78 1.366a2.565 2.565 0 0 1 1.853 2.455v9.571a1.157 1.157 0 0 0 2.314 0v-9.57a4.89 4.89 0 0 0-3.532-4.682z" mask="url(#kb)"/><path d="M73.5 48c-.828 0-1.5.532-1.5 1.188v7.624c0 .656.672 1.188 1.5 1.188s1.5-.532 1.5-1.188v-7.624c0-.656-.672-1.188-1.5-1.188m-67 2c-.828 0-1.5.505-1.5 1.128v5.744C5 57.495 5.672 58 6.5 58S8 57.495 8 56.872v-5.744C8 50.505 7.328 50 6.5 50m24.857-37.025c0-.041.027-.077.062-.082 1.519-.237 4.534-.602 7.657-.387 3.675.253 6.337 1.207 7.912 2.835.46.475 1.207.475 1.667 0 .46-.476.46-1.248 0-1.723C44.197 9.01 34.87 9.89 31.067 10.484 29.87 10.67 29 11.718 29 12.975v2.807c0 .673.528 1.218 1.179 1.218.65 0 1.178-.545 1.178-1.218v-2.807M25.5 51c-.828 0-1.5.5-1.5 1.115v4.77C24 57.5 24.672 58 25.5 58s1.5-.5 1.5-1.115v-4.77C27 51.5 26.328 51 25.5 51m28 0c-.828 0-1.5.5-1.5 1.115v4.77C52 57.5 52.672 58 53.5 58s1.5-.5 1.5-1.115v-4.77C55 51.5 54.328 51 53.5 51"/></g></symbol><symbol viewBox="0 0 107 34" id="white-logo" xmlns="http://www.w3.org/2000/svg"><title>813922F3-AF30-40EC-9D0A-D3CD79A814B6</title><defs><path id="la" d="M.567.174h13.076V19.69H.567V.174z"/><path id="lc" d="M6.165 6H.755V.72h5.41z"/><path id="le" d="M2.612 6H.344V.72h2.268z"/><path id="lg" d="M4.604 6H.16V.72h4.445V6z"/><path id="li" d="M2.321 6H.052V.72h2.27z"/></defs><g fill-rule="evenodd"><path d="M18.673 19H11l.03-.27h.378c.545 0 1.011-.163 1.4-.49.387-.324.591-.723.613-1.193V1.953c0-.47-.2-.868-.597-1.193a2.168 2.168 0 0 0-1.416-.49h-.378L11 0h6.258c2.159 0 3.836.411 5.031 1.234 1.195.824 1.793 1.924 1.793 3.299 0 1.085-.335 1.986-1.006 2.7a4.887 4.887 0 0 1-2.453 1.426c1.656.216 2.966.805 3.932 1.764.962.96 1.445 2.167 1.445 3.624 0 1.457-.643 2.646-1.933 3.57-1.29.923-3.088 1.383-5.394 1.383zm-3.209-.976h3.146c1.593 0 2.83-.376 3.711-1.127.88-.75 1.32-1.814 1.32-3.189 0-.779-.151-1.462-.455-2.05-.304-.588-.687-1.054-1.148-1.398-1.217-.868-4.125-1.302-6.556-1.302h-.032v-.244h.297c.178 0 1.52-.019 1.857-.055.334-.036.712-.1 1.131-.19a3.71 3.71 0 0 0 1.133-.435c.335-.2.65-.434.943-.706.608-.596.912-1.487.912-2.673 0-1.185-.392-2.113-1.18-2.783-.785-.669-1.923-1.004-3.411-1.004h-1.668v17.156z"/><g transform="translate(48)"><mask id="lb"><use xlink:href="#la"/></mask><path d="M.676 18.215c-.072-.248-.11-.732-.11-1.447 0-.715.182-1.474.546-2.279h.327a4.96 4.96 0 0 0-.035.59c0 1.09.447 1.997 1.342 2.722.896.724 2.083 1.086 3.56 1.086 1.526 0 2.778-.34 3.759-1.02.982-.68 1.47-1.532 1.47-2.56s-.47-1.864-1.415-2.507L3.145 8.028c-1.306-.893-1.96-1.975-1.96-3.243 0-1.269.574-2.356 1.726-3.257C4.06.626 5.616.174 7.578.174c.919 0 1.96.09 3.123.267h1.416V3.74h-.327c0-.84-.393-1.51-1.18-2.01-.787-.5-1.799-.751-3.032-.751-1.236 0-2.27.304-3.107.912-.835.607-1.253 1.366-1.253 2.279 0 .91.485 1.697 1.453 2.357l7.156 4.88c1.21.823 1.816 1.949 1.816 3.378 0 1.43-.618 2.605-1.853 3.525-1.235.92-2.882 1.38-4.94 1.38-1.065 0-2.197-.121-3.396-.362-1.198-.24-2.123-.61-2.778-1.112" mask="url(#lb)"/></g><path d="M66.354 18.728c.475 0 .881-.166 1.22-.5.34-.337.515-.74.536-1.21V1.954A1.697 1.697 0 0 0 67.575.76a1.698 1.698 0 0 0-1.221-.488H66V0h6v.272h-.356c-.474 0-.88.162-1.219.488a1.686 1.686 0 0 0-.535 1.194v15.064c0 .47.175.873.523 1.21.345.334.757.5 1.23.5H72V19h-6v-.272h.354zM95.52.652a1.6 1.6 0 0 0-1.143.456 1.56 1.56 0 0 0-.507 1.108v13.447c0 1.01.063 1.964.186 2.868l.054.469h-.24L79.355 3.832v12.979c.019.606.293 1.06.826 1.355.25.138.516.208.799.208h.506v.26H76v-.26h.505c.444 0 .828-.151 1.147-.456.318-.304.479-.683.479-1.134V3.258c0-1.06-.063-2.006-.187-2.84L77.892 0h.264L92.67 15.168V2.242a1.595 1.595 0 0 0-.503-1.134 1.61 1.61 0 0 0-1.145-.456h-.507v-.26H96v.26h-.48zM38.449 15L42 23.667S10.163 24.991 0 28c0 0 15.347-5.256 35.39-6.187L38.45 15z"/><path d="M35 0h4.408l8.98 20.81C89.122 20.978 107 29 107 29c-24.98-6.1-62.368-5.265-62.368-5.265L35 0zm-1.303 1L36 6.93l-5.454 13.565S28.728 20.18 26 21l7.697-20zM29.08 32.083c0 .968.025 1.39.139 1.509.101.105.265.151.758.151.334 0 .612-.007.764-.198a.938.938 0 0 0 .164-.395c.007-.053.02-.086.057-.086.032 0 .038.027.038.1 0 .072-.044.467-.095.658-.044.152-.063.178-.398.178-.543 0-1.08-.04-1.692-.04-.196 0-.386.02-.62.02-.069 0-.1-.013-.1-.052 0-.02.012-.04.05-.04a.934.934 0 0 0 .19-.026c.126-.027.158-.172.183-.363.032-.276.032-.797.032-1.43V30.91c0-1.027 0-1.212-.013-1.423-.013-.223-.063-.329-.272-.375a1.134 1.134 0 0 0-.214-.02c-.026 0-.051-.013-.051-.04 0-.039.032-.052.101-.052.284 0 .682.02.714.02.031 0 .492-.02.682-.02.07 0 .1.013.1.053 0 .026-.024.04-.05.04a1.43 1.43 0 0 0-.208.019c-.183.033-.234.145-.246.375-.013.211-.013.396-.013 1.423v1.173z"/><g transform="translate(32 28)"><mask id="ld"><use xlink:href="#lc"/></mask><path d="M5.505 3.434C5.505 1.818 4.501.95 3.415.95c-1.148 0-2.008.741-2.008 2.216 0 1.569.963 2.58 2.2 2.58.62 0 1.898-.351 1.898-2.31m-4.75-.082c0-1.09.81-2.633 2.708-2.633 1.547 0 2.702.956 2.702 2.526C6.165 4.754 5.08 6 3.422 6 1.538 6 .754 4.566.754 3.353" mask="url(#ld)"/></g><path d="M45.517 33.369c0 .287-.007.3-.087.344-.43.217-1.034.287-1.423.287-.51 0-1.463-.064-2.208-.682-.41-.338-.799-1.02-.799-1.818 0-1.02.524-1.741 1.12-2.098.605-.357 1.27-.402 1.786-.402.423 0 .9.083 1.027.108.14.032.376.058.544.064.067.007.08.032.08.058 0 .089-.047.267-.047.905 0 .102-.013.134-.06.134-.034 0-.04-.038-.047-.096a.945.945 0 0 0-.141-.42c-.168-.243-.712-.517-1.577-.517-.423 0-.927.038-1.437.42-.389.294-.664.874-.664 1.62 0 .9.476 1.55.711 1.767.53.492 1.141.683 1.759.683.241 0 .59-.038.765-.134a.23.23 0 0 0 .134-.223v-1.085c0-.516-.034-.586-.302-.656a1.317 1.317 0 0 0-.228-.02c-.027 0-.054-.012-.054-.038 0-.038.034-.05.107-.05.303 0 .725.018.759.018.034 0 .456-.019.658-.019.074 0 .107.013.107.051 0 .026-.027.038-.054.038-.046 0-.087.007-.167.02-.182.031-.235.14-.249.363-.013.204-.013.395-.013.663v.715zm4.069-2.451c0-1.032 0-1.217-.016-1.429-.015-.225-.093-.337-.265-.37a1.216 1.216 0 0 0-.242-.027c-.032 0-.063-.013-.063-.04 0-.039.04-.052.125-.052.258 0 .75.02.79.02.038 0 .53-.02.765-.02.086 0 .125.013.125.053 0 .026-.032.04-.063.04-.055 0-.101.006-.195.02-.21.033-.274.145-.29.376-.015.212-.015.397-.015 1.429v1.164c0 .635 0 1.157.04 1.435.023.192.07.337.304.364.11.013.273.027.32.027.07 0 .094.02.094.04 0 .032-.031.052-.117.052-.43 0-.93-.02-.969-.02-.039 0-.531.02-.766.02-.085 0-.125-.013-.125-.053 0-.02.016-.04.086-.04a1.2 1.2 0 0 0 .204-.02c.156-.026.203-.178.234-.37.039-.278.039-.8.039-1.435v-1.164z"/><g transform="translate(53 28)"><mask id="lf"><use xlink:href="#le"/></mask><path d="M.432 5.818c-.083-.047-.088-.074-.088-.256 0-.336.023-.606.029-.714.006-.074.018-.107.047-.107.036 0 .041.02.041.074 0 .06 0 .155.018.249.089.498.478.687.872.687.566 0 .843-.465.843-.896 0-.465-.17-.734-.678-1.212l-.265-.25C.626 2.809.485 2.39.485 1.934.485 1.211.957.72 1.705.72c.23 0 .4.027.548.067a.843.843 0 0 0 .206.034c.047 0 .06.013.06.047s-.024.256-.024.714c0 .108-.012.155-.042.155-.035 0-.04-.034-.047-.088a1.321 1.321 0 0 0-.076-.336c-.036-.074-.195-.357-.737-.357-.407 0-.725.29-.725.781 0 .384.153.626.719 1.131l.165.149c.695.626.86 1.043.86 1.582 0 .276-.094.788-.5 1.118-.254.202-.572.283-.89.283-.277 0-.548-.047-.79-.182" mask="url(#lf)"/></g><path d="M61.31 32.117c0 .623 0 1.136.03 1.41.02.187.058.33.247.356.088.013.227.026.284.026.038 0 .05.02.05.039 0 .033-.031.052-.1.052-.348 0-.745-.02-.777-.02-.031 0-.429.02-.618.02-.07 0-.1-.013-.1-.052 0-.02.012-.039.05-.039a.948.948 0 0 0 .189-.026c.126-.026.157-.169.183-.357.031-.273.031-.786.031-1.41V29.37c-.309.007-.624.007-.933.013-.392.006-.543.052-.644.208-.07.11-.088.156-.107.201-.02.052-.038.065-.063.065-.02 0-.032-.02-.032-.058 0-.065.126-.624.139-.676.012-.039.038-.123.063-.123.044 0 .107.065.278.078.183.02.422.032.498.032h2.366c.202 0 .347-.013.448-.032.095-.013.151-.033.177-.033.031 0 .031.04.031.078 0 .195-.019.643-.019.715 0 .058-.019.084-.044.084-.032 0-.044-.02-.05-.11 0-.026-.007-.046-.007-.072-.019-.195-.17-.344-.776-.357-.265-.006-.53-.006-.795-.013v2.747zm5.276-1.199c0-1.032 0-1.217-.016-1.429-.015-.225-.094-.337-.265-.37a1.214 1.214 0 0 0-.243-.027c-.031 0-.062-.013-.062-.04 0-.039.039-.052.125-.052.258 0 .75.02.789.02.039 0 .531-.02.765-.02.087 0 .125.013.125.053 0 .026-.03.04-.062.04-.055 0-.102.006-.195.02-.211.033-.274.145-.29.376-.015.212-.015.397-.015 1.429v1.164c0 .635 0 1.157.039 1.435.024.192.07.337.305.364.11.013.273.027.32.027.07 0 .094.02.094.04 0 .032-.031.052-.117.052-.43 0-.93-.02-.97-.02-.038 0-.53.02-.765.02-.086 0-.125-.013-.125-.053 0-.02.016-.04.086-.04.047 0 .133-.006.203-.02.157-.026.203-.178.235-.37.039-.278.039-.8.039-1.435v-1.164z"/><g transform="translate(70 28)"><mask id="lh"><use xlink:href="#lg"/></mask><path d="M.95 5.273C.317 4.687.16 3.919.16 3.279c0-.45.15-1.239.733-1.838.393-.405.988-.72 1.997-.72.262 0 .628.02.95.08.248.047.45.067.693.1.046.008.06.034.06.075 0 .054-.02.135-.034.377-.012.222-.012.593-.019.694-.007.1-.02.141-.06.141-.045 0-.052-.047-.052-.141 0-.263-.104-.539-.274-.687-.23-.202-.734-.384-1.31-.384-.87 0-1.277.263-1.506.492-.478.471-.59 1.07-.59 1.758 0 1.286.963 2.464 2.365 2.464.49 0 .877-.06 1.139-.336.137-.149.222-.445.242-.566.013-.074.026-.101.065-.101.033 0 .046.047.046.1 0 .048-.078.634-.144.863-.04.128-.052.141-.17.195-.262.108-.76.155-1.178.155-.983 0-1.644-.249-2.161-.727" mask="url(#lh)"/></g><g transform="translate(77 28)"><mask id="lj"><use xlink:href="#li"/></mask><path d="M.14 5.818c-.082-.047-.088-.074-.088-.256 0-.336.024-.606.03-.714.006-.074.018-.107.047-.107.035 0 .041.02.041.074 0 .06 0 .155.018.249.088.498.477.687.872.687.566 0 .843-.465.843-.896 0-.465-.171-.734-.678-1.212l-.265-.25C.335 2.809.194 2.39.194 1.934.194 1.211.665.72 1.414.72c.23 0 .4.027.548.067a.854.854 0 0 0 .206.034c.047 0 .059.013.059.047s-.024.256-.024.714c0 .108-.011.155-.04.155-.036 0-.042-.034-.048-.088a1.328 1.328 0 0 0-.077-.336c-.035-.074-.194-.357-.736-.357-.407 0-.725.29-.725.781 0 .384.153.626.719 1.131l.165.149c.695.626.86 1.043.86 1.582 0 .276-.094.788-.5 1.118C1.566 5.92 1.248 6 .93 6c-.277 0-.549-.047-.79-.182" mask="url(#lj)"/></g></g></symbol></svg>