<?xml version="1.0" encoding="UTF-8"?>
<svg width="61px" height="60px" viewBox="0 0 61 60" version="1.1" xmlns="http://www.w3.org/2000/svg" xmlns:xlink="http://www.w3.org/1999/xlink">
    <!-- Generator: sketchtool 46.1 (44463) - http://www.bohemiancoding.com/sketch -->
    <title>F15B8A5C-954D-492F-BFD7-89B35629C55F</title>
    <desc>Created with sketchtool.</desc>
    <defs>
        <path d="M-7.63234961e-15,9.38771452 C0.150622659,6.51916941 2.56956702,4.23073171 5.52273171,4.23073171 L5.71763415,4.23073171 C6.33656098,1.89073171 8.48346341,0.149268293 11.0543902,0.149268293 C14.1043902,0.149268293 16.5860488,2.59170732 16.5860488,5.59170732 C16.5860488,8.59170732 14.1043902,11.0341463 11.0543902,11.0341463 C8.48346341,11.0341463 6.33656098,9.29268293 5.71763415,6.95268293 L5.52273171,6.95268293 C3.99921951,6.95268293 2.75839024,8.17317073 2.75839024,9.67170732 L2.75839024,15.1126829 C2.75839024,21.5809756 12.7668537,31.7136585 17.1082683,35.5156098 L24.3613171,35.5156098 C28.7027317,31.7136585 38.7126829,21.5809756 38.7126829,15.1126829 L38.7126829,9.67170732 C38.7126829,8.17317073 37.4718537,6.95268293 35.9468537,6.95268293 L35.7519512,6.95268293 C35.1330244,9.29268293 32.986122,11.0341463 30.4151951,11.0341463 C27.3637073,11.0341463 24.8835366,8.59170732 24.8835366,5.59170732 C24.8835366,2.59170732 27.3637073,0.149268293 30.4151951,0.149268293 C32.986122,0.149268293 35.1330244,1.89073171 35.7519512,4.23073171 L35.9468537,4.23073171 C38.9983415,4.23073171 41.4785122,6.67170732 41.4785122,9.67170732 L41.4785122,15.1126829 C41.4785122,24.155122 27.2015366,36.684878 25.9026829,37.8073171 L22.1415122,42.7404878 C22.3706341,50.795122 29.0880732,57.2795122 37.3290244,57.2795122 L38.7126829,57.2795122 C43.6283902,57.2795122 47.655878,53.6429268 48.2688537,48.9687805 C42.8859756,48.2370732 38.7126829,43.7282927 38.7126829,38.2360976 C38.7126829,32.2360976 43.676,27.3556098 49.776,27.3556098 C55.876,27.3556098 60.8378293,32.2360976 60.8378293,38.2360976 C60.8378293,43.8131707 56.5350976,48.3717073 51.0317073,48.9936585 C50.3919512,55.157561 45.1459512,60 38.7126829,60 L37.3290244,60 C27.5839024,60 19.642,52.3273171 19.3771707,42.8034146 L15.5683902,37.8073171 C14.2867266,36.6997332 0.36819218,24.4847803 3.40822391e-15,15.4735042 L3.72309737e-15,9.38771452 L-7.63234961e-15,9.38771452 Z M27.647878,5.59170732 C27.647878,7.09317073 28.8887073,8.31219512 30.4151951,8.31219512 C31.9416829,8.31219512 33.1825122,7.09317073 33.1825122,5.59170732 C33.1825122,4.0902439 31.9416829,2.8697561 30.4151951,2.8697561 C28.8887073,2.8697561 27.647878,4.0902439 27.647878,5.59170732 Z M8.28707317,5.59170732 C8.28707317,7.09317073 9.52790244,8.31219512 11.0543902,8.31219512 C12.580878,8.31219512 13.8217073,7.09317073 13.8217073,5.59170732 C13.8217073,4.0902439 12.580878,2.8697561 11.0543902,2.8697561 C9.52790244,2.8697561 8.28707317,4.0902439 8.28707317,5.59170732 Z M41.4785122,38.2360976 C41.4785122,42.737561 45.1995122,46.397561 49.776,46.397561 C54.351,46.397561 58.0734878,42.737561 58.0734878,38.2360976 C58.0734878,33.7360976 54.351,30.0746341 49.776,30.0746341 C45.1995122,30.0746341 41.4785122,33.7360976 41.4785122,38.2360976 Z M19.3533659,38.2360976 L20.7340488,40.0507317 L22.1177073,38.2360976 L19.3533659,38.2360976 Z" id="path-1"></path>
        <path d="M0.148,6.192 C0.148,3.117 2.74266667,0.615 5.93155556,0.615 C9.122,0.615 11.7151111,3.117 11.7151111,6.192 C11.7151111,9.2685 9.122,11.769 5.93155556,11.769 C2.74266667,11.769 0.148,9.2685 0.148,6.192 Z M3.03977778,6.192 C3.03977778,7.731 4.33866667,8.9805 5.93155556,8.9805 C7.526,8.9805 8.82333333,7.731 8.82333333,6.192 C8.82333333,4.6545 7.526,3.4035 5.93155556,3.4035 C4.33866667,3.4035 3.03977778,4.6545 3.03977778,6.192 Z" id="path-3"></path>
    </defs>
    <g id="Page-1" stroke="none" stroke-width="1" fill="none" fill-rule="evenodd">
        <g id="07-1440-Career-01" transform="translate(-450.000000, -352.000000)">
            <g id="Page-1" transform="translate(450.000000, 352.000000)">
                <g id="Group-3">
                    <mask id="mask-2" fill="white">
                        <use xlink:href="#path-1"></use>
                    </mask>
                    <g id="Clip-2"></g>
                    <polygon id="Fill-1" fill="#0A0B09" mask="url(#mask-2)" points="-0.656121951 60.6365854 61.4865122 60.6365854 61.4865122 -0.488780488 -0.656121951 -0.488780488"></polygon>
                </g>
                <g id="Group-6" transform="translate(44.000000, 32.000000)">
                    <mask id="mask-4" fill="white">
                        <use xlink:href="#path-3"></use>
                    </mask>
                    <g id="Clip-5"></g>
                    <polygon id="Fill-4" fill="#0A0B09" mask="url(#mask-4)" points="-0.530222222 12.423 12.3917778 12.423 12.3917778 -0.0375 -0.530222222 -0.0375"></polygon>
                </g>
            </g>
        </g>
    </g>
</svg>