<?xml version="1.0" encoding="UTF-8"?>
<svg width="593px" height="188px" viewBox="0 0 593 188" version="1.1" xmlns="http://www.w3.org/2000/svg" xmlns:xlink="http://www.w3.org/1999/xlink">
    <!-- Generator: sketchtool 46.1 (44463) - http://www.bohemiancoding.com/sketch -->
    <title>64BA62EE-D69C-467C-82D6-D2569FA9664B</title>
    <desc>Created with sketchtool.</desc>
    <defs>
        <polygon id="path-1" points="0.8589 0.129 73.6029 0.129 73.6029 107.4136 0.8589 107.4136 0.8589 0.129"></polygon>
        <polygon id="path-3" points="28.9434 29 0.6144 29 0.6144 0.7792 28.9434 0.7792"></polygon>
        <polygon id="path-5" points="14.1521 29 0.2931 29 0.2931 0.7793 14.1521 0.7793"></polygon>
        <polygon id="path-7" points="25.1305 29 0.6895 29 0.6895 0.7793 25.1305 0.7793 25.1305 29"></polygon>
        <polygon id="path-9" points="14.2268 29 0.3688 29 0.3688 0.7793 14.2268 0.7793"></polygon>
    </defs>
    <g id="Symbols" stroke="none" stroke-width="1" fill="none" fill-rule="evenodd">
        <g id="Logo">
            <g id="Page-1">
                <path d="M100.7203,108.287 L59.2723,108.287 L59.4363,106.767 L61.4763,106.767 C64.4213,106.767 66.9393,105.849 69.0403,104.005 C71.1313,102.182 72.2333,99.94 72.3503,97.295 L72.3503,12.321 C72.3503,9.676 71.2723,7.435 69.1243,5.601 C66.9713,3.768 64.4213,2.853 61.4763,2.853 L59.4363,2.853 L59.2723,1.325 L93.0773,1.325 C104.7393,1.325 113.7993,3.641 120.2563,8.274 C126.7133,12.912 129.9393,19.101 129.9393,26.844 C129.9393,32.954 128.1293,38.023 124.5093,42.046 C120.8793,46.074 116.4623,48.747 111.2573,50.074 C120.1993,51.288 127.2803,54.604 132.4943,60.001 C137.6953,65.403 140.3023,72.203 140.3023,80.404 C140.3023,88.606 136.8273,95.302 129.8593,100.502 C122.8913,105.698 113.1793,108.287 100.7203,108.287 L100.7203,108.287 Z M83.3883,102.791 L100.0453,102.791 L100.3833,102.791 C108.9883,102.791 115.6743,100.676 120.4293,96.446 C125.1843,92.226 127.5613,86.238 127.5613,78.495 C127.5613,74.111 126.7413,70.266 125.0993,66.955 C123.4583,63.645 121.3903,61.023 118.9013,59.087 C112.3263,54.196 96.6173,51.753 83.4833,51.753 L83.3093,51.753 L83.3093,50.379 L84.9173,50.379 C85.8793,50.379 93.1283,50.276 94.9483,50.074 C96.7533,49.868 98.7933,49.512 101.0583,49.005 C103.3273,48.494 105.3673,47.678 107.1783,46.553 C108.9883,45.432 110.6903,44.109 112.2703,42.58 C115.5573,39.223 117.1983,34.205 117.1983,27.533 C117.1983,20.86 115.0793,15.636 110.8253,11.866 C106.5823,8.1 100.4343,6.211 92.3973,6.211 L83.3883,6.211 L83.3883,102.791 Z" id="Fill-1" fill="#6D1918"></path>
                <g id="Group-5" transform="translate(268.000000, 0.871000)">
                    <mask id="mask-2" fill="white">
                        <use xlink:href="#path-1"></use>
                    </mask>
                    <g id="Clip-4"></g>
                    <path d="M1.4679,99.3066 C1.0649,97.9416 0.8589,95.2836 0.8589,91.3486 C0.8589,87.4186 1.8709,83.2456 3.8919,78.8236 L5.7119,78.8236 C5.5809,79.9066 5.5149,80.9856 5.5149,82.0636 C5.5149,88.0616 8.0049,93.0466 12.9849,97.0276 C17.9689,101.0086 24.5719,103.0016 32.7829,103.0016 C41.2749,103.0016 48.2389,101.1306 53.6969,97.3886 C59.1599,93.6556 61.8749,88.9716 61.8749,83.3206 C61.8749,77.6706 59.2589,73.0746 54.0019,69.5386 L15.2029,43.3066 C7.9389,38.3926 4.2959,32.4476 4.2959,25.4736 C4.2959,18.5006 7.4939,12.5266 13.8989,7.5706 C20.2959,2.6096 28.9469,0.1286 39.8639,0.1286 C44.9749,0.1286 50.7709,0.6206 57.2369,1.5966 L65.1149,1.5966 L65.1149,19.7246 L63.2919,19.7246 C63.2919,15.1056 61.1059,11.4256 56.7309,8.6726 C52.3509,5.9246 46.7239,4.5456 39.8639,4.5456 C32.9889,4.5456 27.2309,6.2206 22.5789,9.5586 C17.9319,12.8976 15.6059,17.0706 15.6059,22.0886 C15.6059,27.0966 18.3069,31.4196 23.6909,35.0496 L63.4979,61.8766 C70.2309,66.3976 73.6029,72.5866 73.6029,80.4466 C73.6029,88.3096 70.1659,94.7666 63.2919,99.8226 C56.4259,104.8816 47.2629,107.4136 35.8169,107.4136 C29.8899,107.4136 23.5919,106.7436 16.9239,105.4206 C10.2559,104.1036 5.1119,102.0636 1.4679,99.3066" id="Fill-3" fill="#6D1918" mask="url(#mask-2)"></path>
                </g>
                <path d="M364.5738,106.7655 C367.2048,106.7655 369.4548,105.8375 371.3358,103.9615 C373.2118,102.0805 374.1858,99.8305 374.2998,97.1995 L374.2998,12.9245 C374.1858,10.2935 373.2118,8.0665 371.3358,6.2465 C369.4548,4.4225 367.2048,3.5175 364.5738,3.5175 L362.6138,3.5175 L362.6138,1.9945 L395.8458,1.9945 L395.8458,3.5175 L393.8718,3.5175 C391.2508,3.5175 389.0048,4.4225 387.1248,6.2465 C385.2488,8.0665 384.2598,10.2935 384.1608,12.9245 L384.1608,97.1995 C384.1608,99.8305 385.1268,102.0805 387.0538,103.9615 C388.9678,105.8375 391.2508,106.7655 393.8718,106.7655 L395.8458,106.7655 L395.8458,108.2855 L362.6138,108.2855 L362.6138,106.7655 L364.5738,106.7655 Z" id="Fill-6" fill="#6D1918"></path>
                <path d="M524.9781,5.1713 C522.5401,5.1713 520.4391,6.0253 518.6901,7.7313 C516.9221,9.4383 515.9941,11.5203 515.9001,13.9593 L515.9001,89.5353 C515.9001,95.2053 516.2471,100.5743 516.9221,105.6523 L517.2221,108.2883 L515.9001,108.2883 L436.0701,23.0423 L436.0701,95.9833 C436.1731,99.3923 437.6831,101.9433 440.6141,103.5983 C441.9831,104.3773 443.4511,104.7713 445.0071,104.7713 L447.7891,104.7713 L447.7891,106.2343 L417.6181,106.2343 L417.6181,104.7713 L420.3941,104.7713 C422.8371,104.7713 424.9471,103.9213 426.7011,102.2063 C428.4551,100.4993 429.3361,98.3703 429.3361,95.8333 L429.3361,19.8163 C429.3361,13.8603 428.9901,8.5383 428.3091,3.8493 L428.0231,1.5043 L429.4771,1.5043 L509.3021,86.7503 L509.3021,14.1043 C509.2081,11.5673 508.2801,9.4383 506.5311,7.7313 C504.7631,6.0253 502.6671,5.1713 500.2381,5.1713 L497.4481,5.1713 L497.4481,3.7033 L527.6141,3.7033 L527.6141,5.1713 L524.9781,5.1713 Z" id="Fill-8" fill="#6D1918"></path>
                <path d="M213.1222,82.6269 L232.8072,131.4979 C232.8072,131.4979 56.3322,138.9639 0.0002,155.9299 C0.0002,155.9299 85.0682,126.2929 196.1702,121.0409 L213.1222,82.6269 Z" id="Fill-10" fill="#404141"></path>
                <path d="M193.2149,4.1195 L217.6459,4.1195 L267.4229,116.7925 C493.2149,117.6985 592.3129,161.1345 592.3129,161.1345 C453.8479,128.1035 246.6069,132.6285 246.6069,132.6285 L193.2149,4.1195 Z" id="Fill-12" fill="#6D1918"></path>
                <path d="M186.9908,9.6625 L199.8858,41.5635 L169.3448,114.5285 C169.3448,114.5285 159.1648,112.8305 143.8918,117.2435 L186.9908,9.6625 Z" id="Fill-14" fill="#6D1918"></path>
                <path d="M158.2413,176.9999 C158.2413,182.2909 158.3853,184.5949 159.0333,185.2429 C159.6093,185.8189 160.5453,186.0709 163.3523,186.0709 C165.2603,186.0709 166.8443,186.0349 167.7083,184.9909 C168.1763,184.4149 168.5363,183.5159 168.6443,182.8309 C168.6803,182.5429 168.7523,182.3629 168.9683,182.3629 C169.1483,182.3629 169.1843,182.5079 169.1843,182.9029 C169.1843,183.2989 168.9323,185.4589 168.6443,186.5029 C168.3923,187.3309 168.2843,187.4749 166.3763,187.4749 C163.2813,187.4749 160.2213,187.2589 156.7293,187.2589 C155.6143,187.2589 154.5333,187.3669 153.2023,187.3669 C152.8063,187.3669 152.6263,187.2949 152.6263,187.0789 C152.6263,186.9709 152.6983,186.8629 152.9143,186.8629 C153.2383,186.8629 153.6703,186.7909 153.9933,186.7189 C154.7143,186.5749 154.8933,185.7829 155.0373,184.7389 C155.2183,183.2279 155.2183,180.3839 155.2183,176.9279 L155.2183,170.5929 C155.2183,164.9779 155.2183,163.9699 155.1463,162.8169 C155.0743,161.5939 154.7853,161.0189 153.5983,160.7659 C153.3103,160.6939 152.6983,160.6579 152.3743,160.6579 C152.2303,160.6579 152.0863,160.5859 152.0863,160.4419 C152.0863,160.2269 152.2663,160.1539 152.6623,160.1539 C154.2823,160.1539 156.5503,160.2619 156.7293,160.2619 C156.9093,160.2619 159.5373,160.1539 160.6173,160.1539 C161.0133,160.1539 161.1933,160.2269 161.1933,160.4419 C161.1933,160.5859 161.0493,160.6579 160.9053,160.6579 C160.6533,160.6579 160.1493,160.6939 159.7173,160.7659 C158.6733,160.9459 158.3853,161.5579 158.3133,162.8169 C158.2413,163.9699 158.2413,164.9779 158.2413,170.5929 L158.2413,176.9999 Z" id="Fill-16" fill="#414242"></path>
                <g id="Group-20" transform="translate(182.000000, 158.871000)">
                    <mask id="mask-4" fill="white">
                        <use xlink:href="#path-3"></use>
                    </mask>
                    <g id="Clip-19"></g>
                    <path d="M25.4874,15.2852 C25.4874,6.6462 20.2324,2.0032 14.5444,2.0032 C8.5334,2.0032 4.0334,5.9632 4.0334,13.8462 C4.0334,22.2322 9.0734,27.6322 15.5524,27.6322 C18.7924,27.6322 25.4874,25.7602 25.4874,15.2852 M0.6144,14.8532 C0.6144,9.0222 4.8624,0.7792 14.7964,0.7792 C22.8954,0.7792 28.9434,5.8902 28.9434,14.2772 C28.9434,22.3412 23.2554,29.0002 14.5804,29.0002 C4.7174,29.0002 0.6144,21.3332 0.6144,14.8532" id="Fill-18" fill="#414242" mask="url(#mask-4)"></path>
                </g>
                <path d="M250.5074,184.3075 C250.5074,185.9265 250.4714,185.9985 250.0394,186.2505 C247.7354,187.4745 244.4964,187.8705 242.4084,187.8705 C239.6724,187.8705 234.5614,187.5105 230.5664,184.0195 C228.3704,182.1115 226.2824,178.2595 226.2824,173.7605 C226.2824,168.0005 229.0904,163.9335 232.2934,161.9175 C235.5334,159.9025 239.0964,159.6505 241.8684,159.6505 C244.1364,159.6505 246.6924,160.1185 247.3754,160.2615 C248.1314,160.4425 249.3914,160.5855 250.2914,160.6215 C250.6514,160.6585 250.7234,160.8015 250.7234,160.9465 C250.7234,161.4505 250.4714,162.4575 250.4714,166.0575 C250.4714,166.6335 250.3994,166.8135 250.1474,166.8135 C249.9674,166.8135 249.9314,166.5975 249.8954,166.2735 C249.8594,165.7695 249.6794,164.7615 249.1394,163.8975 C248.2394,162.5305 245.3234,160.9825 240.6804,160.9825 C238.4124,160.9825 235.7134,161.1985 232.9774,163.3575 C230.8894,165.0135 229.4144,168.2885 229.4144,172.5005 C229.4144,177.5765 231.9694,181.2465 233.2294,182.4715 C236.0724,185.2435 239.3484,186.3235 242.6604,186.3235 C243.9564,186.3235 245.8274,186.1075 246.7634,185.5675 C247.2314,185.3155 247.4834,184.9185 247.4834,184.3075 L247.4834,178.1875 C247.4834,175.2725 247.3034,174.8755 245.8634,174.4805 C245.5754,174.4085 244.9644,174.3715 244.6404,174.3715 C244.4964,174.3715 244.3524,174.3005 244.3524,174.1565 C244.3524,173.9405 244.5314,173.8685 244.9274,173.8685 C246.5484,173.8685 248.8154,173.9765 248.9954,173.9765 C249.1754,173.9765 251.4434,173.8685 252.5234,173.8685 C252.9194,173.8685 253.0984,173.9405 253.0984,174.1565 C253.0984,174.3005 252.9554,174.3715 252.8114,174.3715 C252.5594,174.3715 252.3424,174.4085 251.9114,174.4805 C250.9394,174.6605 250.6514,175.2725 250.5794,176.5325 C250.5074,177.6835 250.5074,178.7635 250.5074,180.2755 L250.5074,184.3075 Z" id="Fill-21" fill="#414242"></path>
                <path d="M271.8575,170.5927 C271.8575,164.9777 271.8575,163.9697 271.7855,162.8177 C271.7135,161.5937 271.3535,160.9827 270.5615,160.8017 C270.1655,160.6947 269.6975,160.6577 269.4455,160.6577 C269.3015,160.6577 269.1575,160.5857 269.1575,160.4427 C269.1575,160.2267 269.3375,160.1547 269.7335,160.1547 C270.9215,160.1547 273.1895,160.2617 273.3695,160.2617 C273.5495,160.2617 275.8165,160.1547 276.8975,160.1547 C277.2925,160.1547 277.4725,160.2267 277.4725,160.4427 C277.4725,160.5857 277.3285,160.6577 277.1845,160.6577 C276.9325,160.6577 276.7165,160.6947 276.2845,160.7657 C275.3135,160.9467 275.0245,161.5577 274.9535,162.8177 C274.8805,163.9697 274.8805,164.9777 274.8805,170.5927 L274.8805,176.9277 C274.8805,180.3837 274.8805,183.2277 275.0615,184.7387 C275.1695,185.7827 275.3845,186.5747 276.4645,186.7187 C276.9685,186.7907 277.7245,186.8637 277.9405,186.8637 C278.2645,186.8637 278.3725,186.9707 278.3725,187.0787 C278.3725,187.2587 278.2285,187.3667 277.8325,187.3667 C275.8535,187.3667 273.5495,187.2587 273.3695,187.2587 C273.1895,187.2587 270.9215,187.3667 269.8415,187.3667 C269.4455,187.3667 269.2655,187.2947 269.2655,187.0787 C269.2655,186.9707 269.3375,186.8637 269.6615,186.8637 C269.8775,186.8637 270.2735,186.8267 270.5975,186.7547 C271.3175,186.6117 271.5335,185.7827 271.6775,184.7387 C271.8575,183.2277 271.8575,180.3837 271.8575,176.9277 L271.8575,170.5927 Z" id="Fill-23" fill="#414242"></path>
                <g id="Group-27" transform="translate(295.000000, 158.871000)">
                    <mask id="mask-6" fill="white">
                        <use xlink:href="#path-5"></use>
                    </mask>
                    <g id="Clip-26"></g>
                    <path d="M0.8331,28.0273 C0.3291,27.7753 0.2931,27.6313 0.2931,26.6603 C0.2931,24.8603 0.4371,23.4203 0.4731,22.8443 C0.5091,22.4483 0.5811,22.2683 0.7611,22.2683 C0.9771,22.2683 1.0131,22.3763 1.0131,22.6643 C1.0131,22.9883 1.0131,23.4923 1.1211,23.9963 C1.6611,26.6603 4.0371,27.6683 6.4491,27.6683 C9.9051,27.6683 11.5961,25.1843 11.5961,22.8813 C11.5961,20.3963 10.5521,18.9573 7.4571,16.4013 L5.8361,15.0693 C2.0201,11.9373 1.1571,9.7063 1.1571,7.2583 C1.1571,3.4073 4.0371,0.7793 8.6091,0.7793 C10.0121,0.7793 11.0561,0.9233 11.9571,1.1383 C12.6401,1.2833 12.9281,1.3193 13.2161,1.3193 C13.5031,1.3193 13.5761,1.3903 13.5761,1.5713 C13.5761,1.7513 13.4321,2.9383 13.4321,5.3863 C13.4321,5.9633 13.3601,6.2153 13.1801,6.2153 C12.9641,6.2153 12.9281,6.0343 12.8921,5.7463 C12.8561,5.3143 12.6401,4.3423 12.4241,3.9463 C12.2081,3.5503 11.2361,2.0393 7.9241,2.0393 C5.4411,2.0393 3.4981,3.5873 3.4981,6.2153 C3.4981,8.2663 4.4331,9.5623 7.8881,12.2613 L8.8961,13.0533 C13.1441,16.4013 14.1521,18.6323 14.1521,21.5123 C14.1521,22.9883 13.5761,25.7233 11.0921,27.4883 C9.5441,28.5673 7.6011,29.0003 5.6571,29.0003 C3.9651,29.0003 2.3091,28.7483 0.8331,28.0273" id="Fill-25" fill="#414242" mask="url(#mask-6)"></path>
                </g>
                <path d="M336.4039,176.9276 C336.4039,180.3836 336.4039,183.2276 336.5839,184.7396 C336.6919,185.7826 336.9079,186.5746 337.9879,186.7186 C338.4919,186.7906 339.2839,186.8636 339.6079,186.8636 C339.8239,186.8636 339.8949,186.9706 339.8949,187.0786 C339.8949,187.2586 339.7159,187.3666 339.3199,187.3666 C337.3399,187.3666 335.0719,187.2586 334.8919,187.2586 C334.7129,187.2586 332.4439,187.3666 331.3649,187.3666 C330.9679,187.3666 330.7889,187.2946 330.7889,187.0786 C330.7889,186.9706 330.8609,186.8636 331.0769,186.8636 C331.4009,186.8636 331.8329,186.7906 332.1569,186.7186 C332.8769,186.5746 333.0559,185.7826 333.2009,184.7396 C333.3809,183.2276 333.3809,180.3836 333.3809,176.9276 L333.3809,161.7016 C331.6169,161.7386 329.8169,161.7386 328.0529,161.7746 C325.8209,161.8096 324.9579,162.0616 324.3819,162.9256 C323.9859,163.5376 323.8779,163.7896 323.7689,164.0416 C323.6619,164.3296 323.5529,164.4016 323.4099,164.4016 C323.3009,164.4016 323.2289,164.2936 323.2289,164.0776 C323.2289,163.7176 323.9499,160.6216 324.0209,160.3336 C324.0929,160.1176 324.2379,159.6506 324.3819,159.6506 C324.6329,159.6506 324.9939,160.0096 325.9659,160.0816 C327.0089,160.1906 328.3769,160.2616 328.8089,160.2616 L342.3069,160.2616 C343.4589,160.2616 344.2869,160.1906 344.8629,160.0816 C345.4029,160.0096 345.7269,159.9026 345.8709,159.9026 C346.0499,159.9026 346.0499,160.1176 346.0499,160.3336 C346.0499,161.4136 345.9429,163.8976 345.9429,164.2936 C345.9429,164.6166 345.8349,164.7616 345.6909,164.7616 C345.5099,164.7616 345.4389,164.6536 345.4029,164.1496 C345.4029,164.0056 345.3669,163.8976 345.3669,163.7536 C345.2579,162.6736 344.3949,161.8456 340.9389,161.7746 C339.4269,161.7386 337.9159,161.7386 336.4039,161.7016 L336.4039,176.9276 Z" id="Fill-28" fill="#414242"></path>
                <path d="M364.0533,170.5927 C364.0533,164.9777 364.0533,163.9697 363.9813,162.8177 C363.9093,161.5937 363.5493,160.9827 362.7573,160.8017 C362.3623,160.6947 361.8933,160.6577 361.6413,160.6577 C361.4973,160.6577 361.3543,160.5857 361.3543,160.4427 C361.3543,160.2267 361.5333,160.1547 361.9293,160.1547 C363.1173,160.1547 365.3853,160.2617 365.5653,160.2617 C365.7443,160.2617 368.0123,160.1547 369.0923,160.1547 C369.4893,160.1547 369.6683,160.2267 369.6683,160.4427 C369.6683,160.5857 369.5253,160.6577 369.3803,160.6577 C369.1283,160.6577 368.9123,160.6947 368.4813,160.7657 C367.5083,160.9467 367.2213,161.5577 367.1493,162.8177 C367.0763,163.9697 367.0763,164.9777 367.0763,170.5927 L367.0763,176.9277 C367.0763,180.3837 367.0763,183.2277 367.2563,184.7387 C367.3653,185.7827 367.5803,186.5747 368.6603,186.7187 C369.1643,186.7907 369.9203,186.8637 370.1363,186.8637 C370.4603,186.8637 370.5693,186.9707 370.5693,187.0787 C370.5693,187.2587 370.4243,187.3667 370.0293,187.3667 C368.0483,187.3667 365.7443,187.2587 365.5653,187.2587 C365.3853,187.2587 363.1173,187.3667 362.0373,187.3667 C361.6413,187.3667 361.4613,187.2947 361.4613,187.0787 C361.4613,186.9707 361.5333,186.8637 361.8583,186.8637 C362.0743,186.8637 362.4693,186.8267 362.7933,186.7547 C363.5133,186.6117 363.7293,185.7827 363.8733,184.7387 C364.0533,183.2277 364.0533,180.3837 364.0533,176.9277 L364.0533,170.5927 Z" id="Fill-30" fill="#414242"></path>
                <g id="Group-34" transform="translate(385.000000, 158.871000)">
                    <mask id="mask-8" fill="white">
                        <use xlink:href="#path-7"></use>
                    </mask>
                    <g id="Clip-33"></g>
                    <path d="M5.0445,25.1123 C1.5535,21.9803 0.6895,17.8773 0.6895,14.4573 C0.6895,12.0463 1.5175,7.8343 4.7205,4.6313 C6.8805,2.4703 10.1555,0.7793 15.6985,0.7793 C17.1395,0.7793 19.1545,0.8863 20.9185,1.2113 C22.2865,1.4633 23.4015,1.5713 24.7335,1.7513 C24.9855,1.7873 25.0585,1.9303 25.0585,2.1473 C25.0585,2.4343 24.9495,2.8673 24.8775,4.1633 C24.8065,5.3503 24.8065,7.3303 24.7705,7.8703 C24.7335,8.4103 24.6615,8.6263 24.4455,8.6263 C24.1935,8.6263 24.1575,8.3743 24.1575,7.8703 C24.1575,6.4663 23.5825,4.9903 22.6465,4.1993 C21.3865,3.1193 18.6145,2.1473 15.4465,2.1473 C10.6595,2.1473 8.4285,3.5503 7.1685,4.7743 C4.5405,7.2943 3.9285,10.4983 3.9285,14.1703 C3.9285,21.0453 9.2205,27.3433 16.9235,27.3433 C19.6225,27.3433 21.7465,27.0193 23.1865,25.5443 C23.9415,24.7523 24.4095,23.1683 24.5185,22.5203 C24.5905,22.1243 24.6615,21.9803 24.8775,21.9803 C25.0585,21.9803 25.1305,22.2323 25.1305,22.5203 C25.1305,22.7723 24.6975,25.9043 24.3385,27.1283 C24.1215,27.8113 24.0505,27.8833 23.4015,28.1723 C21.9625,28.7483 19.2275,29.0003 16.9235,29.0003 C11.5235,29.0003 7.8885,27.6683 5.0445,25.1123" id="Fill-32" fill="#414242" mask="url(#mask-8)"></path>
                </g>
                <g id="Group-37" transform="translate(426.000000, 158.871000)">
                    <mask id="mask-10" fill="white">
                        <use xlink:href="#path-9"></use>
                    </mask>
                    <g id="Clip-36"></g>
                    <path d="M0.9088,28.0273 C0.4048,27.7753 0.3688,27.6313 0.3688,26.6603 C0.3688,24.8603 0.5128,23.4203 0.5488,22.8443 C0.5848,22.4483 0.6568,22.2683 0.8368,22.2683 C1.0528,22.2683 1.0888,22.3763 1.0888,22.6643 C1.0888,22.9883 1.0888,23.4923 1.1968,23.9963 C1.7368,26.6603 4.1118,27.6683 6.5238,27.6683 C9.9798,27.6683 11.6718,25.1843 11.6718,22.8813 C11.6718,20.3963 10.6278,18.9573 7.5318,16.4013 L5.9118,15.0693 C2.0958,11.9373 1.2328,9.7063 1.2328,7.2583 C1.2328,3.4073 4.1118,0.7793 8.6838,0.7793 C10.0878,0.7793 11.1318,0.9233 12.0318,1.1383 C12.7158,1.2833 13.0038,1.3193 13.2918,1.3193 C13.5788,1.3193 13.6508,1.3903 13.6508,1.5713 C13.6508,1.7513 13.5078,2.9383 13.5078,5.3863 C13.5078,5.9633 13.4348,6.2153 13.2558,6.2153 C13.0398,6.2153 13.0038,6.0343 12.9678,5.7463 C12.9308,5.3143 12.7158,4.3423 12.4998,3.9463 C12.2838,3.5503 11.3108,2.0393 7.9998,2.0393 C5.5158,2.0393 3.5728,3.5873 3.5728,6.2153 C3.5728,8.2663 4.5088,9.5623 7.9638,12.2613 L8.9718,13.0533 C13.2198,16.4013 14.2268,18.6323 14.2268,21.5123 C14.2268,22.9883 13.6508,25.7233 11.1678,27.4883 C9.6198,28.5673 7.6768,29.0003 5.7318,29.0003 C4.0408,29.0003 2.3848,28.7483 0.9088,28.0273" id="Fill-35" fill="#414242" mask="url(#mask-10)"></path>
                </g>
            </g>
        </g>
    </g>
</svg>