<?xml version="1.0" encoding="UTF-8"?>
<svg width="296px" height="70px" viewBox="0 0 296 70" version="1.1" xmlns="http://www.w3.org/2000/svg" xmlns:xlink="http://www.w3.org/1999/xlink">
    <!-- Generator: sketchtool 46.2 (44496) - http://www.bohemiancoding.com/sketch -->
    <title>3B6B6F5E-3F26-49E8-A227-A17A69665C2D</title>
    <desc>Created with sketchtool.</desc>
    <defs>
        <polygon id="path-1" points="0.06 30.963 0.06 0.455 31.509 0.455 31.509 30.963"></polygon>
        <polygon id="path-3" points="41.8 30.963 41.8 0.455 0.565 0.455 0.565 30.963"></polygon>
    </defs>
    <g id="Page-1" stroke="none" stroke-width="1" fill="none" fill-rule="evenodd">
        <g id="LOGOS" transform="translate(-107.000000, -315.000000)">
            <g id="TIA-Member-PC-Logo-2017" transform="translate(107.000000, 315.000000)">
                <path d="M34.009,16.89 C29.989,14.784 29.606,11.435 33.818,7.798 C38.029,4.161 47.408,2.343 53.342,2.821 C58.538,3.239 58.607,6.554 53.916,10.286 C51.154,12.485 44.632,14.21 42.24,14.593 L50.663,20.049 C54.396,19.57 60.375,17.98 63.583,15.071 C66.646,12.296 71.329,3.622 57.746,1.099 C46.929,-0.912 37.167,3.491 34.392,5.214 C29.664,8.147 25.395,14.114 32.861,18.612 L34.009,16.89" id="Fill-1" fill="#AC7E49"></path>
                <g id="Group-5" transform="translate(0.000000, 23.000000)">
                    <mask id="mask-2" fill="white">
                        <use xlink:href="#path-1"></use>
                    </mask>
                    <g id="Clip-4"></g>
                    <path d="M31.509,0.455 L30.89,6.748 C29.793,5.937 28.982,5.508 26.838,5.508 L21.546,5.508 L16.493,25.719 C15.778,28.627 15.874,29.771 16.16,30.963 L2.622,30.963 C3.48,29.771 4.147,28.627 4.862,25.719 L9.915,5.508 L4.624,5.508 C2.479,5.508 1.478,5.937 0,6.748 L2.526,0.455 L31.509,0.455" id="Fill-3" fill="#00264A" mask="url(#mask-2)"></path>
                </g>
                <path d="M27.313,53.963 C28.172,52.771 28.839,51.627 29.554,48.719 L34.56,28.699 C35.274,25.791 35.179,24.647 34.94,23.455 L48.479,23.455 C47.573,24.647 46.905,25.791 46.19,28.699 L41.186,48.719 C40.47,51.627 40.565,52.771 40.852,53.963 L27.313,53.963" id="Fill-6" fill="#00264A"></path>
                <g id="Group-10" transform="translate(41.000000, 23.000000)">
                    <mask id="mask-4" fill="white">
                        <use xlink:href="#path-3"></use>
                    </mask>
                    <g id="Clip-8"></g>
                    <path d="M13.055,22.765 L9.956,26.959 C9.527,27.531 9.241,28.15 9.051,28.77 C8.812,29.818 8.812,29.914 9.193,30.963 L0.565,30.963 C2.949,28.627 3.76,27.769 5.428,25.434 L22.351,2.171 L21.444,0.455 L35.221,0.455 L39.511,26.769 C39.797,28.342 40.369,29.818 41.132,30.963 L25.83,30.963 C26.688,29.818 26.831,29.629 26.974,28.961 C27.165,28.246 27.26,27.341 27.117,26.673 L26.45,22.765 L13.055,22.765 Z M25.687,17.711 L23.923,7.414 L16.678,17.711 L25.687,17.711 L25.687,17.711 Z" id="Fill-7" fill="#00264A" mask="url(#mask-4)"></path>
                    <path d="M65.823,25.91 C69.064,25.91 69.398,25.576 70.065,22.859 L74.309,5.937 C75.166,2.505 75.166,1.885 74.547,0.455 L81.888,0.455 C80.505,1.885 80.219,2.505 79.361,5.937 L75.452,21.524 C73.736,28.484 71.21,30.963 64.584,30.963 L49.14,30.963 C43.181,30.963 41.465,27.912 43.038,21.524 L46.994,5.699 C47.709,2.791 47.614,1.647 47.376,0.455 L60.913,0.455 C60.008,1.647 59.341,2.791 58.625,5.699 L54.287,23.05 C53.811,25.052 54.431,25.91 56.48,25.91 L65.823,25.91" id="Fill-9" fill="#AC7E49" mask="url(#mask-4)"></path>
                </g>
                <path d="M89.485,53.602 C90.422,51.939 91.287,48.661 92.163,45.146 L95.857,30.326 C96.733,26.811 97.112,24.531 97.158,23.201 L103.903,23.201 L109.243,50.182 L127.844,23.201 L134.446,23.201 C133.272,25.813 132.834,27.571 132.313,29.661 L127.53,48.852 C126.985,51.036 126.772,52.272 126.773,53.602 L121.073,53.602 C121.737,52.272 122.14,51.036 122.685,48.852 L128.25,26.526 L128.155,26.526 L109.436,53.602 L104.78,53.602 L99.37,26.526 L99.274,26.526 L93.615,49.231 C93.259,50.656 92.928,51.986 92.905,53.602 L89.485,53.602" id="Fill-11" fill="#AC7E49"></path>
                <path d="M89.485,53.602 C90.422,51.939 91.287,48.661 92.163,45.146 L95.857,30.326 C96.733,26.811 97.112,24.531 97.158,23.201 L103.903,23.201 L109.243,50.182 L127.844,23.201 L134.446,23.201 C133.272,25.813 132.834,27.571 132.313,29.661 L127.53,48.852 C126.985,51.036 126.772,52.272 126.773,53.602 L121.073,53.602 C121.737,52.272 122.14,51.036 122.685,48.852 L128.25,26.526 L128.155,26.526 L109.436,53.602 L104.78,53.602 L99.37,26.526 L99.274,26.526 L93.615,49.231 C93.259,50.656 92.928,51.986 92.905,53.602 L89.485,53.602 Z" id="Stroke-12" stroke="#AC7E49" stroke-width="0.5"></path>
                <path d="M162.804,23.201 L162.342,26.004 C161.523,25.861 160.003,25.671 156.488,25.671 L144.09,25.671 L141.225,37.167 L152.482,37.167 C155.998,37.167 157.612,36.977 158.788,36.834 L158.006,39.969 C156.902,39.826 155.382,39.637 151.867,39.637 L140.609,39.637 L137.744,51.132 L150.141,51.132 C153.656,51.132 155.271,50.941 156.162,50.799 L155.226,53.602 L131.855,53.602 C132.519,52.272 132.922,51.036 133.467,48.852 L138.677,27.951 C139.221,25.766 139.434,24.531 139.433,23.201 L162.804,23.201" id="Fill-13" fill="#AC7E49"></path>
                <path d="M162.804,23.201 L162.342,26.004 C161.523,25.861 160.003,25.671 156.488,25.671 L144.09,25.671 L141.225,37.167 L152.482,37.167 C155.998,37.167 157.612,36.977 158.788,36.834 L158.006,39.969 C156.902,39.826 155.382,39.637 151.867,39.637 L140.609,39.637 L137.744,51.132 L150.141,51.132 C153.656,51.132 155.271,50.941 156.162,50.799 L155.226,53.602 L131.855,53.602 C132.519,52.272 132.922,51.036 133.467,48.852 L138.677,27.951 C139.221,25.766 139.434,24.531 139.433,23.201 L162.804,23.201 Z" id="Stroke-14" stroke="#AC7E49" stroke-width="0.5"></path>
                <path d="M159.12,53.602 C160.057,51.939 160.921,48.661 161.798,45.146 L165.492,30.326 C166.368,26.811 166.747,24.531 166.793,23.201 L173.538,23.201 L178.878,50.182 L197.479,23.201 L204.081,23.201 C202.907,25.813 202.47,27.571 201.948,29.661 L197.165,48.852 C196.62,51.036 196.407,52.272 196.408,53.602 L190.708,53.602 C191.372,52.272 191.774,51.036 192.319,48.852 L197.885,26.526 L197.79,26.526 L179.07,53.602 L174.415,53.602 L169.004,26.526 L168.909,26.526 L163.25,49.231 C162.894,50.656 162.563,51.986 162.54,53.602 L159.12,53.602" id="Fill-15" fill="#AC7E49"></path>
                <path d="M159.12,53.602 C160.057,51.939 160.921,48.661 161.798,45.146 L165.492,30.326 C166.368,26.811 166.747,24.531 166.793,23.201 L173.538,23.201 L178.878,50.182 L197.479,23.201 L204.081,23.201 C202.907,25.813 202.47,27.571 201.948,29.661 L197.165,48.852 C196.62,51.036 196.407,52.272 196.408,53.602 L190.708,53.602 C191.372,52.272 191.774,51.036 192.319,48.852 L197.885,26.526 L197.79,26.526 L179.07,53.602 L174.415,53.602 L169.004,26.526 L168.909,26.526 L163.25,49.231 C162.894,50.656 162.563,51.986 162.54,53.602 L159.12,53.602 Z" id="Stroke-16" stroke="#AC7E49" stroke-width="0.5"></path>
                <path d="M210.978,36.691 L226.415,36.691 C228.077,36.691 228.576,36.216 229.073,34.221 L230.589,28.141 C231.086,26.146 230.824,25.671 229.162,25.671 L213.725,25.671 L210.978,36.691 Z M207.378,51.132 L222.815,51.132 C224.478,51.132 224.977,50.656 225.474,48.661 L227.297,41.347 C227.795,39.352 227.533,38.876 225.87,38.876 L210.433,38.876 L207.378,51.132 Z M208.311,27.951 C208.855,25.766 209.068,24.531 209.021,23.201 L229.968,23.201 C234.908,23.201 236.381,24.341 235.197,29.091 L233.966,34.031 C233.16,37.261 231.712,37.927 228.827,38.069 L228.803,38.164 C231.617,38.307 232.734,38.972 231.929,42.201 L230.556,47.712 C229.371,52.462 227.33,53.602 222.39,53.602 L201.442,53.602 C202.153,52.272 202.557,51.036 203.101,48.852 L208.311,27.951 L208.311,27.951 Z" id="Fill-17" fill="#AC7E49"></path>
                <path d="M210.978,36.691 L226.415,36.691 C228.077,36.691 228.576,36.216 229.073,34.221 L230.589,28.141 C231.086,26.146 230.824,25.671 229.162,25.671 L213.725,25.671 L210.978,36.691 Z M207.378,51.132 L222.815,51.132 C224.478,51.132 224.977,50.656 225.474,48.661 L227.297,41.347 C227.795,39.352 227.533,38.876 225.87,38.876 L210.433,38.876 L207.378,51.132 Z M208.311,27.951 C208.855,25.766 209.068,24.531 209.021,23.201 L229.968,23.201 C234.908,23.201 236.381,24.341 235.197,29.091 L233.966,34.031 C233.16,37.261 231.712,37.927 228.827,38.069 L228.803,38.164 C231.617,38.307 232.734,38.972 231.929,42.201 L230.556,47.712 C229.371,52.462 227.33,53.602 222.39,53.602 L201.442,53.602 C202.153,52.272 202.557,51.036 203.101,48.852 L208.311,27.951 Z" id="Stroke-18" stroke="#AC7E49" stroke-width="0.5"></path>
                <path d="M265.07,23.201 L264.609,26.004 C263.79,25.861 262.27,25.671 258.755,25.671 L246.357,25.671 L243.492,37.167 L254.749,37.167 C258.265,37.167 259.879,36.977 261.055,36.834 L260.273,39.969 C259.169,39.826 257.648,39.637 254.134,39.637 L242.876,39.637 L240.011,51.132 L252.408,51.132 C255.923,51.132 257.538,50.941 258.429,50.799 L257.492,53.602 L234.122,53.602 C234.786,52.272 235.189,51.036 235.733,48.852 L240.943,27.951 C241.488,25.766 241.701,24.531 241.7,23.201 L265.07,23.201" id="Fill-19" fill="#AC7E49"></path>
                <path d="M265.07,23.201 L264.609,26.004 C263.79,25.861 262.27,25.671 258.755,25.671 L246.357,25.671 L243.492,37.167 L254.749,37.167 C258.265,37.167 259.879,36.977 261.055,36.834 L260.273,39.969 C259.169,39.826 257.648,39.637 254.134,39.637 L242.876,39.637 L240.011,51.132 L252.408,51.132 C255.923,51.132 257.538,50.941 258.429,50.799 L257.492,53.602 L234.122,53.602 C234.786,52.272 235.189,51.036 235.733,48.852 L240.943,27.951 C241.488,25.766 241.701,24.531 241.7,23.201 L265.07,23.201 Z" id="Stroke-20" stroke="#AC7E49" stroke-width="0.5"></path>
                <g id="Group-24" transform="translate(261.000000, 23.000000)">
                    <path d="M9.827,14.261 L25.407,14.261 C27.07,14.261 27.568,13.786 28.065,11.792 L29.724,5.141 C30.221,3.146 29.959,2.671 28.297,2.671 L12.717,2.671 L9.827,14.261 Z M9.212,16.731 L6.938,25.852 C6.394,28.036 6.181,29.272 6.182,30.602 L0.481,30.602 C1.146,29.272 1.549,28.036 2.093,25.852 L7.303,4.951 C7.848,2.766 8.061,1.531 8.06,0.201 L29.103,0.201 C34.043,0.201 35.516,1.341 34.332,6.091 L33.136,10.889 C31.952,15.639 29.91,16.779 26.015,16.779 C26.921,21.529 28.089,27.704 29.505,30.602 L23.899,30.602 L20.896,16.731 L9.212,16.731 L9.212,16.731 Z" id="Fill-21" fill="#AC7E49"></path>
                    <path d="M9.827,14.261 L25.407,14.261 C27.07,14.261 27.568,13.786 28.065,11.792 L29.724,5.141 C30.221,3.146 29.959,2.671 28.297,2.671 L12.717,2.671 L9.827,14.261 Z M9.212,16.731 L6.938,25.852 C6.394,28.036 6.181,29.272 6.182,30.602 L0.481,30.602 C1.146,29.272 1.549,28.036 2.093,25.852 L7.303,4.951 C7.848,2.766 8.061,1.531 8.06,0.201 L29.103,0.201 C34.043,0.201 35.516,1.341 34.332,6.091 L33.136,10.889 C31.952,15.639 29.91,16.779 26.015,16.779 C26.921,21.529 28.089,27.704 29.505,30.602 L23.899,30.602 L20.896,16.731 L9.212,16.731 Z" id="Stroke-23" stroke="#AC7E49" stroke-width="0.5"></path>
                </g>
                <path d="M7.873,62.93 C7.873,62.575 7.811,62.284 7.686,62.055 C7.561,61.825 7.407,61.656 7.225,61.547 C7.042,61.438 6.851,61.368 6.65,61.34 C6.45,61.312 6.243,61.297 6.029,61.297 L5.154,61.297 L5.154,64.727 L6.076,64.727 C6.404,64.727 6.679,64.683 6.9,64.594 C7.122,64.505 7.303,64.382 7.443,64.223 C7.584,64.064 7.69,63.874 7.764,63.652 C7.836,63.431 7.873,63.19 7.873,62.93 Z M10.021,62.781 C10.021,63.349 9.933,63.852 9.756,64.289 C9.579,64.727 9.321,65.095 8.982,65.395 C8.644,65.694 8.229,65.922 7.736,66.078 C7.244,66.234 6.665,66.312 5.998,66.312 L5.154,66.312 L5.154,69.539 C5.154,69.591 5.137,69.638 5.104,69.68 C5.069,69.722 5.014,69.755 4.936,69.781 C4.857,69.808 4.753,69.828 4.623,69.844 C4.493,69.859 4.326,69.867 4.123,69.867 C3.925,69.867 3.76,69.859 3.627,69.844 C3.494,69.828 3.389,69.808 3.311,69.781 C3.232,69.755 3.178,69.722 3.146,69.68 C3.115,69.638 3.1,69.591 3.1,69.539 L3.1,60.445 C3.1,60.2 3.163,60.017 3.291,59.895 C3.418,59.772 3.586,59.711 3.795,59.711 L6.178,59.711 C6.417,59.711 6.645,59.72 6.861,59.738 C7.077,59.757 7.336,59.796 7.639,59.855 C7.94,59.915 8.247,60.026 8.557,60.187 C8.866,60.349 9.131,60.554 9.35,60.801 C9.568,61.048 9.735,61.337 9.85,61.668 C9.964,61.999 10.021,62.37 10.021,62.781 L10.021,62.781 Z" id="Fill-25" fill="#85323A"></path>
                <path d="M23.432,69.016 C23.432,69.167 23.425,69.293 23.412,69.395 C23.399,69.496 23.379,69.578 23.354,69.641 C23.327,69.703 23.295,69.749 23.256,69.777 C23.217,69.806 23.174,69.82 23.127,69.82 L18.049,69.82 C17.877,69.82 17.732,69.77 17.615,69.668 C17.498,69.566 17.439,69.401 17.439,69.172 L17.439,60.359 C17.439,60.13 17.498,59.965 17.615,59.863 C17.732,59.762 17.877,59.711 18.049,59.711 L23.096,59.711 C23.143,59.711 23.184,59.724 23.221,59.75 C23.257,59.776 23.288,59.821 23.314,59.887 C23.34,59.952 23.36,60.035 23.373,60.137 C23.386,60.238 23.393,60.367 23.393,60.523 C23.393,60.669 23.386,60.793 23.373,60.895 C23.36,60.996 23.34,61.078 23.314,61.141 C23.288,61.203 23.257,61.249 23.221,61.277 C23.184,61.306 23.143,61.32 23.096,61.32 L19.486,61.32 L19.486,63.789 L22.541,63.789 C22.588,63.789 22.631,63.804 22.67,63.832 C22.709,63.86 22.741,63.905 22.768,63.965 C22.793,64.024 22.813,64.105 22.826,64.207 C22.839,64.309 22.846,64.433 22.846,64.578 C22.846,64.729 22.839,64.855 22.826,64.953 C22.813,65.052 22.793,65.132 22.768,65.191 C22.741,65.251 22.709,65.294 22.67,65.32 C22.631,65.347 22.588,65.359 22.541,65.359 L19.486,65.359 L19.486,68.211 L23.127,68.211 C23.174,68.211 23.217,68.226 23.256,68.254 C23.295,68.282 23.327,68.328 23.354,68.391 C23.379,68.453 23.399,68.535 23.412,68.637 C23.425,68.738 23.432,68.864 23.432,69.016" id="Fill-26" fill="#85323A"></path>
                <path d="M35.919,62.695 C35.919,62.362 35.844,62.081 35.693,61.852 C35.542,61.622 35.294,61.461 34.951,61.367 C34.846,61.341 34.728,61.32 34.595,61.305 C34.462,61.289 34.279,61.281 34.044,61.281 L33.123,61.281 L33.123,64.148 L34.169,64.148 C34.461,64.148 34.716,64.113 34.935,64.043 C35.154,63.973 35.336,63.874 35.482,63.746 C35.627,63.618 35.737,63.466 35.81,63.289 C35.883,63.112 35.919,62.914 35.919,62.695 Z M38.568,69.555 C38.568,69.612 38.557,69.66 38.537,69.699 C38.516,69.738 38.466,69.771 38.388,69.797 C38.31,69.823 38.195,69.841 38.044,69.852 C37.893,69.862 37.687,69.867 37.427,69.867 C37.208,69.867 37.034,69.862 36.904,69.852 C36.773,69.841 36.67,69.821 36.595,69.793 C36.52,69.765 36.466,69.728 36.435,69.684 C36.404,69.64 36.377,69.586 36.357,69.523 L35.451,67.266 C35.341,67.011 35.234,66.784 35.13,66.586 C35.026,66.388 34.91,66.223 34.783,66.09 C34.655,65.957 34.508,65.856 34.341,65.789 C34.174,65.722 33.982,65.688 33.763,65.688 L33.123,65.688 L33.123,69.539 C33.123,69.591 33.105,69.638 33.072,69.68 C33.038,69.722 32.982,69.755 32.904,69.781 C32.826,69.808 32.721,69.828 32.591,69.844 C32.461,69.859 32.294,69.867 32.091,69.867 C31.893,69.867 31.728,69.859 31.595,69.844 C31.462,69.828 31.357,69.808 31.279,69.781 C31.201,69.755 31.146,69.722 31.115,69.68 C31.084,69.638 31.068,69.591 31.068,69.539 L31.068,60.359 C31.068,60.13 31.126,59.965 31.244,59.863 C31.361,59.762 31.505,59.711 31.677,59.711 L34.294,59.711 C34.56,59.711 34.779,59.716 34.951,59.727 C35.123,59.737 35.279,59.75 35.419,59.766 C35.826,59.823 36.191,59.922 36.517,60.062 C36.842,60.203 37.119,60.387 37.345,60.613 C37.572,60.84 37.745,61.108 37.865,61.418 C37.984,61.728 38.044,62.083 38.044,62.484 C38.044,62.823 38.001,63.132 37.916,63.41 C37.83,63.689 37.703,63.938 37.537,64.156 C37.37,64.375 37.164,64.565 36.919,64.727 C36.674,64.888 36.396,65.018 36.083,65.117 C36.234,65.19 36.376,65.278 36.509,65.383 C36.642,65.487 36.767,65.613 36.884,65.762 C37.001,65.91 37.112,66.079 37.216,66.27 C37.32,66.46 37.422,66.675 37.521,66.914 L38.373,68.906 C38.451,69.104 38.502,69.249 38.529,69.34 C38.555,69.431 38.568,69.503 38.568,69.555 L38.568,69.555 Z" id="Fill-27" fill="#85323A"></path>
                <path d="M51.572,60.555 C51.572,60.711 51.565,60.843 51.552,60.949 C51.539,61.056 51.518,61.141 51.49,61.203 C51.461,61.266 51.428,61.312 51.392,61.344 C51.355,61.375 51.314,61.391 51.267,61.391 L47.962,61.391 L47.962,64.109 L51.064,64.109 C51.111,64.109 51.152,64.122 51.189,64.148 C51.225,64.175 51.258,64.219 51.287,64.281 C51.315,64.344 51.336,64.427 51.349,64.531 C51.362,64.636 51.369,64.766 51.369,64.922 C51.369,65.078 51.362,65.208 51.349,65.313 C51.336,65.417 51.315,65.503 51.287,65.57 C51.258,65.638 51.225,65.687 51.189,65.715 C51.152,65.743 51.111,65.758 51.064,65.758 L47.962,65.758 L47.962,69.523 C47.962,69.581 47.947,69.63 47.916,69.672 C47.884,69.714 47.828,69.749 47.748,69.777 C47.666,69.806 47.561,69.828 47.431,69.844 C47.301,69.859 47.134,69.867 46.931,69.867 C46.733,69.867 46.568,69.859 46.435,69.844 C46.302,69.828 46.197,69.806 46.119,69.777 C46.041,69.749 45.984,69.714 45.951,69.672 C45.916,69.63 45.9,69.581 45.9,69.523 L45.9,60.359 C45.9,60.13 45.958,59.965 46.076,59.863 C46.193,59.762 46.337,59.711 46.509,59.711 L51.267,59.711 C51.314,59.711 51.355,59.726 51.392,59.754 C51.428,59.782 51.461,59.829 51.49,59.895 C51.518,59.96 51.539,60.047 51.552,60.156 C51.565,60.266 51.572,60.398 51.572,60.555" id="Fill-28" fill="#85323A"></path>
                <path d="M66.005,64.758 C66.005,64.227 65.963,63.743 65.88,63.309 C65.796,62.874 65.654,62.501 65.454,62.191 C65.253,61.882 64.986,61.642 64.653,61.473 C64.32,61.304 63.903,61.219 63.403,61.219 C62.898,61.219 62.476,61.313 62.138,61.504 C61.799,61.694 61.525,61.948 61.317,62.266 C61.109,62.583 60.962,62.954 60.876,63.379 C60.79,63.804 60.747,64.253 60.747,64.727 C60.747,65.278 60.789,65.774 60.872,66.215 C60.955,66.655 61.096,67.031 61.294,67.344 C61.492,67.656 61.757,67.895 62.091,68.059 C62.424,68.223 62.843,68.305 63.349,68.305 C63.854,68.305 64.275,68.211 64.614,68.023 C64.953,67.836 65.226,67.581 65.435,67.258 C65.643,66.934 65.79,66.559 65.876,66.129 C65.962,65.699 66.005,65.242 66.005,64.758 Z M68.161,64.648 C68.161,65.487 68.057,66.237 67.849,66.898 C67.64,67.56 67.33,68.121 66.919,68.582 C66.507,69.043 65.998,69.395 65.392,69.637 C64.785,69.879 64.083,70 63.286,70 C62.5,70 61.813,69.897 61.228,69.691 C60.642,69.485 60.153,69.172 59.763,68.75 C59.372,68.328 59.079,67.792 58.884,67.141 C58.688,66.489 58.591,65.719 58.591,64.828 C58.591,64.011 58.695,63.274 58.903,62.621 C59.111,61.968 59.421,61.411 59.833,60.953 C60.244,60.495 60.753,60.144 61.36,59.898 C61.967,59.653 62.671,59.531 63.474,59.531 C64.239,59.531 64.915,59.633 65.501,59.836 C66.087,60.039 66.576,60.352 66.97,60.773 C67.363,61.195 67.66,61.728 67.86,62.371 C68.061,63.015 68.161,63.773 68.161,64.648 L68.161,64.648 Z" id="Fill-29" fill="#85323A"></path>
                <path d="M80.563,62.695 C80.563,62.362 80.488,62.081 80.337,61.852 C80.186,61.622 79.938,61.461 79.595,61.367 C79.49,61.341 79.372,61.32 79.239,61.305 C79.106,61.289 78.923,61.281 78.688,61.281 L77.767,61.281 L77.767,64.148 L78.813,64.148 C79.105,64.148 79.36,64.113 79.579,64.043 C79.798,63.973 79.98,63.874 80.126,63.746 C80.271,63.618 80.381,63.466 80.454,63.289 C80.527,63.112 80.563,62.914 80.563,62.695 Z M83.212,69.555 C83.212,69.612 83.201,69.66 83.181,69.699 C83.16,69.738 83.11,69.771 83.032,69.797 C82.954,69.823 82.839,69.841 82.688,69.852 C82.537,69.862 82.332,69.867 82.071,69.867 C81.853,69.867 81.678,69.862 81.548,69.852 C81.418,69.841 81.314,69.821 81.239,69.793 C81.164,69.765 81.11,69.728 81.079,69.684 C81.048,69.64 81.021,69.586 81.001,69.523 L80.095,67.266 C79.985,67.011 79.878,66.784 79.774,66.586 C79.67,66.388 79.554,66.223 79.427,66.09 C79.299,65.957 79.152,65.856 78.985,65.789 C78.818,65.722 78.626,65.688 78.407,65.688 L77.767,65.688 L77.767,69.539 C77.767,69.591 77.749,69.638 77.716,69.68 C77.682,69.722 77.626,69.755 77.548,69.781 C77.47,69.808 77.365,69.828 77.235,69.844 C77.105,69.859 76.938,69.867 76.735,69.867 C76.537,69.867 76.372,69.859 76.239,69.844 C76.106,69.828 76.001,69.808 75.923,69.781 C75.845,69.755 75.79,69.722 75.759,69.68 C75.728,69.638 75.712,69.591 75.712,69.539 L75.712,60.359 C75.712,60.13 75.771,59.965 75.888,59.863 C76.005,59.762 76.149,59.711 76.321,59.711 L78.938,59.711 C79.204,59.711 79.423,59.716 79.595,59.727 C79.767,59.737 79.923,59.75 80.063,59.766 C80.47,59.823 80.836,59.922 81.161,60.062 C81.486,60.203 81.763,60.387 81.989,60.613 C82.216,60.84 82.389,61.108 82.509,61.418 C82.628,61.728 82.688,62.083 82.688,62.484 C82.688,62.823 82.646,63.132 82.56,63.41 C82.474,63.689 82.347,63.938 82.181,64.156 C82.014,64.375 81.808,64.565 81.563,64.727 C81.318,64.888 81.04,65.018 80.728,65.117 C80.878,65.19 81.021,65.278 81.153,65.383 C81.286,65.487 81.411,65.613 81.528,65.762 C81.646,65.91 81.756,66.079 81.86,66.27 C81.964,66.46 82.066,66.675 82.165,66.914 L83.017,68.906 C83.095,69.104 83.146,69.249 83.173,69.34 C83.199,69.431 83.212,69.503 83.212,69.555 L83.212,69.555 Z" id="Fill-30" fill="#85323A"></path>
                <path d="M102.325,69.539 C102.325,69.591 102.31,69.638 102.282,69.68 C102.253,69.722 102.201,69.755 102.126,69.781 C102.05,69.808 101.95,69.828 101.825,69.844 C101.7,69.859 101.541,69.867 101.348,69.867 C101.161,69.867 101.004,69.859 100.879,69.844 C100.754,69.828 100.655,69.808 100.583,69.781 C100.509,69.755 100.458,69.722 100.426,69.68 C100.395,69.638 100.379,69.591 100.379,69.539 L100.379,61.312 L100.364,61.312 L97.434,69.531 C97.413,69.599 97.379,69.655 97.332,69.699 C97.286,69.743 97.222,69.778 97.141,69.805 C97.06,69.831 96.957,69.848 96.832,69.855 C96.707,69.863 96.556,69.867 96.379,69.867 C96.202,69.867 96.051,69.86 95.926,69.848 C95.801,69.835 95.698,69.813 95.618,69.785 C95.537,69.757 95.473,69.722 95.426,69.68 C95.379,69.638 95.348,69.589 95.332,69.531 L92.504,61.312 L92.489,61.312 L92.489,69.539 C92.489,69.591 92.474,69.638 92.446,69.68 C92.417,69.722 92.364,69.755 92.286,69.781 C92.207,69.808 92.107,69.828 91.985,69.844 C91.862,69.859 91.705,69.867 91.512,69.867 C91.325,69.867 91.169,69.859 91.044,69.844 C90.919,69.828 90.818,69.808 90.743,69.781 C90.667,69.755 90.615,69.722 90.586,69.68 C90.558,69.638 90.544,69.591 90.544,69.539 L90.544,60.531 C90.544,60.266 90.614,60.062 90.754,59.922 C90.895,59.781 91.082,59.711 91.317,59.711 L92.661,59.711 C92.9,59.711 93.106,59.73 93.278,59.77 C93.45,59.809 93.598,59.874 93.723,59.965 C93.848,60.056 93.952,60.176 94.036,60.324 C94.119,60.473 94.192,60.656 94.254,60.875 L96.442,66.898 L96.473,66.898 L98.739,60.891 C98.806,60.672 98.88,60.487 98.961,60.336 C99.042,60.185 99.136,60.062 99.243,59.969 C99.349,59.875 99.476,59.809 99.622,59.77 C99.767,59.73 99.937,59.711 100.129,59.711 L101.512,59.711 C101.653,59.711 101.774,59.73 101.876,59.766 C101.977,59.802 102.06,59.855 102.126,59.926 C102.19,59.996 102.24,60.082 102.274,60.184 C102.308,60.285 102.325,60.401 102.325,60.531 L102.325,69.539" id="Fill-31" fill="#85323A"></path>
                <path d="M113.993,61.641 L113.985,61.641 L112.555,65.937 L115.422,65.937 L113.993,61.641 Z M118.633,69.055 C118.696,69.242 118.735,69.391 118.751,69.5 C118.766,69.609 118.745,69.691 118.688,69.746 C118.63,69.801 118.529,69.835 118.383,69.848 C118.237,69.86 118.037,69.867 117.782,69.867 C117.516,69.867 117.309,69.863 117.161,69.855 C117.012,69.848 116.899,69.832 116.821,69.809 C116.743,69.785 116.688,69.753 116.657,69.711 C116.626,69.669 116.599,69.614 116.579,69.547 L115.899,67.516 L112.102,67.516 L111.461,69.492 C111.44,69.565 111.413,69.626 111.379,69.676 C111.345,69.726 111.291,69.765 111.215,69.793 C111.14,69.821 111.033,69.841 110.895,69.852 C110.757,69.862 110.576,69.867 110.352,69.867 C110.112,69.867 109.925,69.859 109.79,69.844 C109.654,69.828 109.56,69.79 109.508,69.73 C109.456,69.671 109.438,69.586 109.454,69.477 C109.469,69.367 109.508,69.222 109.571,69.039 L112.688,60.07 C112.719,59.981 112.755,59.91 112.797,59.855 C112.839,59.801 112.905,59.759 112.997,59.73 C113.087,59.702 113.214,59.684 113.376,59.676 C113.537,59.668 113.751,59.664 114.016,59.664 C114.323,59.664 114.568,59.668 114.751,59.676 C114.933,59.684 115.075,59.702 115.176,59.73 C115.278,59.759 115.351,59.802 115.395,59.859 C115.439,59.917 115.477,59.995 115.508,60.094 L118.633,69.055 L118.633,69.055 Z" id="Fill-32" fill="#85323A"></path>
                <path d="M134.207,69.102 C134.207,69.222 134.186,69.328 134.145,69.422 C134.103,69.516 134.047,69.594 133.977,69.656 C133.906,69.719 133.823,69.765 133.727,69.793 C133.63,69.821 133.532,69.836 133.434,69.836 L132.559,69.836 C132.376,69.836 132.219,69.817 132.086,69.781 C131.953,69.745 131.831,69.679 131.719,69.582 C131.606,69.485 131.499,69.355 131.395,69.191 C131.29,69.027 131.173,68.815 131.043,68.555 L128.527,63.828 C128.381,63.547 128.233,63.243 128.082,62.918 C127.931,62.593 127.795,62.276 127.676,61.969 L127.66,61.969 C127.681,62.344 127.696,62.718 127.707,63.09 C127.717,63.462 127.723,63.847 127.723,64.242 L127.723,69.531 C127.723,69.583 127.708,69.63 127.68,69.672 C127.651,69.714 127.602,69.749 127.531,69.777 C127.461,69.806 127.366,69.828 127.246,69.844 C127.126,69.859 126.973,69.867 126.785,69.867 C126.603,69.867 126.452,69.859 126.332,69.844 C126.212,69.828 126.118,69.806 126.051,69.777 C125.983,69.749 125.936,69.714 125.91,69.672 C125.884,69.63 125.871,69.583 125.871,69.531 L125.871,60.445 C125.871,60.2 125.942,60.017 126.086,59.895 C126.229,59.772 126.405,59.711 126.613,59.711 L127.715,59.711 C127.913,59.711 128.079,59.728 128.215,59.762 C128.35,59.796 128.471,59.851 128.578,59.93 C128.685,60.008 128.785,60.116 128.879,60.254 C128.973,60.392 129.069,60.562 129.168,60.766 L131.137,64.461 C131.251,64.684 131.364,64.905 131.477,65.121 C131.588,65.337 131.696,65.554 131.801,65.77 C131.905,65.985 132.006,66.198 132.105,66.406 C132.204,66.614 132.301,66.823 132.395,67.031 L132.402,67.031 C132.387,66.667 132.375,66.286 132.367,65.891 C132.359,65.495 132.355,65.117 132.355,64.758 L132.355,60.016 C132.355,59.964 132.371,59.917 132.402,59.875 C132.434,59.833 132.485,59.797 132.559,59.766 C132.631,59.734 132.728,59.712 132.848,59.699 C132.967,59.687 133.121,59.68 133.309,59.68 C133.485,59.68 133.634,59.687 133.754,59.699 C133.874,59.712 133.966,59.734 134.031,59.766 C134.096,59.797 134.142,59.833 134.168,59.875 C134.194,59.917 134.207,59.964 134.207,60.016 L134.207,69.102" id="Fill-33" fill="#85323A"></path>
                <path d="M149.227,68.289 C149.227,68.419 149.223,68.53 149.215,68.621 C149.207,68.712 149.195,68.79 149.18,68.855 C149.164,68.921 149.143,68.976 149.117,69.023 C149.091,69.07 149.049,69.124 148.992,69.184 C148.935,69.243 148.824,69.32 148.66,69.414 C148.496,69.508 148.295,69.598 148.059,69.684 C147.821,69.77 147.551,69.841 147.246,69.898 C146.941,69.956 146.612,69.984 146.258,69.984 C145.565,69.984 144.94,69.878 144.383,69.664 C143.825,69.45 143.352,69.132 142.961,68.707 C142.57,68.282 142.271,67.753 142.063,67.117 C141.854,66.481 141.75,65.742 141.75,64.898 C141.75,64.039 141.864,63.276 142.094,62.609 C142.323,61.942 142.643,61.383 143.055,60.93 C143.466,60.477 143.959,60.133 144.535,59.898 C145.11,59.664 145.745,59.547 146.438,59.547 C146.719,59.547 146.989,59.57 147.25,59.617 C147.51,59.664 147.751,59.726 147.973,59.801 C148.194,59.876 148.393,59.964 148.57,60.062 C148.747,60.161 148.871,60.246 148.941,60.316 C149.012,60.387 149.06,60.445 149.086,60.492 C149.112,60.539 149.133,60.599 149.148,60.672 C149.164,60.745 149.176,60.831 149.184,60.93 C149.191,61.028 149.195,61.151 149.195,61.297 C149.195,61.453 149.19,61.586 149.18,61.695 C149.169,61.805 149.151,61.894 149.125,61.961 C149.099,62.028 149.067,62.078 149.031,62.109 C148.995,62.141 148.953,62.156 148.906,62.156 C148.828,62.156 148.729,62.11 148.609,62.02 C148.489,61.929 148.334,61.827 148.145,61.715 C147.954,61.603 147.728,61.501 147.465,61.41 C147.202,61.319 146.888,61.273 146.523,61.273 C146.122,61.273 145.764,61.355 145.449,61.519 C145.134,61.684 144.866,61.918 144.645,62.223 C144.423,62.527 144.255,62.896 144.141,63.328 C144.026,63.761 143.969,64.247 143.969,64.789 C143.969,65.383 144.03,65.897 144.152,66.332 C144.274,66.767 144.449,67.125 144.676,67.406 C144.902,67.688 145.176,67.897 145.496,68.035 C145.816,68.173 146.177,68.242 146.578,68.242 C146.942,68.242 147.258,68.199 147.523,68.113 C147.789,68.027 148.017,67.933 148.207,67.828 C148.397,67.724 148.553,67.63 148.676,67.547 C148.798,67.464 148.893,67.422 148.961,67.422 C149.013,67.422 149.055,67.433 149.086,67.453 C149.117,67.474 149.143,67.516 149.164,67.578 C149.185,67.641 149.2,67.728 149.211,67.84 C149.221,67.952 149.227,68.102 149.227,68.289" id="Fill-34" fill="#85323A"></path>
                <path d="M162.52,69.016 C162.52,69.167 162.513,69.293 162.5,69.395 C162.487,69.496 162.467,69.578 162.441,69.641 C162.415,69.703 162.383,69.749 162.344,69.777 C162.305,69.806 162.262,69.82 162.215,69.82 L157.137,69.82 C156.965,69.82 156.82,69.77 156.703,69.668 C156.586,69.566 156.527,69.401 156.527,69.172 L156.527,60.359 C156.527,60.13 156.586,59.965 156.703,59.863 C156.82,59.762 156.965,59.711 157.137,59.711 L162.184,59.711 C162.23,59.711 162.272,59.724 162.309,59.75 C162.345,59.776 162.376,59.821 162.402,59.887 C162.428,59.952 162.448,60.035 162.461,60.137 C162.474,60.238 162.48,60.367 162.48,60.523 C162.48,60.669 162.474,60.793 162.461,60.895 C162.448,60.996 162.428,61.078 162.402,61.141 C162.376,61.203 162.345,61.249 162.309,61.277 C162.272,61.306 162.23,61.32 162.184,61.32 L158.574,61.32 L158.574,63.789 L161.629,63.789 C161.676,63.789 161.719,63.804 161.758,63.832 C161.797,63.86 161.829,63.905 161.855,63.965 C161.881,64.024 161.901,64.105 161.914,64.207 C161.927,64.309 161.934,64.433 161.934,64.578 C161.934,64.729 161.927,64.855 161.914,64.953 C161.901,65.052 161.881,65.132 161.855,65.191 C161.829,65.251 161.797,65.294 161.758,65.32 C161.719,65.347 161.676,65.359 161.629,65.359 L158.574,65.359 L158.574,68.211 L162.215,68.211 C162.262,68.211 162.305,68.226 162.344,68.254 C162.383,68.282 162.415,68.328 162.441,68.391 C162.467,68.453 162.487,68.535 162.5,68.637 C162.513,68.738 162.52,68.864 162.52,69.016" id="Fill-35" fill="#85323A"></path>
                <path d="M186.589,68.289 C186.589,68.419 186.585,68.53 186.577,68.621 C186.569,68.712 186.558,68.79 186.542,68.855 C186.526,68.921 186.506,68.976 186.48,69.023 C186.453,69.07 186.412,69.124 186.355,69.184 C186.297,69.243 186.187,69.32 186.022,69.414 C185.858,69.508 185.658,69.598 185.421,69.684 C185.184,69.77 184.913,69.841 184.608,69.898 C184.304,69.956 183.975,69.984 183.62,69.984 C182.928,69.984 182.303,69.878 181.745,69.664 C181.188,69.45 180.714,69.132 180.323,68.707 C179.933,68.282 179.633,67.753 179.425,67.117 C179.217,66.481 179.112,65.742 179.112,64.898 C179.112,64.039 179.227,63.276 179.456,62.609 C179.686,61.942 180.006,61.383 180.417,60.93 C180.828,60.477 181.322,60.133 181.897,59.898 C182.473,59.664 183.107,59.547 183.8,59.547 C184.081,59.547 184.352,59.57 184.612,59.617 C184.873,59.664 185.113,59.726 185.335,59.801 C185.557,59.876 185.756,59.964 185.933,60.062 C186.109,60.161 186.233,60.246 186.304,60.316 C186.374,60.387 186.422,60.445 186.448,60.492 C186.475,60.539 186.495,60.599 186.511,60.672 C186.526,60.745 186.538,60.831 186.546,60.93 C186.554,61.028 186.558,61.151 186.558,61.297 C186.558,61.453 186.553,61.586 186.542,61.695 C186.531,61.805 186.514,61.894 186.487,61.961 C186.461,62.028 186.43,62.078 186.394,62.109 C186.357,62.141 186.315,62.156 186.269,62.156 C186.19,62.156 186.092,62.11 185.972,62.02 C185.852,61.929 185.697,61.827 185.507,61.715 C185.316,61.603 185.09,61.501 184.827,61.41 C184.564,61.319 184.25,61.273 183.886,61.273 C183.484,61.273 183.127,61.355 182.812,61.519 C182.496,61.684 182.229,61.918 182.007,62.223 C181.785,62.527 181.617,62.896 181.503,63.328 C181.389,63.761 181.331,64.247 181.331,64.789 C181.331,65.383 181.393,65.897 181.515,66.332 C181.637,66.767 181.812,67.125 182.038,67.406 C182.265,67.688 182.538,67.897 182.858,68.035 C183.179,68.173 183.539,68.242 183.94,68.242 C184.305,68.242 184.62,68.199 184.886,68.113 C185.151,68.027 185.379,67.933 185.569,67.828 C185.76,67.724 185.916,67.63 186.038,67.547 C186.16,67.464 186.256,67.422 186.323,67.422 C186.375,67.422 186.417,67.433 186.448,67.453 C186.48,67.474 186.506,67.516 186.526,67.578 C186.547,67.641 186.563,67.728 186.573,67.84 C186.584,67.952 186.589,68.102 186.589,68.289" id="Fill-36" fill="#85323A"></path>
                <path d="M199.882,69.016 C199.882,69.167 199.875,69.293 199.862,69.395 C199.85,69.496 199.83,69.578 199.804,69.641 C199.777,69.703 199.745,69.749 199.706,69.777 C199.667,69.806 199.624,69.82 199.577,69.82 L194.499,69.82 C194.327,69.82 194.183,69.77 194.065,69.668 C193.948,69.566 193.89,69.401 193.89,69.172 L193.89,60.359 C193.89,60.13 193.948,59.965 194.065,59.863 C194.183,59.762 194.327,59.711 194.499,59.711 L199.546,59.711 C199.593,59.711 199.635,59.724 199.671,59.75 C199.707,59.776 199.738,59.821 199.765,59.887 C199.791,59.952 199.811,60.035 199.823,60.137 C199.836,60.238 199.843,60.367 199.843,60.523 C199.843,60.669 199.836,60.793 199.823,60.895 C199.811,60.996 199.791,61.078 199.765,61.141 C199.738,61.203 199.707,61.249 199.671,61.277 C199.635,61.306 199.593,61.32 199.546,61.32 L195.937,61.32 L195.937,63.789 L198.991,63.789 C199.038,63.789 199.081,63.804 199.12,63.832 C199.159,63.86 199.191,63.905 199.218,63.965 C199.244,64.024 199.264,64.105 199.276,64.207 C199.289,64.309 199.296,64.433 199.296,64.578 C199.296,64.729 199.289,64.855 199.276,64.953 C199.264,65.052 199.244,65.132 199.218,65.191 C199.191,65.251 199.159,65.294 199.12,65.32 C199.081,65.347 199.038,65.359 198.991,65.359 L195.937,65.359 L195.937,68.211 L199.577,68.211 C199.624,68.211 199.667,68.226 199.706,68.254 C199.745,68.282 199.777,68.328 199.804,68.391 C199.83,68.453 199.85,68.535 199.862,68.637 C199.875,68.738 199.882,68.864 199.882,69.016" id="Fill-37" fill="#85323A"></path>
                <path d="M212.37,62.695 C212.37,62.362 212.295,62.081 212.144,61.852 C211.992,61.622 211.745,61.461 211.401,61.367 C211.297,61.341 211.179,61.32 211.046,61.305 C210.913,61.289 210.73,61.281 210.495,61.281 L209.573,61.281 L209.573,64.148 L210.62,64.148 C210.912,64.148 211.167,64.113 211.386,64.043 C211.605,63.973 211.787,63.874 211.933,63.746 C212.078,63.618 212.188,63.466 212.261,63.289 C212.334,63.112 212.37,62.914 212.37,62.695 Z M215.019,69.555 C215.019,69.612 215.008,69.66 214.987,69.699 C214.967,69.738 214.917,69.771 214.839,69.797 C214.761,69.823 214.646,69.841 214.495,69.852 C214.344,69.862 214.139,69.867 213.878,69.867 C213.659,69.867 213.484,69.862 213.355,69.852 C213.225,69.841 213.121,69.821 213.046,69.793 C212.971,69.765 212.917,69.728 212.886,69.684 C212.855,69.64 212.828,69.586 212.808,69.523 L211.901,67.266 C211.792,67.011 211.686,66.784 211.581,66.586 C211.477,66.388 211.361,66.223 211.233,66.09 C211.105,65.957 210.959,65.856 210.792,65.789 C210.625,65.722 210.433,65.688 210.214,65.688 L209.573,65.688 L209.573,69.539 C209.573,69.591 209.557,69.638 209.522,69.68 C209.488,69.722 209.433,69.755 209.355,69.781 C209.276,69.808 209.172,69.828 209.042,69.844 C208.912,69.859 208.745,69.867 208.542,69.867 C208.344,69.867 208.179,69.859 208.046,69.844 C207.913,69.828 207.808,69.808 207.73,69.781 C207.651,69.755 207.597,69.722 207.565,69.68 C207.534,69.638 207.519,69.591 207.519,69.539 L207.519,60.359 C207.519,60.13 207.577,59.965 207.694,59.863 C207.812,59.762 207.956,59.711 208.128,59.711 L210.745,59.711 C211.011,59.711 211.23,59.716 211.401,59.727 C211.573,59.737 211.73,59.75 211.87,59.766 C212.276,59.823 212.643,59.922 212.968,60.062 C213.293,60.203 213.569,60.387 213.796,60.613 C214.022,60.84 214.195,61.108 214.315,61.418 C214.436,61.728 214.495,62.083 214.495,62.484 C214.495,62.823 214.452,63.132 214.366,63.41 C214.28,63.689 214.154,63.938 213.987,64.156 C213.82,64.375 213.615,64.565 213.37,64.727 C213.125,64.888 212.847,65.018 212.534,65.117 C212.686,65.19 212.827,65.278 212.96,65.383 C213.093,65.487 213.218,65.613 213.335,65.762 C213.452,65.91 213.563,66.079 213.667,66.27 C213.771,66.46 213.873,66.675 213.972,66.914 L214.823,68.906 C214.901,69.104 214.953,69.249 214.98,69.34 C215.006,69.431 215.019,69.503 215.019,69.555 L215.019,69.555 Z" id="Fill-38" fill="#85323A"></path>
                <path d="M229.077,60.555 C229.077,60.706 229.07,60.835 229.058,60.941 C229.045,61.048 229.025,61.134 228.999,61.199 C228.973,61.265 228.94,61.312 228.901,61.344 C228.862,61.375 228.819,61.391 228.772,61.391 L226.241,61.391 L226.241,69.539 C226.241,69.591 226.225,69.638 226.19,69.68 C226.156,69.722 226.101,69.755 226.022,69.781 C225.944,69.808 225.839,69.828 225.706,69.844 C225.573,69.859 225.408,69.867 225.21,69.867 C225.012,69.867 224.847,69.859 224.714,69.844 C224.581,69.828 224.476,69.808 224.397,69.781 C224.319,69.755 224.264,69.722 224.23,69.68 C224.195,69.638 224.179,69.591 224.179,69.539 L224.179,61.391 L221.647,61.391 C221.596,61.391 221.551,61.375 221.515,61.344 C221.479,61.312 221.447,61.265 221.421,61.199 C221.395,61.134 221.375,61.048 221.362,60.941 C221.35,60.835 221.343,60.706 221.343,60.555 C221.343,60.398 221.35,60.266 221.362,60.156 C221.375,60.047 221.395,59.96 221.421,59.895 C221.447,59.829 221.479,59.782 221.515,59.754 C221.551,59.726 221.596,59.711 221.647,59.711 L228.772,59.711 C228.819,59.711 228.862,59.726 228.901,59.754 C228.94,59.782 228.973,59.829 228.999,59.895 C229.025,59.96 229.045,60.047 229.058,60.156 C229.07,60.266 229.077,60.398 229.077,60.555" id="Fill-39" fill="#85323A"></path>
                <path d="M238.158,69.539 C238.158,69.591 238.142,69.638 238.107,69.68 C238.073,69.722 238.018,69.755 237.939,69.781 C237.861,69.808 237.757,69.828 237.627,69.844 C237.497,69.859 237.33,69.867 237.127,69.867 C236.929,69.867 236.764,69.859 236.631,69.844 C236.498,69.828 236.393,69.808 236.314,69.781 C236.236,69.755 236.181,69.722 236.146,69.68 C236.112,69.638 236.096,69.591 236.096,69.539 L236.096,59.992 C236.096,59.94 236.112,59.894 236.146,59.851 C236.181,59.81 236.237,59.776 236.318,59.75 C236.399,59.724 236.505,59.703 236.635,59.687 C236.765,59.672 236.929,59.664 237.127,59.664 C237.33,59.664 237.497,59.672 237.627,59.687 C237.757,59.703 237.861,59.724 237.939,59.75 C238.018,59.776 238.073,59.81 238.107,59.851 C238.142,59.894 238.158,59.94 238.158,59.992 L238.158,69.539" id="Fill-40" fill="#85323A"></path>
                <path d="M251.857,60.555 C251.857,60.711 251.851,60.843 251.838,60.949 C251.825,61.056 251.804,61.141 251.775,61.203 C251.747,61.266 251.714,61.312 251.678,61.344 C251.642,61.375 251.6,61.391 251.553,61.391 L248.248,61.391 L248.248,64.109 L251.35,64.109 C251.396,64.109 251.438,64.122 251.475,64.148 C251.511,64.175 251.544,64.219 251.572,64.281 C251.601,64.344 251.622,64.427 251.635,64.531 C251.647,64.636 251.654,64.766 251.654,64.922 C251.654,65.078 251.647,65.208 251.635,65.313 C251.622,65.417 251.601,65.503 251.572,65.57 C251.544,65.638 251.511,65.687 251.475,65.715 C251.438,65.743 251.396,65.758 251.35,65.758 L248.248,65.758 L248.248,69.523 C248.248,69.581 248.232,69.63 248.201,69.672 C248.17,69.714 248.114,69.749 248.033,69.777 C247.952,69.806 247.847,69.828 247.717,69.844 C247.587,69.859 247.42,69.867 247.217,69.867 C247.019,69.867 246.854,69.859 246.721,69.844 C246.588,69.828 246.482,69.806 246.404,69.777 C246.326,69.749 246.271,69.714 246.236,69.672 C246.202,69.63 246.186,69.581 246.186,69.523 L246.186,60.359 C246.186,60.13 246.244,59.965 246.361,59.863 C246.479,59.762 246.623,59.711 246.795,59.711 L251.553,59.711 C251.6,59.711 251.642,59.726 251.678,59.754 C251.714,59.782 251.747,59.829 251.775,59.895 C251.804,59.96 251.825,60.047 251.838,60.156 C251.851,60.266 251.857,60.398 251.857,60.555" id="Fill-41" fill="#85323A"></path>
                <path d="M261.416,69.539 C261.416,69.591 261.399,69.638 261.365,69.68 C261.331,69.722 261.275,69.755 261.197,69.781 C261.119,69.808 261.015,69.828 260.885,69.844 C260.755,69.859 260.588,69.867 260.385,69.867 C260.187,69.867 260.021,69.859 259.889,69.844 C259.756,69.828 259.65,69.808 259.572,69.781 C259.494,69.755 259.438,69.722 259.404,69.68 C259.37,69.638 259.354,69.591 259.354,69.539 L259.354,59.992 C259.354,59.94 259.37,59.894 259.404,59.851 C259.438,59.81 259.495,59.776 259.576,59.75 C259.657,59.724 259.763,59.703 259.893,59.687 C260.022,59.672 260.187,59.664 260.385,59.664 C260.588,59.664 260.755,59.672 260.885,59.687 C261.015,59.703 261.119,59.724 261.197,59.75 C261.275,59.776 261.331,59.81 261.365,59.851 C261.399,59.894 261.416,59.94 261.416,59.992 L261.416,69.539" id="Fill-42" fill="#85323A"></path>
                <path d="M275.436,69.016 C275.436,69.167 275.429,69.293 275.416,69.395 C275.403,69.496 275.384,69.578 275.357,69.641 C275.331,69.703 275.299,69.749 275.26,69.777 C275.221,69.806 275.178,69.82 275.131,69.82 L270.053,69.82 C269.881,69.82 269.736,69.77 269.619,69.668 C269.502,69.566 269.443,69.401 269.443,69.172 L269.443,60.359 C269.443,60.13 269.502,59.965 269.619,59.863 C269.736,59.762 269.881,59.711 270.053,59.711 L275.1,59.711 C275.146,59.711 275.188,59.724 275.225,59.75 C275.261,59.776 275.292,59.821 275.318,59.887 C275.345,59.952 275.364,60.035 275.377,60.137 C275.39,60.238 275.396,60.367 275.396,60.523 C275.396,60.669 275.39,60.793 275.377,60.895 C275.364,60.996 275.345,61.078 275.318,61.141 C275.292,61.203 275.261,61.249 275.225,61.277 C275.188,61.306 275.146,61.32 275.1,61.32 L271.49,61.32 L271.49,63.789 L274.545,63.789 C274.592,63.789 274.635,63.804 274.674,63.832 C274.713,63.86 274.745,63.905 274.771,63.965 C274.798,64.024 274.817,64.105 274.83,64.207 C274.843,64.309 274.85,64.433 274.85,64.578 C274.85,64.729 274.843,64.855 274.83,64.953 C274.817,65.052 274.798,65.132 274.771,65.191 C274.745,65.251 274.713,65.294 274.674,65.32 C274.635,65.347 274.592,65.359 274.545,65.359 L271.49,65.359 L271.49,68.211 L275.131,68.211 C275.178,68.211 275.221,68.226 275.26,68.254 C275.299,68.282 275.331,68.328 275.357,68.391 C275.384,68.453 275.403,68.535 275.416,68.637 C275.429,68.738 275.436,68.864 275.436,69.016" id="Fill-43" fill="#85323A"></path>
                <path d="M289.396,64.688 C289.396,64.208 289.341,63.763 289.229,63.351 C289.116,62.94 288.937,62.583 288.689,62.281 C288.442,61.98 288.124,61.743 287.736,61.574 C287.349,61.405 286.839,61.32 286.209,61.32 L285.17,61.32 L285.17,68.195 L286.24,68.195 C286.803,68.195 287.276,68.122 287.662,67.977 C288.048,67.831 288.369,67.61 288.627,67.316 C288.885,67.022 289.077,66.656 289.205,66.219 C289.333,65.781 289.396,65.271 289.396,64.688 Z M291.521,64.617 C291.521,65.544 291.4,66.337 291.158,66.996 C290.916,67.655 290.568,68.192 290.115,68.609 C289.662,69.026 289.111,69.332 288.463,69.527 C287.814,69.723 287.042,69.82 286.146,69.82 L283.732,69.82 C283.561,69.82 283.416,69.77 283.299,69.668 C283.182,69.566 283.123,69.401 283.123,69.172 L283.123,60.359 C283.123,60.13 283.182,59.965 283.299,59.863 C283.416,59.762 283.561,59.711 283.732,59.711 L286.326,59.711 C287.228,59.711 287.991,59.816 288.619,60.027 C289.247,60.238 289.775,60.551 290.205,60.965 C290.635,61.379 290.962,61.891 291.186,62.5 C291.409,63.109 291.521,63.815 291.521,64.617 L291.521,64.617 Z" id="Fill-44" fill="#85323A"></path>
                <polyline id="Fill-45" fill="#617293" points="75.102 11.825 75.102 11.105 80.241 11.105 80.241 11.825 78.099 11.825 78.099 17.531 77.244 17.531 77.244 11.825 75.102 11.825"></polyline>
                <path d="M84.246,14.021 C84.426,13.991 84.583,13.933 84.718,13.846 C84.854,13.759 84.961,13.642 85.043,13.495 C85.124,13.348 85.164,13.157 85.164,12.923 C85.164,12.599 85.074,12.335 84.894,12.131 C84.714,11.927 84.423,11.825 84.021,11.825 L81.897,11.825 L81.897,14.066 L83.679,14.066 C83.877,14.066 84.066,14.051 84.246,14.021 Z M84.066,11.105 C84.678,11.105 85.156,11.255 85.502,11.555 C85.846,11.855 86.019,12.266 86.019,12.788 C86.019,13.178 85.93,13.521 85.753,13.814 C85.576,14.108 85.293,14.309 84.903,14.418 L84.903,14.435 C85.089,14.471 85.24,14.531 85.357,14.615 C85.474,14.699 85.567,14.8 85.636,14.917 C85.705,15.034 85.756,15.164 85.79,15.308 C85.822,15.452 85.848,15.603 85.866,15.758 C85.878,15.914 85.887,16.073 85.893,16.235 C85.899,16.397 85.914,16.556 85.938,16.712 C85.962,16.868 85.997,17.017 86.041,17.158 C86.086,17.299 86.154,17.423 86.244,17.531 L85.29,17.531 C85.23,17.465 85.189,17.375 85.169,17.261 C85.147,17.147 85.134,17.02 85.128,16.879 C85.122,16.738 85.116,16.586 85.11,16.424 C85.104,16.262 85.086,16.104 85.056,15.947 C85.032,15.792 85.002,15.643 84.966,15.502 C84.93,15.361 84.873,15.238 84.795,15.133 C84.717,15.028 84.615,14.944 84.489,14.881 C84.363,14.818 84.195,14.786 83.985,14.786 L81.897,14.786 L81.897,17.531 L81.042,17.531 L81.042,11.105 L84.066,11.105 L84.066,11.105 Z" id="Fill-46" fill="#617293"></path>
                <path d="M90.582,14.876 L89.511,11.879 L89.493,11.879 L88.404,14.876 L90.582,14.876 Z M89.988,11.105 L92.499,17.531 L91.554,17.531 L90.852,15.596 L88.134,15.596 L87.414,17.531 L86.54,17.531 L89.043,11.105 L89.988,11.105 L89.988,11.105 Z" id="Fill-47" fill="#617293"></path>
                <polyline id="Fill-48" fill="#617293" points="94.119 11.105 97.503 16.316 97.52 16.316 97.52 11.105 98.331 11.105 98.331 17.531 97.395 17.531 94.038 12.374 94.02 12.374 94.02 17.531 93.21 17.531 93.21 11.105 94.119 11.105"></polyline>
                <path d="M103.024,11.983 C102.739,11.776 102.375,11.672 101.931,11.672 C101.751,11.672 101.573,11.69 101.399,11.726 C101.226,11.762 101.071,11.822 100.936,11.906 C100.801,11.99 100.693,12.103 100.612,12.244 C100.531,12.385 100.491,12.56 100.491,12.77 C100.491,12.968 100.549,13.129 100.666,13.252 C100.783,13.375 100.939,13.476 101.134,13.553 C101.329,13.631 101.549,13.696 101.795,13.747 C102.042,13.798 102.292,13.854 102.547,13.913 C102.802,13.973 103.052,14.044 103.298,14.125 C103.544,14.206 103.765,14.315 103.96,14.453 C104.155,14.591 104.311,14.765 104.428,14.975 C104.545,15.186 104.604,15.449 104.604,15.767 C104.604,16.109 104.527,16.402 104.374,16.645 C104.221,16.888 104.024,17.086 103.785,17.239 C103.544,17.392 103.276,17.503 102.979,17.572 C102.682,17.641 102.386,17.675 102.092,17.675 C101.732,17.675 101.392,17.63 101.071,17.54 C100.75,17.45 100.468,17.314 100.225,17.131 C99.982,16.948 99.79,16.714 99.649,16.429 C99.508,16.144 99.437,15.806 99.437,15.416 L100.248,15.416 C100.248,15.686 100.3,15.919 100.405,16.114 C100.51,16.309 100.648,16.469 100.819,16.595 C100.99,16.721 101.189,16.814 101.417,16.874 C101.646,16.934 101.879,16.964 102.12,16.964 C102.312,16.964 102.505,16.946 102.7,16.91 C102.895,16.874 103.07,16.813 103.227,16.726 C103.382,16.639 103.508,16.521 103.605,16.37 C103.7,16.22 103.749,16.028 103.749,15.794 C103.749,15.572 103.69,15.393 103.573,15.254 C103.456,15.116 103.3,15.004 103.105,14.917 C102.91,14.83 102.689,14.759 102.443,14.705 C102.197,14.651 101.947,14.596 101.692,14.539 C101.437,14.482 101.187,14.416 100.94,14.341 C100.694,14.266 100.474,14.167 100.279,14.044 C100.084,13.921 99.928,13.762 99.811,13.567 C99.694,13.372 99.635,13.127 99.635,12.833 C99.635,12.509 99.702,12.229 99.834,11.992 C99.965,11.755 100.141,11.56 100.36,11.407 C100.579,11.254 100.828,11.14 101.107,11.065 C101.386,10.99 101.672,10.952 101.966,10.952 C102.296,10.952 102.603,10.991 102.884,11.069 C103.167,11.147 103.414,11.271 103.627,11.438 C103.84,11.606 104.008,11.818 104.131,12.073 C104.254,12.328 104.321,12.632 104.334,12.986 L103.523,12.986 C103.476,12.524 103.309,12.19 103.024,11.983" id="Fill-49" fill="#617293"></path>
                <path d="M108.258,14.183 C108.744,14.189 109.099,14.09 109.324,13.886 C109.549,13.682 109.662,13.388 109.662,13.004 C109.662,12.62 109.549,12.328 109.324,12.127 C109.099,11.926 108.744,11.825 108.258,11.825 L106.584,11.825 L106.584,14.183 L108.258,14.183 Z M108.546,11.105 C109.194,11.105 109.685,11.272 110.018,11.605 C110.351,11.938 110.517,12.404 110.517,13.004 C110.517,13.604 110.351,14.072 110.018,14.408 C109.685,14.744 109.194,14.909 108.546,14.903 L106.584,14.903 L106.584,17.531 L105.729,17.531 L105.729,11.105 L108.546,11.105 L108.546,11.105 Z" id="Fill-50" fill="#617293"></path>
                <path d="M112.272,15.277 C112.355,15.592 112.488,15.876 112.668,16.127 C112.848,16.379 113.079,16.582 113.361,16.735 C113.643,16.888 113.979,16.964 114.369,16.964 C114.759,16.964 115.095,16.888 115.377,16.735 C115.659,16.582 115.89,16.379 116.07,16.127 C116.25,15.876 116.382,15.592 116.466,15.277 C116.55,14.962 116.592,14.642 116.592,14.318 C116.592,13.994 116.55,13.675 116.466,13.36 C116.382,13.045 116.25,12.761 116.07,12.509 C115.89,12.257 115.659,12.055 115.377,11.902 C115.095,11.749 114.759,11.672 114.369,11.672 C113.979,11.672 113.643,11.749 113.361,11.902 C113.079,12.055 112.848,12.257 112.668,12.509 C112.488,12.761 112.355,13.045 112.272,13.36 C112.188,13.675 112.146,13.994 112.146,14.318 C112.146,14.642 112.188,14.962 112.272,15.277 Z M111.484,13.054 C111.613,12.649 111.807,12.291 112.065,11.978 C112.323,11.667 112.644,11.418 113.028,11.231 C113.412,11.045 113.859,10.952 114.369,10.952 C114.878,10.952 115.326,11.045 115.71,11.231 C116.094,11.418 116.415,11.667 116.673,11.978 C116.931,12.291 117.124,12.649 117.253,13.054 C117.382,13.459 117.447,13.88 117.447,14.318 C117.447,14.756 117.382,15.178 117.253,15.583 C117.124,15.988 116.931,16.346 116.673,16.658 C116.415,16.97 116.094,17.218 115.71,17.401 C115.326,17.583 114.878,17.675 114.369,17.675 C113.859,17.675 113.412,17.583 113.028,17.401 C112.644,17.218 112.323,16.97 112.065,16.658 C111.807,16.346 111.613,15.988 111.484,15.583 C111.355,15.178 111.291,14.756 111.291,14.318 C111.291,13.88 111.355,13.459 111.484,13.054 L111.484,13.054 Z" id="Fill-51" fill="#617293"></path>
                <path d="M121.784,14.021 C121.964,13.991 122.122,13.933 122.257,13.846 C122.392,13.759 122.5,13.642 122.581,13.495 C122.662,13.348 122.703,13.157 122.703,12.923 C122.703,12.599 122.612,12.335 122.433,12.131 C122.252,11.927 121.961,11.825 121.56,11.825 L119.436,11.825 L119.436,14.066 L121.217,14.066 C121.416,14.066 121.605,14.051 121.784,14.021 Z M121.605,11.105 C122.216,11.105 122.695,11.255 123.04,11.555 C123.385,11.855 123.558,12.266 123.558,12.788 C123.558,13.178 123.469,13.521 123.292,13.814 C123.115,14.108 122.832,14.309 122.441,14.418 L122.441,14.435 C122.627,14.471 122.779,14.531 122.896,14.615 C123.013,14.699 123.106,14.8 123.175,14.917 C123.244,15.034 123.295,15.164 123.328,15.308 C123.361,15.452 123.386,15.603 123.404,15.758 C123.417,15.914 123.425,16.073 123.432,16.235 C123.438,16.397 123.452,16.556 123.477,16.712 C123.501,16.868 123.535,17.017 123.58,17.158 C123.625,17.299 123.692,17.423 123.782,17.531 L122.829,17.531 C122.769,17.465 122.728,17.375 122.707,17.261 C122.686,17.147 122.672,17.02 122.667,16.879 C122.66,16.738 122.654,16.586 122.648,16.424 C122.643,16.262 122.625,16.104 122.594,15.947 C122.57,15.792 122.541,15.643 122.504,15.502 C122.468,15.361 122.411,15.238 122.334,15.133 C122.255,15.028 122.153,14.944 122.027,14.881 C121.901,14.818 121.733,14.786 121.523,14.786 L119.436,14.786 L119.436,17.531 L118.581,17.531 L118.581,11.105 L121.605,11.105 L121.605,11.105 Z" id="Fill-52" fill="#617293"></path>
                <polyline id="Fill-53" fill="#617293" points="123.993 11.825 123.993 11.105 129.132 11.105 129.132 11.825 126.99 11.825 126.99 17.531 126.135 17.531 126.135 11.825 123.993 11.825"></polyline>
                <path d="M132.389,14.876 L131.318,11.879 L131.3,11.879 L130.211,14.876 L132.389,14.876 Z M131.795,11.105 L134.306,17.531 L133.361,17.531 L132.659,15.596 L129.941,15.596 L129.221,17.531 L128.348,17.531 L130.851,11.105 L131.795,11.105 L131.795,11.105 Z" id="Fill-54" fill="#617293"></path>
                <polyline id="Fill-55" fill="#617293" points="133.508 11.825 133.508 11.105 138.647 11.105 138.647 11.825 136.505 11.825 136.505 17.531 135.65 17.531 135.65 11.825 133.508 11.825"></polyline>
                <polygon id="Fill-56" fill="#617293" points="139.484 17.531 140.339 17.531 140.339 11.105 139.484 11.105"></polygon>
                <path d="M142.49,15.277 C142.574,15.592 142.706,15.876 142.886,16.127 C143.066,16.379 143.297,16.582 143.579,16.735 C143.861,16.888 144.197,16.964 144.587,16.964 C144.977,16.964 145.313,16.888 145.595,16.735 C145.877,16.582 146.108,16.379 146.288,16.127 C146.468,15.876 146.6,15.592 146.684,15.277 C146.768,14.962 146.81,14.642 146.81,14.318 C146.81,13.994 146.768,13.675 146.684,13.36 C146.6,13.045 146.468,12.761 146.288,12.509 C146.108,12.257 145.877,12.055 145.595,11.902 C145.313,11.749 144.977,11.672 144.587,11.672 C144.197,11.672 143.861,11.749 143.579,11.902 C143.297,12.055 143.066,12.257 142.886,12.509 C142.706,12.761 142.574,13.045 142.49,13.36 C142.406,13.675 142.364,13.994 142.364,14.318 C142.364,14.642 142.406,14.962 142.49,15.277 Z M141.703,13.054 C141.832,12.649 142.025,12.291 142.283,11.978 C142.541,11.667 142.862,11.418 143.246,11.231 C143.63,11.045 144.077,10.952 144.587,10.952 C145.097,10.952 145.544,11.045 145.928,11.231 C146.312,11.418 146.633,11.667 146.891,11.978 C147.149,12.291 147.342,12.649 147.472,13.054 C147.601,13.459 147.665,13.88 147.665,14.318 C147.665,14.756 147.601,15.178 147.472,15.583 C147.342,15.988 147.149,16.346 146.891,16.658 C146.633,16.97 146.312,17.218 145.928,17.401 C145.544,17.583 145.097,17.675 144.587,17.675 C144.077,17.675 143.63,17.583 143.246,17.401 C142.862,17.218 142.541,16.97 142.283,16.658 C142.025,16.346 141.832,15.988 141.703,15.583 C141.573,15.178 141.509,14.756 141.509,14.318 C141.509,13.88 141.573,13.459 141.703,13.054 L141.703,13.054 Z" id="Fill-57" fill="#617293"></path>
                <polyline id="Fill-58" fill="#617293" points="149.699 11.105 153.083 16.316 153.101 16.316 153.101 11.105 153.911 11.105 153.911 17.531 152.975 17.531 149.618 12.374 149.6 12.374 149.6 17.531 148.79 17.531 148.79 11.105 149.699 11.105"></polyline>
                <polygon id="Fill-59" fill="#617293" points="158.015 17.531 158.87 17.531 158.87 11.105 158.015 11.105"></polygon>
                <polyline id="Fill-60" fill="#617293" points="161.3 11.105 164.684 16.316 164.702 16.316 164.702 11.105 165.512 11.105 165.512 17.531 164.576 17.531 161.219 12.374 161.201 12.374 161.201 17.531 160.391 17.531 160.391 11.105 161.3 11.105"></polyline>
                <polyline id="Fill-61" fill="#617293" points="166.304 11.825 166.304 11.105 171.443 11.105 171.443 11.825 169.301 11.825 169.301 17.531 168.446 17.531 168.446 11.825 166.304 11.825"></polyline>
                <polyline id="Fill-62" fill="#617293" points="176.68 11.105 176.68 11.825 173.098 11.825 173.098 13.868 176.438 13.868 176.438 14.588 173.098 14.588 173.098 16.811 176.707 16.811 176.707 17.531 172.243 17.531 172.243 11.105 176.68 11.105"></polyline>
                <path d="M181.037,14.021 C181.217,13.991 181.374,13.933 181.51,13.846 C181.645,13.759 181.752,13.642 181.833,13.495 C181.914,13.348 181.955,13.157 181.955,12.923 C181.955,12.599 181.865,12.335 181.685,12.131 C181.505,11.927 181.214,11.825 180.812,11.825 L178.688,11.825 L178.688,14.066 L180.47,14.066 C180.668,14.066 180.856,14.051 181.037,14.021 Z M180.856,11.105 C181.469,11.105 181.947,11.255 182.292,11.555 C182.638,11.855 182.81,12.266 182.81,12.788 C182.81,13.178 182.722,13.521 182.544,13.814 C182.367,14.108 182.084,14.309 181.694,14.418 L181.694,14.435 C181.88,14.471 182.031,14.531 182.148,14.615 C182.266,14.699 182.358,14.8 182.428,14.917 C182.496,15.034 182.547,15.164 182.58,15.308 C182.613,15.452 182.639,15.603 182.657,15.758 C182.669,15.914 182.678,16.073 182.684,16.235 C182.689,16.397 182.705,16.556 182.729,16.712 C182.753,16.868 182.787,17.017 182.832,17.158 C182.877,17.299 182.945,17.423 183.035,17.531 L182.081,17.531 C182.021,17.465 181.98,17.375 181.959,17.261 C181.938,17.147 181.925,17.02 181.919,16.879 C181.913,16.738 181.907,16.586 181.9,16.424 C181.895,16.262 181.877,16.104 181.847,15.947 C181.823,15.792 181.793,15.643 181.757,15.502 C181.721,15.361 181.664,15.238 181.586,15.133 C181.508,15.028 181.406,14.944 181.28,14.881 C181.154,14.818 180.985,14.786 180.775,14.786 L178.688,14.786 L178.688,17.531 L177.833,17.531 L177.833,11.105 L180.856,11.105 L180.856,11.105 Z" id="Fill-63" fill="#617293"></path>
                <polyline id="Fill-64" fill="#617293" points="185.275 11.105 187.301 16.505 189.335 11.105 190.505 11.105 190.505 17.531 189.694 17.531 189.694 12.185 189.677 12.185 187.67 17.531 186.94 17.531 184.934 12.185 184.916 12.185 184.916 17.531 184.105 17.531 184.105 11.105 185.275 11.105"></polyline>
                <polyline id="Fill-65" fill="#617293" points="196.453 11.105 196.453 11.825 192.871 11.825 192.871 13.868 196.211 13.868 196.211 14.588 192.871 14.588 192.871 16.811 196.48 16.811 196.48 17.531 192.017 17.531 192.017 11.105 196.453 11.105"></polyline>
                <path d="M199.882,16.811 C199.979,16.811 200.099,16.804 200.242,16.789 C200.387,16.774 200.539,16.738 200.701,16.681 C200.863,16.624 201.023,16.541 201.183,16.433 C201.342,16.325 201.484,16.178 201.61,15.992 C201.736,15.806 201.84,15.574 201.921,15.295 C202.002,15.016 202.042,14.678 202.042,14.282 C202.042,13.898 202.005,13.555 201.93,13.252 C201.855,12.949 201.731,12.691 201.561,12.478 C201.39,12.265 201.169,12.103 200.899,11.992 C200.629,11.881 200.296,11.825 199.9,11.825 L198.46,11.825 L198.46,16.811 L199.882,16.811 Z M199.811,11.105 C200.801,11.105 201.563,11.357 202.097,11.861 C202.63,12.365 202.897,13.133 202.897,14.165 C202.897,14.705 202.837,15.184 202.718,15.601 C202.598,16.018 202.411,16.369 202.159,16.654 C201.907,16.939 201.586,17.156 201.196,17.306 C200.807,17.456 200.345,17.531 199.811,17.531 L197.605,17.531 L197.605,11.105 L199.811,11.105 L199.811,11.105 Z" id="Fill-66" fill="#617293"></path>
                <polygon id="Fill-67" fill="#617293" points="204.067 17.531 204.922 17.531 204.922 11.105 204.067 11.105"></polygon>
                <path d="M209.737,14.876 L208.666,11.879 L208.648,11.879 L207.559,14.876 L209.737,14.876 Z M209.143,11.105 L211.654,17.531 L210.709,17.531 L210.007,15.596 L207.289,15.596 L206.569,17.531 L205.696,17.531 L208.198,11.105 L209.143,11.105 L209.143,11.105 Z" id="Fill-68" fill="#617293"></path>
                <path d="M215.578,14.021 C215.758,13.991 215.915,13.933 216.051,13.846 C216.186,13.759 216.293,13.642 216.374,13.495 C216.455,13.348 216.496,13.157 216.496,12.923 C216.496,12.599 216.406,12.335 216.226,12.131 C216.046,11.927 215.755,11.825 215.353,11.825 L213.229,11.825 L213.229,14.066 L215.011,14.066 C215.209,14.066 215.397,14.051 215.578,14.021 Z M215.397,11.105 C216.01,11.105 216.488,11.255 216.833,11.555 C217.179,11.855 217.351,12.266 217.351,12.788 C217.351,13.178 217.263,13.521 217.085,13.814 C216.908,14.108 216.625,14.309 216.235,14.418 L216.235,14.435 C216.421,14.471 216.572,14.531 216.689,14.615 C216.807,14.699 216.899,14.8 216.969,14.917 C217.037,15.034 217.088,15.164 217.121,15.308 C217.154,15.452 217.18,15.603 217.198,15.758 C217.21,15.914 217.219,16.073 217.225,16.235 C217.23,16.397 217.246,16.556 217.27,16.712 C217.294,16.868 217.328,17.017 217.373,17.158 C217.418,17.299 217.486,17.423 217.576,17.531 L216.622,17.531 C216.562,17.465 216.521,17.375 216.5,17.261 C216.48,17.147 216.466,17.02 216.46,16.879 C216.454,16.738 216.448,16.586 216.441,16.424 C216.436,16.262 216.418,16.104 216.388,15.947 C216.364,15.792 216.334,15.643 216.298,15.502 C216.262,15.361 216.205,15.238 216.127,15.133 C216.049,15.028 215.947,14.944 215.821,14.881 C215.695,14.818 215.526,14.786 215.316,14.786 L213.229,14.786 L213.229,17.531 L212.374,17.531 L212.374,11.105 L215.397,11.105 L215.397,11.105 Z" id="Fill-69" fill="#617293"></path>
                <polygon id="Fill-70" fill="#617293" points="218.665 17.531 219.52 17.531 219.52 11.105 218.665 11.105"></polygon>
                <polyline id="Fill-71" fill="#617293" points="225.486 11.105 225.486 11.825 221.904 11.825 221.904 13.868 225.244 13.868 225.244 14.588 221.904 14.588 221.904 16.811 225.514 16.811 225.514 17.531 221.05 17.531 221.05 11.105 225.486 11.105"></polyline>
                <path d="M229.856,11.983 C229.571,11.776 229.206,11.672 228.763,11.672 C228.583,11.672 228.405,11.69 228.231,11.726 C228.058,11.762 227.903,11.822 227.768,11.906 C227.633,11.99 227.525,12.103 227.444,12.244 C227.363,12.385 227.322,12.56 227.322,12.77 C227.322,12.968 227.381,13.129 227.498,13.252 C227.615,13.375 227.771,13.476 227.966,13.553 C228.161,13.631 228.382,13.696 228.628,13.747 C228.873,13.798 229.124,13.854 229.379,13.913 C229.634,13.973 229.885,14.044 230.131,14.125 C230.377,14.206 230.597,14.315 230.792,14.453 C230.987,14.591 231.143,14.765 231.26,14.975 C231.377,15.186 231.436,15.449 231.436,15.767 C231.436,16.109 231.359,16.402 231.206,16.645 C231.053,16.888 230.856,17.086 230.616,17.239 C230.377,17.392 230.108,17.503 229.811,17.572 C229.514,17.641 229.219,17.675 228.925,17.675 C228.564,17.675 228.224,17.63 227.903,17.54 C227.582,17.45 227.3,17.314 227.057,17.131 C226.814,16.948 226.622,16.714 226.481,16.429 C226.34,16.144 226.27,15.806 226.27,15.416 L227.079,15.416 C227.079,15.686 227.132,15.919 227.237,16.114 C227.342,16.309 227.48,16.469 227.651,16.595 C227.822,16.721 228.021,16.814 228.25,16.874 C228.478,16.934 228.712,16.964 228.951,16.964 C229.144,16.964 229.337,16.946 229.532,16.91 C229.727,16.874 229.902,16.813 230.059,16.726 C230.215,16.639 230.341,16.521 230.437,16.37 C230.532,16.22 230.58,16.028 230.58,15.794 C230.58,15.572 230.522,15.393 230.405,15.254 C230.288,15.116 230.132,15.004 229.938,14.917 C229.742,14.83 229.521,14.759 229.275,14.705 C229.029,14.651 228.779,14.596 228.524,14.539 C228.269,14.482 228.019,14.416 227.772,14.341 C227.526,14.266 227.306,14.167 227.111,14.044 C226.916,13.921 226.76,13.762 226.643,13.567 C226.526,13.372 226.468,13.127 226.468,12.833 C226.468,12.509 226.533,12.229 226.665,11.992 C226.798,11.755 226.973,11.56 227.192,11.407 C227.411,11.254 227.66,11.14 227.939,11.065 C228.218,10.99 228.505,10.952 228.799,10.952 C229.129,10.952 229.435,10.991 229.717,11.069 C229.998,11.147 230.246,11.271 230.459,11.438 C230.672,11.606 230.84,11.818 230.963,12.073 C231.086,12.328 231.153,12.632 231.165,12.986 L230.355,12.986 C230.308,12.524 230.141,12.19 229.856,11.983" id="Fill-72" fill="#617293"></path>
                <path d="M238.438,14.876 L237.367,11.879 L237.35,11.879 L236.26,14.876 L238.438,14.876 Z M237.844,11.105 L240.355,17.531 L239.41,17.531 L238.708,15.596 L235.99,15.596 L235.271,17.531 L234.397,17.531 L236.899,11.105 L237.844,11.105 L237.844,11.105 Z" id="Fill-73" fill="#617293"></path>
                <path d="M244.293,11.983 C244.008,11.776 243.643,11.672 243.199,11.672 C243.02,11.672 242.842,11.69 242.668,11.726 C242.494,11.762 242.34,11.822 242.204,11.906 C242.069,11.99 241.962,12.103 241.881,12.244 C241.8,12.385 241.759,12.56 241.759,12.77 C241.759,12.968 241.817,13.129 241.935,13.252 C242.052,13.375 242.207,13.476 242.402,13.553 C242.598,13.631 242.818,13.696 243.064,13.747 C243.31,13.798 243.561,13.854 243.815,13.913 C244.07,13.973 244.321,14.044 244.567,14.125 C244.813,14.206 245.033,14.315 245.229,14.453 C245.424,14.591 245.579,14.765 245.696,14.975 C245.813,15.186 245.872,15.449 245.872,15.767 C245.872,16.109 245.796,16.402 245.643,16.645 C245.489,16.888 245.293,17.086 245.053,17.239 C244.813,17.392 244.545,17.503 244.247,17.572 C243.95,17.641 243.655,17.675 243.361,17.675 C243.001,17.675 242.66,17.63 242.34,17.54 C242.019,17.45 241.736,17.314 241.493,17.131 C241.251,16.948 241.059,16.714 240.918,16.429 C240.776,16.144 240.706,15.806 240.706,15.416 L241.516,15.416 C241.516,15.686 241.568,15.919 241.674,16.114 C241.778,16.309 241.917,16.469 242.088,16.595 C242.259,16.721 242.458,16.814 242.687,16.874 C242.914,16.934 243.148,16.964 243.388,16.964 C243.58,16.964 243.773,16.946 243.969,16.91 C244.163,16.874 244.339,16.813 244.495,16.726 C244.651,16.639 244.777,16.521 244.873,16.37 C244.969,16.22 245.017,16.028 245.017,15.794 C245.017,15.572 244.959,15.393 244.842,15.254 C244.725,15.116 244.568,15.004 244.374,14.917 C244.179,14.83 243.958,14.759 243.712,14.705 C243.466,14.651 243.216,14.596 242.961,14.539 C242.705,14.482 242.455,14.416 242.209,14.341 C241.963,14.266 241.742,14.167 241.548,14.044 C241.353,13.921 241.196,13.762 241.079,13.567 C240.963,13.372 240.904,13.127 240.904,12.833 C240.904,12.509 240.97,12.229 241.102,11.992 C241.234,11.755 241.409,11.56 241.629,11.407 C241.848,11.254 242.097,11.14 242.376,11.065 C242.654,10.99 242.941,10.952 243.235,10.952 C243.565,10.952 243.871,10.991 244.153,11.069 C244.435,11.147 244.683,11.271 244.896,11.438 C245.108,11.606 245.276,11.818 245.399,12.073 C245.522,12.328 245.59,12.632 245.602,12.986 L244.792,12.986 C244.744,12.524 244.577,12.19 244.293,11.983" id="Fill-74" fill="#617293"></path>
                <path d="M250.215,11.983 C249.93,11.776 249.564,11.672 249.121,11.672 C248.941,11.672 248.764,11.69 248.59,11.726 C248.416,11.762 248.262,11.822 248.126,11.906 C247.991,11.99 247.884,12.103 247.803,12.244 C247.722,12.385 247.681,12.56 247.681,12.77 C247.681,12.968 247.739,13.129 247.856,13.252 C247.974,13.375 248.129,13.476 248.324,13.553 C248.52,13.631 248.74,13.696 248.986,13.747 C249.231,13.798 249.482,13.854 249.737,13.913 C249.992,13.973 250.243,14.044 250.489,14.125 C250.735,14.206 250.955,14.315 251.15,14.453 C251.346,14.591 251.501,14.765 251.618,14.975 C251.735,15.186 251.794,15.449 251.794,15.767 C251.794,16.109 251.718,16.402 251.564,16.645 C251.411,16.888 251.215,17.086 250.975,17.239 C250.735,17.392 250.467,17.503 250.169,17.572 C249.872,17.641 249.577,17.675 249.283,17.675 C248.923,17.675 248.582,17.63 248.262,17.54 C247.94,17.45 247.658,17.314 247.415,17.131 C247.173,16.948 246.98,16.714 246.84,16.429 C246.698,16.144 246.628,15.806 246.628,15.416 L247.438,15.416 C247.438,15.686 247.49,15.919 247.596,16.114 C247.7,16.309 247.839,16.469 248.01,16.595 C248.181,16.721 248.38,16.814 248.608,16.874 C248.836,16.934 249.07,16.964 249.31,16.964 C249.502,16.964 249.695,16.946 249.891,16.91 C250.085,16.874 250.261,16.813 250.417,16.726 C250.573,16.639 250.699,16.521 250.795,16.37 C250.891,16.22 250.938,16.028 250.938,15.794 C250.938,15.572 250.881,15.393 250.764,15.254 C250.646,15.116 250.49,15.004 250.296,14.917 C250.101,14.83 249.88,14.759 249.634,14.705 C249.388,14.651 249.138,14.596 248.883,14.539 C248.627,14.482 248.377,14.416 248.131,14.341 C247.885,14.266 247.664,14.167 247.47,14.044 C247.274,13.921 247.118,13.762 247.001,13.567 C246.885,13.372 246.826,13.127 246.826,12.833 C246.826,12.509 246.892,12.229 247.023,11.992 C247.156,11.755 247.331,11.56 247.551,11.407 C247.77,11.254 248.019,11.14 248.298,11.065 C248.576,10.99 248.863,10.952 249.157,10.952 C249.487,10.952 249.793,10.991 250.075,11.069 C250.356,11.147 250.605,11.271 250.817,11.438 C251.03,11.606 251.198,11.818 251.321,12.073 C251.444,12.328 251.512,12.632 251.523,12.986 L250.714,12.986 C250.666,12.524 250.499,12.19 250.215,11.983" id="Fill-75" fill="#617293"></path>
                <path d="M253.54,15.277 C253.624,15.592 253.756,15.876 253.936,16.127 C254.116,16.379 254.347,16.582 254.629,16.735 C254.911,16.888 255.247,16.964 255.637,16.964 C256.026,16.964 256.362,16.888 256.645,16.735 C256.927,16.582 257.158,16.379 257.338,16.127 C257.518,15.876 257.649,15.592 257.733,15.277 C257.817,14.962 257.859,14.642 257.859,14.318 C257.859,13.994 257.817,13.675 257.733,13.36 C257.649,13.045 257.518,12.761 257.338,12.509 C257.158,12.257 256.927,12.055 256.645,11.902 C256.362,11.749 256.026,11.672 255.637,11.672 C255.247,11.672 254.911,11.749 254.629,11.902 C254.347,12.055 254.116,12.257 253.936,12.509 C253.756,12.761 253.624,13.045 253.54,13.36 C253.456,13.675 253.414,13.994 253.414,14.318 C253.414,14.642 253.456,14.962 253.54,15.277 Z M252.752,13.054 C252.881,12.649 253.075,12.291 253.333,11.978 C253.591,11.667 253.912,11.418 254.296,11.231 C254.68,11.045 255.127,10.952 255.637,10.952 C256.146,10.952 256.594,11.045 256.978,11.231 C257.361,11.418 257.683,11.667 257.94,11.978 C258.198,12.291 258.393,12.649 258.521,13.054 C258.65,13.459 258.715,13.88 258.715,14.318 C258.715,14.756 258.65,15.178 258.521,15.583 C258.393,15.988 258.198,16.346 257.94,16.658 C257.683,16.97 257.361,17.218 256.978,17.401 C256.594,17.583 256.146,17.675 255.637,17.675 C255.127,17.675 254.68,17.583 254.296,17.401 C253.912,17.218 253.591,16.97 253.333,16.658 C253.075,16.346 252.881,15.988 252.752,15.583 C252.623,15.178 252.559,14.756 252.559,14.318 C252.559,13.88 252.623,13.459 252.752,13.054 L252.752,13.054 Z" id="Fill-76" fill="#617293"></path>
                <path d="M263.732,12.014 C263.405,11.786 263.017,11.672 262.566,11.672 C262.183,11.672 261.854,11.744 261.581,11.888 C261.308,12.032 261.083,12.226 260.906,12.469 C260.729,12.712 260.599,12.989 260.515,13.301 C260.431,13.613 260.389,13.937 260.389,14.273 C260.389,14.639 260.431,14.986 260.515,15.313 C260.599,15.64 260.729,15.925 260.906,16.168 C261.083,16.411 261.31,16.604 261.586,16.748 C261.861,16.892 262.191,16.964 262.575,16.964 C262.857,16.964 263.107,16.918 263.327,16.825 C263.546,16.732 263.735,16.603 263.894,16.438 C264.053,16.273 264.178,16.076 264.268,15.848 C264.357,15.62 264.411,15.374 264.43,15.11 L265.284,15.11 C265.2,15.92 264.922,16.55 264.447,17 C263.974,17.45 263.325,17.675 262.504,17.675 C262.006,17.675 261.57,17.59 261.198,17.419 C260.826,17.247 260.518,17.012 260.271,16.712 C260.025,16.412 259.841,16.058 259.718,15.65 C259.595,15.242 259.533,14.804 259.533,14.336 C259.533,13.868 259.6,13.429 259.731,13.018 C259.863,12.607 260.057,12.248 260.312,11.942 C260.567,11.636 260.885,11.395 261.266,11.218 C261.646,11.041 262.083,10.952 262.575,10.952 C262.911,10.952 263.229,10.997 263.529,11.087 C263.829,11.177 264.097,11.309 264.33,11.483 C264.564,11.657 264.76,11.875 264.915,12.136 C265.071,12.397 265.174,12.698 265.222,13.04 L264.366,13.04 C264.271,12.584 264.059,12.242 263.732,12.014" id="Fill-77" fill="#617293"></path>
                <polygon id="Fill-78" fill="#617293" points="266.473 17.531 267.327 17.531 267.327 11.105 266.473 11.105"></polygon>
                <path d="M272.143,14.876 L271.071,11.879 L271.054,11.879 L269.964,14.876 L272.143,14.876 Z M271.548,11.105 L274.06,17.531 L273.114,17.531 L272.412,15.596 L269.694,15.596 L268.975,17.531 L268.102,17.531 L270.604,11.105 L271.548,11.105 L271.548,11.105 Z" id="Fill-79" fill="#617293"></path>
                <polyline id="Fill-80" fill="#617293" points="273.273 11.825 273.273 11.105 278.413 11.105 278.413 11.825 276.271 11.825 276.271 17.531 275.416 17.531 275.416 11.825 273.273 11.825"></polyline>
                <polygon id="Fill-81" fill="#617293" points="279.25 17.531 280.104 17.531 280.104 11.105 279.25 11.105"></polygon>
                <path d="M282.256,15.277 C282.34,15.592 282.472,15.876 282.651,16.127 C282.832,16.379 283.063,16.582 283.345,16.735 C283.627,16.888 283.963,16.964 284.353,16.964 C284.742,16.964 285.078,16.888 285.36,16.735 C285.643,16.582 285.874,16.379 286.054,16.127 C286.233,15.876 286.365,15.592 286.449,15.277 C286.533,14.962 286.575,14.642 286.575,14.318 C286.575,13.994 286.533,13.675 286.449,13.36 C286.365,13.045 286.233,12.761 286.054,12.509 C285.874,12.257 285.643,12.055 285.36,11.902 C285.078,11.749 284.742,11.672 284.353,11.672 C283.963,11.672 283.627,11.749 283.345,11.902 C283.063,12.055 282.832,12.257 282.651,12.509 C282.472,12.761 282.34,13.045 282.256,13.36 C282.172,13.675 282.13,13.994 282.13,14.318 C282.13,14.642 282.172,14.962 282.256,15.277 Z M281.468,13.054 C281.597,12.649 281.791,12.291 282.049,11.978 C282.307,11.667 282.628,11.418 283.012,11.231 C283.396,11.045 283.843,10.952 284.353,10.952 C284.862,10.952 285.31,11.045 285.693,11.231 C286.077,11.418 286.398,11.667 286.656,11.978 C286.914,12.291 287.108,12.649 287.237,13.054 C287.366,13.459 287.431,13.88 287.431,14.318 C287.431,14.756 287.366,15.178 287.237,15.583 C287.108,15.988 286.914,16.346 286.656,16.658 C286.398,16.97 286.077,17.218 285.693,17.401 C285.31,17.583 284.862,17.675 284.353,17.675 C283.843,17.675 283.396,17.583 283.012,17.401 C282.628,17.218 282.307,16.97 282.049,16.658 C281.791,16.346 281.597,15.988 281.468,15.583 C281.339,15.178 281.274,14.756 281.274,14.318 C281.274,13.88 281.339,13.459 281.468,13.054 L281.468,13.054 Z" id="Fill-82" fill="#617293"></path>
                <polyline id="Fill-83" fill="#617293" points="289.464 11.105 292.849 16.316 292.866 16.316 292.866 11.105 293.677 11.105 293.677 17.531 292.74 17.531 289.384 12.374 289.365 12.374 289.365 17.531 288.556 17.531 288.556 11.105 289.464 11.105"></polyline>
            </g>
        </g>
    </g>
</svg>