<?xml version="1.0" encoding="UTF-8"?>
<svg width="228px" height="61px" viewBox="0 0 228 61" version="1.1" xmlns="http://www.w3.org/2000/svg" xmlns:xlink="http://www.w3.org/1999/xlink">
    <!-- Generator: sketchtool 46.2 (44496) - http://www.bohemiancoding.com/sketch -->
    <title>3072BC06-10E9-4EA9-AF96-6FE8FF5554E0</title>
    <desc>Created with sketchtool.</desc>
    <defs>
        <polygon id="path-1" points="0.901 19.94 148.24 19.94 148.24 0.255 0.901 0.255"></polygon>
    </defs>
    <g id="Page-1" stroke="none" stroke-width="1" fill="none" fill-rule="evenodd">
        <g id="LOGOS" transform="translate(-107.000000, -145.000000)">
            <g id="TMSA-logo-RGB" transform="translate(107.000000, 145.000000)">
                <path d="M110.883,0.949 L110.251,7.414 C109.137,6.582 108.315,6.141 106.111,6.141 L100.675,6.141 L95.499,26.909 C94.754,29.898 94.852,31.073 95.135,32.298 L81.224,32.298 C82.118,31.073 82.803,29.898 83.548,26.909 L88.723,6.141 L83.286,6.141 C81.082,6.141 80.042,6.582 78.512,7.414 L81.102,0.949 L110.883,0.949" id="Fill-1" fill="#1C5B83"></path>
                <path d="M142.328,0.949 L158.346,0.949 C157.405,2.174 156.72,3.35 155.975,6.337 L150.848,26.909 C150.103,29.898 150.202,31.073 150.534,32.298 L136.574,32.298 C137.468,31.073 138.151,29.898 138.897,26.909 L143.706,7.61 L143.607,7.61 L128.786,32.298 L120.508,32.298 L118.236,7.61 L118.137,7.61 L113.389,26.665 C112.511,30.192 112.499,30.829 113.161,32.298 L105.618,32.298 C107.012,30.829 107.318,30.192 108.197,26.665 L113.202,6.582 C114.081,3.055 114.093,2.418 113.43,0.949 L129.889,0.949 L131.432,18.729 L131.53,18.729 L142.328,0.949" id="Fill-2" fill="#1C5B83"></path>
                <path d="M190.349,7.17 C189.037,6.533 188.059,6.141 185.757,6.141 L174.637,6.141 C172.776,6.141 172.274,6.387 171.995,7.513 L171.555,9.275 C171.262,10.451 171.653,10.648 173.514,10.648 L181.989,10.648 C187.083,10.648 189.386,12.41 188.251,16.966 L186.346,24.608 C185.114,29.554 182.666,32.298 176.936,32.298 L155.383,32.298 L155.942,25.931 C156.971,26.519 158.001,27.107 160.352,27.107 L171.911,27.107 C173.772,27.107 174.214,26.909 174.507,25.733 L175.044,23.579 C175.324,22.452 174.993,22.208 173.132,22.208 L163.386,22.208 C158.633,22.208 157.163,20.64 158.47,15.398 L160.216,8.395 C161.436,3.496 164.471,0.949 168.682,0.949 L190.872,0.949 L190.349,7.17" id="Fill-3" fill="#1C5B83"></path>
                <path d="M211.532,18.68 L209.712,8.101 L202.274,18.68 L211.532,18.68 Z M198.53,23.872 L195.349,28.183 C194.911,28.771 194.603,29.407 194.445,30.044 C194.177,31.122 194.202,31.22 194.569,32.298 L185.703,32.298 C188.165,29.898 188.971,29.017 190.695,26.616 L208.065,2.713 L207.133,0.949 L221.29,0.949 L225.718,27.987 C226.001,29.605 226.602,31.122 227.387,32.298 L211.665,32.298 C212.545,31.122 212.692,30.927 212.862,30.241 C213.045,29.505 213.132,28.575 213.008,27.89 L212.294,23.872 L198.53,23.872 L198.53,23.872 Z" id="Fill-4" fill="#1C5B83"></path>
                <g id="Group-10" fill="#F7C13D">
                    <path d="M23.463,42.909 L32.439,35.53 C33.276,34.843 34.298,34.3 35.363,34.296 C36.427,34.3 37.213,34.843 37.75,35.53 L43.53,42.909 C44.473,44.112 44.05,46.065 42.585,47.27 C41.119,48.474 39.167,48.474 38.221,47.27 C38.221,47.27 38.013,47.007 37.681,46.581 L36.746,50.892 L50.896,50.892 C51.598,50.892 52.286,50.325 52.437,49.626 L54.07,42.089 C54.374,40.69 55.755,39.558 57.15,39.558 L62.056,39.558 C63.453,39.558 64.34,40.69 64.037,42.089 L60.816,56.946 C60.348,59.107 58.218,60.857 56.056,60.857 L27.152,60.857 C25.756,60.857 24.866,59.724 25.17,58.327 L27.716,46.581 C27.2,47.007 26.878,47.27 26.878,47.27 C25.412,48.474 23.46,48.474 22.516,47.27 C21.572,46.065 21.996,44.112 23.463,42.909" id="Fill-5"></path>
                    <path d="M25.95,20.46 L31.724,27.839 C32.266,28.523 32.614,29.429 32.386,30.493 C32.152,31.558 31.412,32.462 30.573,33.149 L21.6,40.528 C20.134,41.732 18.181,41.732 17.237,40.528 C16.293,39.323 16.717,37.37 18.182,36.165 C18.182,36.165 18.503,35.901 19.019,35.476 L14.711,35.476 L11.643,49.626 C11.492,50.325 11.934,50.892 12.634,50.892 L20.17,50.892 C21.567,50.892 22.455,52.024 22.151,53.423 L21.089,58.327 C20.786,59.724 19.407,60.857 18.01,60.857 L3.151,60.857 C0.993,60.857 -0.376,59.103 0.092,56.944 L6.358,28.04 C6.661,26.644 8.04,25.511 9.436,25.511 L21.18,25.511 C20.848,25.087 20.642,24.821 20.642,24.821 C19.697,23.616 20.122,21.663 21.588,20.46 C23.052,19.253 25.006,19.253 25.95,20.46" id="Fill-7"></path>
                    <path d="M48.913,18.078 L39.933,25.454 C39.097,26.142 38.073,26.689 37.012,26.69 C35.949,26.689 35.163,26.142 34.623,25.454 L28.846,18.078 C27.902,16.872 28.324,14.921 29.791,13.717 C31.257,12.512 33.207,12.512 34.151,13.717 C34.151,13.717 34.36,13.981 34.691,14.406 L35.626,10.096 L21.475,10.096 C20.777,10.096 20.088,10.662 19.936,11.36 L18.302,18.898 C17.999,20.295 16.62,21.431 15.222,21.431 L10.319,21.431 C8.922,21.431 8.034,20.295 8.337,18.898 L11.558,4.039 C12.026,1.881 14.158,0.129 16.316,0.129 L45.223,0.129 C46.618,0.129 47.506,1.264 47.203,2.66 L44.656,14.406 C45.173,13.981 45.495,13.717 45.495,13.717 C46.963,12.512 48.915,12.512 49.858,13.717 C50.802,14.921 50.38,16.872 48.913,18.078" id="Fill-8"></path>
                    <path d="M46.425,40.524 L40.648,33.148 C40.106,32.462 39.759,31.558 39.987,30.493 C40.221,29.429 40.96,28.523 41.801,27.837 L50.775,20.46 C52.243,19.253 54.193,19.253 55.138,20.46 C56.081,21.663 55.658,23.616 54.192,24.821 C54.192,24.821 53.872,25.087 53.356,25.511 L57.662,25.511 L60.73,11.358 C60.883,10.66 60.441,10.094 59.739,10.094 L52.206,10.094 C50.806,10.094 49.92,8.961 50.223,7.564 L51.286,2.66 C51.59,1.261 52.966,0.129 54.366,0.129 L69.221,0.129 C71.383,0.129 72.752,1.881 72.284,4.04 L66.017,32.944 C65.715,34.341 64.336,35.474 62.939,35.474 L51.195,35.474 C51.527,35.899 51.732,36.163 51.732,36.163 C52.676,37.37 52.252,39.321 50.787,40.524 C49.32,41.732 47.37,41.732 46.425,40.524" id="Fill-9"></path>
                </g>
                <polyline id="Fill-11" fill="#1C5B83" points="79.485 39.205 85.949 39.205 85.673 40.524 83.31 40.524 81.787 47.576 80.036 47.576 81.559 40.524 79.197 40.524 79.485 39.205"></polyline>
                <path d="M85.329,42.227 C85.377,41.962 85.425,41.687 85.473,41.399 L87.008,41.399 L86.792,42.562 L86.816,42.562 C87.104,41.891 87.895,41.255 88.639,41.255 C88.843,41.255 89.058,41.267 89.251,41.315 L88.915,42.886 C88.735,42.827 88.507,42.791 88.303,42.791 C87.164,42.791 86.612,43.81 86.408,44.805 L85.832,47.576 L84.225,47.576 L85.329,42.227" id="Fill-12" fill="#1C5B83"></path>
                <path d="M91.244,46.544 C92.443,46.544 92.815,45.716 93.067,44.721 L92.503,44.721 C91.724,44.721 90.429,44.853 90.429,45.897 C90.429,46.329 90.836,46.544 91.244,46.544 Z M92.815,46.628 L92.791,46.628 C92.24,47.324 91.688,47.719 90.8,47.719 C89.685,47.719 88.893,47.096 88.893,45.957 C88.893,43.918 91.172,43.762 92.683,43.762 L93.247,43.762 C93.295,43.594 93.295,43.414 93.295,43.234 C93.295,42.611 92.623,42.43 92.059,42.43 C91.352,42.43 90.668,42.611 90.033,42.911 L90.26,41.627 C90.944,41.387 91.64,41.255 92.359,41.255 C93.594,41.255 94.758,41.711 94.758,43.163 C94.758,43.99 94.146,46.413 94.002,47.576 L92.647,47.576 L92.815,46.628 L92.815,46.628 Z" id="Fill-13" fill="#1C5B83"></path>
                <path d="M96.704,42.287 C96.777,41.915 96.836,41.591 96.861,41.399 L98.431,41.399 L98.324,41.999 L98.348,41.999 C98.791,41.591 99.403,41.255 100.098,41.255 C101.31,41.255 102.113,42.01 102.113,43.234 C102.113,43.702 101.994,44.194 101.91,44.578 L101.262,47.576 L99.655,47.576 L100.255,44.662 C100.339,44.242 100.434,43.822 100.434,43.366 C100.434,42.85 100.075,42.502 99.559,42.502 C98.444,42.502 98.036,43.545 97.832,44.469 L97.172,47.576 L95.565,47.576 L96.704,42.287" id="Fill-14" fill="#1C5B83"></path>
                <path d="M107.598,42.718 C107.179,42.562 106.735,42.43 106.279,42.43 C105.8,42.43 105.2,42.562 105.2,43.054 C105.2,43.833 107.287,44.122 107.287,45.632 C107.287,47.24 105.884,47.719 104.505,47.719 C103.856,47.719 103.209,47.624 102.621,47.348 L102.97,46.065 C103.425,46.316 103.881,46.544 104.505,46.544 C105.044,46.544 105.607,46.365 105.607,45.861 C105.607,44.865 103.521,44.769 103.521,43.222 C103.521,41.771 104.924,41.255 106.195,41.255 C106.783,41.255 107.383,41.363 107.946,41.507 L107.598,42.718" id="Fill-15" fill="#1C5B83"></path>
                <path d="M112.136,42.502 C111.044,42.502 110.432,43.942 110.432,45.021 C110.432,45.813 110.708,46.472 111.487,46.472 C112.831,46.472 113.262,44.794 113.262,43.822 C113.262,43.066 112.879,42.502 112.136,42.502 Z M109.316,42.203 C109.377,41.903 109.425,41.663 109.449,41.399 L110.971,41.399 L110.792,42.214 L110.816,42.214 C111.284,41.555 111.859,41.255 112.675,41.255 C114.21,41.255 114.941,42.298 114.941,43.762 C114.941,45.693 113.874,47.719 111.727,47.719 C111.019,47.719 110.288,47.48 110.024,46.616 L110.001,46.616 L109.293,50.094 L107.685,50.094 L109.316,42.203 L109.316,42.203 Z" id="Fill-16" fill="#1C5B83"></path>
                <path d="M120.606,43.978 C120.606,43.174 120.331,42.502 119.384,42.502 C118.112,42.502 117.476,43.906 117.476,45.021 C117.476,45.836 117.812,46.472 118.735,46.472 C119.983,46.472 120.606,45.033 120.606,43.978 Z M122.286,43.965 C122.286,46.136 120.787,47.719 118.603,47.719 C116.852,47.719 115.798,46.64 115.798,44.901 C115.798,42.838 117.381,41.255 119.455,41.255 C121.122,41.255 122.286,42.262 122.286,43.965 L122.286,43.965 Z" id="Fill-17" fill="#1C5B83"></path>
                <path d="M123.992,42.227 C124.04,41.962 124.088,41.687 124.136,41.399 L125.671,41.399 L125.455,42.562 L125.479,42.562 C125.766,41.891 126.558,41.255 127.302,41.255 C127.506,41.255 127.721,41.267 127.914,41.315 L127.578,42.886 C127.398,42.827 127.17,42.791 126.967,42.791 C125.827,42.791 125.275,43.81 125.071,44.805 L124.496,47.576 L122.888,47.576 L123.992,42.227" id="Fill-18" fill="#1C5B83"></path>
                <path d="M128.192,41.399 L129.355,41.399 L129.632,40.127 L131.358,39.564 L130.963,41.399 L132.402,41.399 L132.15,42.575 L130.711,42.575 L130.123,45.273 C130.087,45.417 130.051,45.632 130.051,45.873 C130.051,46.245 130.303,46.472 130.663,46.472 C130.951,46.472 131.238,46.413 131.442,46.329 L131.167,47.576 C130.89,47.635 130.579,47.719 130.303,47.719 C129.212,47.719 128.444,47.288 128.444,46.1 C128.444,45.621 128.54,45.153 128.648,44.662 L129.103,42.575 L127.94,42.575 L128.192,41.399" id="Fill-19" fill="#1C5B83"></path>
                <path d="M134.575,46.544 C135.774,46.544 136.146,45.716 136.398,44.721 L135.835,44.721 C135.054,44.721 133.76,44.853 133.76,45.897 C133.76,46.329 134.167,46.544 134.575,46.544 Z M136.146,46.628 L136.122,46.628 C135.57,47.324 135.018,47.719 134.132,47.719 C133.015,47.719 132.224,47.096 132.224,45.957 C132.224,43.918 134.503,43.762 136.014,43.762 L136.578,43.762 C136.626,43.594 136.626,43.414 136.626,43.234 C136.626,42.611 135.954,42.43 135.39,42.43 C134.683,42.43 134,42.611 133.364,42.911 L133.592,41.627 C134.275,41.387 134.971,41.255 135.69,41.255 C136.926,41.255 138.089,41.711 138.089,43.163 C138.089,43.99 137.477,46.413 137.334,47.576 L135.978,47.576 L136.146,46.628 L136.146,46.628 Z" id="Fill-20" fill="#1C5B83"></path>
                <path d="M139.532,41.399 L140.695,41.399 L140.971,40.127 L142.698,39.564 L142.303,41.399 L143.742,41.399 L143.49,42.575 L142.051,42.575 L141.463,45.273 C141.427,45.417 141.39,45.632 141.39,45.873 C141.39,46.245 141.642,46.472 142.003,46.472 C142.291,46.472 142.578,46.413 142.782,46.329 L142.507,47.576 C142.23,47.635 141.919,47.719 141.642,47.719 C140.552,47.719 139.784,47.288 139.784,46.1 C139.784,45.621 139.88,45.153 139.988,44.662 L140.443,42.575 L139.28,42.575 L139.532,41.399" id="Fill-21" fill="#1C5B83"></path>
                <path d="M145.471,38.737 L147.078,38.737 L146.742,40.272 L145.136,40.272 L145.471,38.737 Z M144.884,41.399 L146.491,41.399 L145.172,47.576 L143.564,47.576 L144.884,41.399 L144.884,41.399 Z" id="Fill-22" fill="#1C5B83"></path>
                <path d="M151.949,43.978 C151.949,43.174 151.674,42.502 150.726,42.502 C149.455,42.502 148.819,43.906 148.819,45.021 C148.819,45.836 149.155,46.472 150.078,46.472 C151.326,46.472 151.949,45.033 151.949,43.978 Z M153.629,43.965 C153.629,46.136 152.13,47.719 149.946,47.719 C148.195,47.719 147.14,46.64 147.14,44.901 C147.14,42.838 148.723,41.255 150.798,41.255 C152.465,41.255 153.629,42.262 153.629,43.965 L153.629,43.965 Z" id="Fill-23" fill="#1C5B83"></path>
                <path d="M155.372,42.287 C155.443,41.915 155.504,41.591 155.527,41.399 L157.098,41.399 L156.991,41.999 L157.014,41.999 C157.459,41.591 158.07,41.255 158.765,41.255 C159.977,41.255 160.78,42.01 160.78,43.234 C160.78,43.702 160.661,44.194 160.577,44.578 L159.929,47.576 L158.322,47.576 L158.922,44.662 C159.006,44.242 159.101,43.822 159.101,43.366 C159.101,42.85 158.742,42.502 158.226,42.502 C157.11,42.502 156.703,43.545 156.499,44.469 L155.84,47.576 L154.232,47.576 L155.372,42.287" id="Fill-24" fill="#1C5B83"></path>
                <polyline id="Fill-25" fill="#1C5B83" points="166.795 39.205 169.565 39.205 170.13 45.237 170.153 45.237 173.451 39.205 176.246 39.205 174.459 47.576 172.683 47.576 174.267 40.643 174.243 40.643 170.453 47.576 168.846 47.576 168.175 40.643 168.15 40.643 166.615 47.576 165.02 47.576 166.795 39.205"></polyline>
                <path d="M178.579,46.544 C179.778,46.544 180.15,45.716 180.402,44.721 L179.839,44.721 C179.058,44.721 177.763,44.853 177.763,45.897 C177.763,46.329 178.171,46.544 178.579,46.544 Z M180.15,46.628 L180.126,46.628 C179.574,47.324 179.022,47.719 178.136,47.719 C177.019,47.719 176.228,47.096 176.228,45.957 C176.228,43.918 178.507,43.762 180.018,43.762 L180.582,43.762 C180.63,43.594 180.63,43.414 180.63,43.234 C180.63,42.611 179.958,42.43 179.394,42.43 C178.687,42.43 178.004,42.611 177.368,42.911 L177.596,41.627 C178.279,41.387 178.974,41.255 179.694,41.255 C180.929,41.255 182.093,41.711 182.093,43.163 C182.093,43.99 181.481,46.413 181.338,47.576 L179.982,47.576 L180.15,46.628 L180.15,46.628 Z" id="Fill-26" fill="#1C5B83"></path>
                <path d="M184.004,42.227 C184.052,41.962 184.099,41.687 184.147,41.399 L185.682,41.399 L185.467,42.562 L185.491,42.562 C185.778,41.891 186.57,41.255 187.313,41.255 C187.517,41.255 187.733,41.267 187.926,41.315 L187.59,42.886 C187.41,42.827 187.181,42.791 186.978,42.791 C185.839,42.791 185.287,43.81 185.083,44.805 L184.508,47.576 L182.9,47.576 L184.004,42.227" id="Fill-27" fill="#1C5B83"></path>
                <polyline id="Fill-28" fill="#1C5B83" points="189.475 38.581 191.082 38.581 190.014 43.642 190.039 43.642 192.281 41.399 194.368 41.399 191.406 44.217 193.265 47.576 191.454 47.576 189.859 44.301 189.835 44.301 189.139 47.576 187.568 47.576 189.475 38.581"></polyline>
                <path d="M198.846,43.881 C198.869,43.738 198.882,43.606 198.882,43.462 C198.882,42.802 198.534,42.43 197.862,42.43 C196.867,42.43 196.434,43.03 196.123,43.881 L198.846,43.881 Z M195.907,44.985 C195.907,46.125 196.518,46.544 197.622,46.544 C198.282,46.544 198.918,46.377 199.517,46.1 L199.313,47.372 C198.689,47.564 198.006,47.719 197.346,47.719 C195.571,47.719 194.372,46.856 194.372,45.021 C194.372,43.102 195.859,41.255 197.886,41.255 C199.409,41.255 200.417,42.035 200.417,43.606 C200.417,44.074 200.356,44.53 200.261,44.985 L195.907,44.985 L195.907,44.985 Z" id="Fill-29" fill="#1C5B83"></path>
                <path d="M201.548,41.399 L202.711,41.399 L202.987,40.127 L204.714,39.564 L204.318,41.399 L205.758,41.399 L205.506,42.575 L204.066,42.575 L203.478,45.273 C203.442,45.417 203.406,45.632 203.406,45.873 C203.406,46.245 203.658,46.472 204.018,46.472 C204.306,46.472 204.594,46.413 204.798,46.329 L204.522,47.576 C204.246,47.635 203.934,47.719 203.658,47.719 C202.567,47.719 201.8,47.288 201.8,46.1 C201.8,45.621 201.895,45.153 202.004,44.662 L202.459,42.575 L201.296,42.575 L201.548,41.399" id="Fill-30" fill="#1C5B83"></path>
                <path d="M207.487,38.737 L209.094,38.737 L208.758,40.272 L207.151,40.272 L207.487,38.737 Z M206.899,41.399 L208.507,41.399 L207.187,47.576 L205.58,47.576 L206.899,41.399 L206.899,41.399 Z" id="Fill-31" fill="#1C5B83"></path>
                <path d="M210.055,42.287 C210.127,41.915 210.187,41.591 210.211,41.399 L211.782,41.399 L211.675,41.999 L211.698,41.999 C212.142,41.591 212.754,41.255 213.449,41.255 C214.661,41.255 215.464,42.01 215.464,43.234 C215.464,43.702 215.345,44.194 215.261,44.578 L214.613,47.576 L213.006,47.576 L213.605,44.662 C213.689,44.242 213.785,43.822 213.785,43.366 C213.785,42.85 213.426,42.502 212.91,42.502 C211.794,42.502 211.387,43.545 211.182,44.469 L210.523,47.576 L208.916,47.576 L210.055,42.287" id="Fill-32" fill="#1C5B83"></path>
                <g id="Group-51" transform="translate(75.000000, 41.000000)">
                    <mask id="mask-2" fill="white">
                        <use xlink:href="#path-1"></use>
                    </mask>
                    <g id="Clip-34"></g>
                    <path d="M144.846,1.502 C143.682,1.502 143.179,3.026 143.179,3.949 C143.179,4.693 143.478,5.329 144.198,5.329 C145.481,5.329 146.01,3.973 146.01,2.797 C146.01,2.079 145.59,1.502 144.846,1.502 Z M141.464,7.511 C142.099,7.775 142.711,7.991 143.407,7.991 C145.109,7.991 145.361,6.803 145.745,5.4 L145.721,5.4 C145.313,6.144 144.534,6.576 143.646,6.576 C142.147,6.576 141.5,5.316 141.5,3.961 C141.5,2.114 142.627,0.255 144.63,0.255 C145.445,0.255 146.129,0.651 146.512,1.298 L146.693,0.399 L148.24,0.399 C148.192,0.567 148.12,0.867 148.036,1.262 L147.053,5.904 C146.657,7.919 145.781,9.238 143.526,9.238 C142.687,9.238 141.847,9.119 141.055,8.819 L141.464,7.511 L141.464,7.511 Z" id="Fill-33" fill="#1C5B83" mask="url(#mask-2)"></path>
                    <path d="M5.207,12.517 C4.607,12.517 4.152,12.876 4.152,13.512 C4.152,13.872 4.379,14.268 4.596,14.567 C5.207,14.399 6.047,14.052 6.047,13.248 C6.047,12.685 5.615,12.517 5.207,12.517 Z M3.9,16.078 C3.204,16.343 2.509,16.69 2.509,17.542 C2.509,18.417 3.18,18.753 3.971,18.753 C4.475,18.753 5.015,18.609 5.387,18.333 L3.9,16.078 Z M6.094,19.377 C5.555,19.761 4.596,20 3.816,20 C2.341,20 0.901,19.316 0.901,17.626 C0.901,16.234 1.981,15.395 3.204,15.023 C2.868,14.567 2.617,14.208 2.617,13.464 C2.617,12.024 3.852,11.341 5.123,11.341 C6.118,11.341 7.438,11.929 7.438,13.248 C7.438,14.579 6.37,15.179 5.255,15.587 L6.466,17.326 C6.874,16.727 7.174,16.043 7.198,15.311 L8.661,15.311 C8.517,16.462 8.05,17.602 7.222,18.441 L8.193,19.857 L6.394,19.857 L6.094,19.377 L6.094,19.377 Z" id="Fill-35" fill="#1C5B83" mask="url(#mask-2)"></path>
                    <path d="M18.646,13.092 C18.154,12.84 17.519,12.66 16.907,12.66 C16.307,12.66 15.504,12.9 15.504,13.62 C15.504,14.963 18.358,14.879 18.358,17.206 C18.358,19.257 16.751,20 14.916,20 C14.113,20 13.285,19.809 12.53,19.532 L12.961,18.106 C13.609,18.405 14.292,18.681 15.012,18.681 C15.816,18.681 16.607,18.273 16.607,17.374 C16.607,15.862 13.753,16.103 13.753,13.872 C13.753,12.108 15.264,11.341 16.871,11.341 C17.603,11.341 18.358,11.438 19.042,11.713 L18.646,13.092" id="Fill-36" fill="#1C5B83" mask="url(#mask-2)"></path>
                    <path d="M21.804,18.825 C23.003,18.825 23.375,17.997 23.627,17.002 L23.063,17.002 C22.284,17.002 20.989,17.134 20.989,18.178 C20.989,18.609 21.396,18.825 21.804,18.825 Z M23.375,18.909 L23.351,18.909 C22.8,19.604 22.248,20 21.36,20 C20.245,20 19.453,19.377 19.453,18.237 C19.453,16.198 21.732,16.043 23.243,16.043 L23.807,16.043 C23.855,15.875 23.855,15.694 23.855,15.515 C23.855,14.892 23.183,14.711 22.619,14.711 C21.912,14.711 21.228,14.892 20.593,15.191 L20.821,13.907 C21.504,13.668 22.2,13.536 22.919,13.536 C24.155,13.536 25.318,13.991 25.318,15.442 C25.318,16.271 24.706,18.693 24.562,19.857 L23.207,19.857 L23.375,18.909 L23.375,18.909 Z" id="Fill-37" fill="#1C5B83" mask="url(#mask-2)"></path>
                    <polyline id="Fill-38" fill="#1C5B83" mask="url(#mask-2)" points="28.152 10.861 29.76 10.861 27.852 19.857 26.245 19.857 28.152 10.861"></polyline>
                    <path d="M34.307,16.162 C34.331,16.019 34.343,15.887 34.343,15.743 C34.343,15.083 33.995,14.711 33.324,14.711 C32.328,14.711 31.896,15.311 31.584,16.162 L34.307,16.162 Z M31.368,17.266 C31.368,18.405 31.98,18.825 33.083,18.825 C33.743,18.825 34.379,18.657 34.978,18.381 L34.775,19.652 C34.151,19.845 33.467,20 32.808,20 C31.033,20 29.833,19.137 29.833,17.302 C29.833,15.383 31.321,13.536 33.347,13.536 C34.87,13.536 35.878,14.315 35.878,15.887 C35.878,16.354 35.818,16.811 35.722,17.266 L31.368,17.266 L31.368,17.266 Z" id="Fill-39" fill="#1C5B83" mask="url(#mask-2)"></path>
                    <path d="M41.195,14.999 C40.775,14.843 40.331,14.711 39.875,14.711 C39.396,14.711 38.796,14.843 38.796,15.335 C38.796,16.114 40.883,16.402 40.883,17.913 C40.883,19.521 39.48,20 38.1,20 C37.453,20 36.805,19.904 36.218,19.629 L36.565,18.346 C37.021,18.597 37.477,18.825 38.1,18.825 C38.64,18.825 39.204,18.646 39.204,18.142 C39.204,17.146 37.117,17.05 37.117,15.503 C37.117,14.052 38.52,13.536 39.791,13.536 C40.379,13.536 40.979,13.644 41.543,13.788 L41.195,14.999" id="Fill-40" fill="#1C5B83" mask="url(#mask-2)"></path>
                    <path d="M48.312,16.618 L50.903,16.618 L50.375,12.973 L50.327,12.973 L48.312,16.618 Z M49.715,11.485 L51.574,11.485 L53.097,19.857 L51.419,19.857 L51.131,17.937 L47.568,17.937 L46.5,19.857 L44.641,19.857 L49.715,11.485 L49.715,11.485 Z" id="Fill-41" fill="#1C5B83" mask="url(#mask-2)"></path>
                    <path d="M58.883,14.999 C58.463,14.843 58.019,14.711 57.563,14.711 C57.084,14.711 56.484,14.843 56.484,15.335 C56.484,16.114 58.571,16.402 58.571,17.913 C58.571,19.521 57.168,20 55.789,20 C55.14,20 54.493,19.904 53.905,19.629 L54.254,18.346 C54.709,18.597 55.165,18.825 55.789,18.825 C56.328,18.825 56.891,18.646 56.891,18.142 C56.891,17.146 54.805,17.05 54.805,15.503 C54.805,14.052 56.208,13.536 57.479,13.536 C58.067,13.536 58.667,13.644 59.23,13.788 L58.883,14.999" id="Fill-42" fill="#1C5B83" mask="url(#mask-2)"></path>
                    <path d="M64.331,14.999 C63.911,14.843 63.468,14.711 63.012,14.711 C62.532,14.711 61.932,14.843 61.932,15.335 C61.932,16.114 64.019,16.402 64.019,17.913 C64.019,19.521 62.616,20 61.237,20 C60.589,20 59.941,19.904 59.353,19.629 L59.702,18.346 C60.157,18.597 60.613,18.825 61.237,18.825 C61.776,18.825 62.34,18.646 62.34,18.142 C62.34,17.146 60.254,17.05 60.254,15.503 C60.254,14.052 61.656,13.536 62.928,13.536 C63.515,13.536 64.115,13.644 64.679,13.788 L64.331,14.999" id="Fill-43" fill="#1C5B83" mask="url(#mask-2)"></path>
                    <path d="M70.126,16.259 C70.126,15.455 69.85,14.783 68.903,14.783 C67.632,14.783 66.996,16.186 66.996,17.302 C66.996,18.117 67.332,18.753 68.255,18.753 C69.503,18.753 70.126,17.314 70.126,16.259 Z M71.805,16.246 C71.805,18.417 70.306,20 68.123,20 C66.372,20 65.317,18.921 65.317,17.182 C65.317,15.119 66.9,13.536 68.974,13.536 C70.641,13.536 71.805,14.543 71.805,16.246 L71.805,16.246 Z" id="Fill-44" fill="#1C5B83" mask="url(#mask-2)"></path>
                    <path d="M77.626,15.095 C77.314,14.892 76.894,14.783 76.451,14.783 C75.168,14.783 74.448,15.982 74.448,17.146 C74.448,17.949 74.712,18.753 75.815,18.753 C76.211,18.753 76.703,18.646 77.123,18.441 L76.942,19.713 C76.451,19.952 75.923,20 75.395,20 C73.801,20 72.769,18.933 72.769,17.338 C72.769,15.179 74.196,13.536 76.415,13.536 C77.014,13.536 77.591,13.644 78.022,13.775 L77.626,15.095" id="Fill-45" fill="#1C5B83" mask="url(#mask-2)"></path>
                    <path d="M79.885,11.018 L81.491,11.018 L81.155,12.553 L79.549,12.553 L79.885,11.018 Z M79.297,13.68 L80.904,13.68 L79.585,19.857 L77.977,19.857 L79.297,13.68 L79.297,13.68 Z" id="Fill-46" fill="#1C5B83" mask="url(#mask-2)"></path>
                    <path d="M83.784,18.825 C84.983,18.825 85.355,17.997 85.607,17.002 L85.044,17.002 C84.263,17.002 82.969,17.134 82.969,18.178 C82.969,18.609 83.376,18.825 83.784,18.825 Z M85.355,18.909 L85.331,18.909 C84.779,19.604 84.227,20 83.341,20 C82.224,20 81.433,19.377 81.433,18.237 C81.433,16.198 83.712,16.043 85.223,16.043 L85.787,16.043 C85.835,15.875 85.835,15.694 85.835,15.515 C85.835,14.892 85.163,14.711 84.599,14.711 C83.892,14.711 83.209,14.892 82.573,15.191 L82.801,13.907 C83.484,13.668 84.179,13.536 84.899,13.536 C86.135,13.536 87.298,13.991 87.298,15.442 C87.298,16.271 86.686,18.693 86.543,19.857 L85.187,19.857 L85.355,18.909 L85.355,18.909 Z" id="Fill-47" fill="#1C5B83" mask="url(#mask-2)"></path>
                    <path d="M88.861,13.68 L90.024,13.68 L90.301,12.408 L92.027,11.845 L91.632,13.68 L93.071,13.68 L92.819,14.856 L91.38,14.856 L90.792,17.554 C90.756,17.697 90.72,17.913 90.72,18.153 C90.72,18.525 90.971,18.753 91.332,18.753 C91.62,18.753 91.907,18.693 92.111,18.609 L91.836,19.857 C91.559,19.916 91.248,20 90.971,20 C89.881,20 89.113,19.568 89.113,18.381 C89.113,17.901 89.209,17.434 89.317,16.942 L89.772,14.856 L88.609,14.856 L88.861,13.68" id="Fill-48" fill="#1C5B83" mask="url(#mask-2)"></path>
                    <path d="M94.92,11.018 L96.526,11.018 L96.19,12.553 L94.584,12.553 L94.92,11.018 Z M94.332,13.68 L95.939,13.68 L94.62,19.857 L93.012,19.857 L94.332,13.68 L94.332,13.68 Z" id="Fill-49" fill="#1C5B83" mask="url(#mask-2)"></path>
                    <path d="M101.517,16.259 C101.517,15.455 101.242,14.783 100.295,14.783 C99.023,14.783 98.387,16.186 98.387,17.302 C98.387,18.117 98.723,18.753 99.646,18.753 C100.894,18.753 101.517,17.314 101.517,16.259 Z M103.197,16.246 C103.197,18.417 101.698,20 99.514,20 C97.763,20 96.709,18.921 96.709,17.182 C96.709,15.119 98.292,13.536 100.366,13.536 C102.033,13.536 103.197,14.543 103.197,16.246 L103.197,16.246 Z" id="Fill-50" fill="#1C5B83" mask="url(#mask-2)"></path>
                </g>
                <path d="M180.06,55.567 C180.132,55.195 180.192,54.872 180.216,54.68 L181.787,54.68 L181.679,55.279 L181.703,55.279 C182.147,54.872 182.759,54.536 183.454,54.536 C184.666,54.536 185.469,55.292 185.469,56.515 C185.469,56.982 185.349,57.475 185.265,57.858 L184.618,60.857 L183.011,60.857 L183.61,57.942 C183.694,57.523 183.79,57.103 183.79,56.647 C183.79,56.131 183.43,55.783 182.915,55.783 C181.799,55.783 181.391,56.827 181.187,57.75 L180.528,60.857 L178.921,60.857 L180.06,55.567" id="Fill-52" fill="#1C5B83"></path>
            </g>
        </g>
    </g>
</svg>