<?xml version="1.0" encoding="UTF-8"?>
<svg width="16px" height="16px" viewBox="0 0 16 16" version="1.1" xmlns="http://www.w3.org/2000/svg" xmlns:xlink="http://www.w3.org/1999/xlink">
    <!-- Generator: sketchtool 45.2 (43514) - http://www.bohemiancoding.com/sketch -->
    <title>73F581C1-C4F7-4976-A8C8-565690B4E26E</title>
    <desc>Created with sketchtool.</desc>
    <defs></defs>
    <g id="Symbols" stroke="none" stroke-width="1" fill="none" fill-rule="evenodd">
        <g id="Icons/16x16/Attention-Yellow" fill="#F5A623">
            <path d="M8,12.512 C8,13.064 7.552,13.512 7,13.512 C6.448,13.512 6,13.064 6,12.512 C6,11.96 6.448,11.512 7,11.512 C7.552,11.512 8,11.96 8,12.512 Z M4,3 C4,2.448 4.448,2 5,2 L10.71,2 C11.545,2 12.222,2.677 12.222,3.512 L12.222,6 C12.222,7.1 11.322,8 10.222,8 L8.731,8 C8.45,8 8.222,8.228 8.222,8.509 L8.222,9.512 C8.222,10.064 7.775,10.512 7.222,10.512 C6.67,10.512 6.222,10.064 6.222,9.512 L6.222,7.778 C6.222,6.796 7.018,6 8,6 L9,6 C9.552,6 10,5.552 10,5 C10,4.448 9.552,4 9,4 L5,4 C4.448,4 4,3.552 4,3 Z" id="Combined-Shape"></path>
        </g>
    </g>
</svg>