<?xml version="1.0" encoding="UTF-8"?>
<svg width="16px" height="16px" viewBox="0 0 16 16" version="1.1" xmlns="http://www.w3.org/2000/svg" xmlns:xlink="http://www.w3.org/1999/xlink">
    <!-- Generator: sketchtool 45.2 (43514) - http://www.bohemiancoding.com/sketch -->
    <title>197888DE-0D33-49F8-9EAF-735D7F3B8991</title>
    <desc>Created with sketchtool.</desc>
    <defs></defs>
    <g id="Symbols" stroke="none" stroke-width="1" fill="none" fill-rule="evenodd">
        <g id="Selects/With-Icon/Active" transform="translate(-12.000000, -10.000000)" fill="#A1A7AF">
            <g id="Icons/16x16/Calendar" transform="translate(12.000000, 10.000000)">
                <path d="M4,9 L6,9 L6,7 L4,7 L4,9 Z M4,12 L6,12 L6,10 L4,10 L4,12 Z M7,9 L9,9 L9,7 L7,7 L7,9 Z M7,12 L9,12 L9,10 L7,10 L7,12 Z M10,9 L12,9 L12,7 L10,7 L10,9 Z M10,12 L12,12 L12,10 L10,10 L10,12 Z M14,6 C14,5.448 13.552,5 13,5 L3,5 C2.448,5 2,5.448 2,6 L2,13 C2,13.552 2.448,14 3,14 L13,14 C13.552,14 14,13.552 14,13 L14,6 Z M14,16 L2,16 C0.896,16 0,15.105 0,14 L0,2 C0,0.895 0.896,0 2,0 L4,0 L4,1 C4,1.552 4.448,2 5,2 C5.552,2 6,1.552 6,1 L6,0 L10,0 L10,1 C10,1.552 10.448,2 11,2 C11.552,2 12,1.552 12,1 L12,0 L14,0 C15.105,0 16,0.895 16,2 L16,14 C16,15.105 15.105,16 14,16 L14,16 Z" id="Calendar-Icon"></path>
            </g>
        </g>
    </g>
</svg>