<?xml version="1.0" encoding="UTF-8"?>
<svg width="36px" height="37px" viewBox="0 0 36 37" version="1.1" xmlns="http://www.w3.org/2000/svg" xmlns:xlink="http://www.w3.org/1999/xlink">
    <!-- Generator: sketchtool 45.2 (43514) - http://www.bohemiancoding.com/sketch -->
    <title>1823A24D-F1AF-4565-BE33-423440AED2C5</title>
    <desc>Created with sketchtool.</desc>
    <defs>
        <polygon id="path-1" points="17.9361281 36 0 36 0 0.1276875 17.9361281 0.1276875 35.8722563 0.1276875 35.8722563 36 17.9361281 36"></polygon>
    </defs>
    <g id="Symbols" stroke="none" stroke-width="1" fill="none" fill-rule="evenodd">
        <g id="Left-Navigation-Menu/Collapsed" transform="translate(-32.000000, -16.000000)">
            <g id="Page-1" transform="translate(32.000000, 16.000000)">
                <path d="M17.9360156,12.64995 C14.8661719,12.64995 12.3686719,15.14745 12.3686719,18.2172937 C12.3686719,21.2871375 14.8661719,23.7846375 17.9360156,23.7846375 C20.1261094,23.7846375 22.0566094,22.5156375 22.9613906,20.6188875 L16.7350781,20.6188875 L16.7350781,15.8157 L23.4082969,15.8157 L21.8729531,14.2809188 C20.8213594,13.2290437 19.4232656,12.64995 17.9360156,12.64995 M17.9360156,28.587825 C12.2176406,28.587825 7.56548438,23.9356688 7.56548438,18.2172937 C7.56548438,12.4989187 12.2176406,7.8467625 17.9360156,7.8467625 C20.7057656,7.8467625 23.3098594,8.92535625 25.2690469,10.8839813 L26.9672344,12.58245 L23.7342656,15.8157 L28.3065469,15.8157 L28.3065469,18.2172937 C28.3065469,23.9356688 23.6543906,28.587825 17.9360156,28.587825" id="Fill-1" fill="#FF4200"></path>
                <g id="Group-5" transform="translate(0.000000, 0.153563)">
                    <mask id="mask-2" fill="white">
                        <use xlink:href="#path-1"></use>
                    </mask>
                    <g id="Clip-4"></g>
                    <path d="M31.2206625,15.7379062 L31.2206625,18.0638437 C31.2206625,25.3887187 25.2612563,31.3484062 17.9361,31.3484062 C10.6109438,31.3484062 4.6515375,25.3887187 4.6515375,18.0638437 C4.6515375,10.7386875 10.6109438,4.77928125 17.9361,4.77928125 C20.7131625,4.77928125 23.319225,5.60109375 25.54335,7.16709375 L23.4381938,9.27225 C24.0935062,9.684 24.7083188,10.17 25.2691313,10.73025 L26.9673188,12.4287187 L32.2846313,7.1116875 L30.6187875,5.3814375 C27.2314125,1.9935 22.7271938,0.1276875 17.9361,0.1276875 C8.046225,0.1276875 -5.625e-05,8.1736875 -5.625e-05,18.0638437 C-5.625e-05,27.9537187 8.046225,36 17.9361,36 C27.8262563,36 35.8722563,27.9537187 35.8722563,18.0638437 L35.8722563,15.7379062 L31.2206625,15.7379062 Z" id="Fill-3" fill="#000000" mask="url(#mask-2)"></path>
                </g>
            </g>
        </g>
    </g>
</svg>