<?xml version="1.0" encoding="UTF-8"?>
<svg width="16px" height="16px" viewBox="0 0 16 16" version="1.1" xmlns="http://www.w3.org/2000/svg" xmlns:xlink="http://www.w3.org/1999/xlink">
    <!-- Generator: sketchtool 45.2 (43514) - http://www.bohemiancoding.com/sketch -->
    <title>444C3340-EF97-4456-93B7-A42C1DBDC1C6</title>
    <desc>Created with sketchtool.</desc>
    <defs></defs>
    <g id="Symbols" stroke="none" stroke-width="1" fill="none" fill-rule="evenodd">
        <g id="Icons/16x16/Red-Close" fill="#ED1C24">
            <path d="M11.718,11.718 C11.331,12.105 10.702,12.105 10.315,11.718 L8.007,9.41 L5.694,11.722 C5.307,12.11 4.678,12.11 4.291,11.722 C3.903,11.335 3.903,10.707 4.291,10.319 L6.603,8.006 L4.291,5.694 C3.903,5.306 3.903,4.678 4.291,4.291 C4.678,3.903 5.307,3.903 5.694,4.291 L8.007,6.603 L10.315,4.295 C10.702,3.907 11.33,3.907 11.718,4.295 C12.105,4.683 12.105,5.311 11.718,5.698 L9.41,8.007 L11.718,10.315 C12.106,10.702 12.106,11.331 11.718,11.718" id="Error-Icon"></path>
        </g>
    </g>
</svg>