<?xml version="1.0" encoding="UTF-8"?>
<svg width="16px" height="16px" viewBox="0 0 16 16" version="1.1" xmlns="http://www.w3.org/2000/svg" xmlns:xlink="http://www.w3.org/1999/xlink">
    <!-- Generator: sketchtool 45.2 (43514) - http://www.bohemiancoding.com/sketch -->
    <title>3CA91558-8902-4275-9EAF-A60F79472FBE</title>
    <desc>Created with sketchtool.</desc>
    <defs></defs>
    <g id="Symbols" stroke="none" stroke-width="1" fill="none" fill-rule="evenodd">
        <g id="Inputs/Input-With-3-Icons" transform="translate(-244.000000, -10.000000)" fill="#A1A7AF">
            <g id="Icons/16x16/Search" transform="translate(244.000000, 10.000000)">
                <path d="M10.5170951,3.45844772 C8.56750686,1.5088595 5.40803594,1.5088595 3.45844772,3.45844772 C1.5088595,5.40803594 1.5088595,8.56750686 3.45844772,10.5170951 C5.40803594,12.4666833 8.56750686,12.4666833 10.5170951,10.5170951 C12.4666833,8.56750686 12.4666833,5.40803594 10.5170951,3.45844772 M15.708011,15.708011 C15.317694,16.0973297 14.6857999,16.0973297 14.2954829,15.708011 L11.151984,12.5635139 C8.41477415,14.6099326 4.53356626,14.4162715 2.04691789,11.9286249 C-0.682305965,9.2003993 -0.682305965,4.77614175 2.04691789,2.04691789 C4.7751435,-0.682305965 9.2003993,-0.682305965 11.9286249,2.04691789 C14.4162715,4.53356626 14.6099326,8.41477415 12.5635139,11.151984 L15.708011,14.2964812 C16.0973297,14.6857999 16.0973297,15.317694 15.708011,15.708011" id="Icon"></path>
            </g>
        </g>
    </g>
</svg>