<?xml version="1.0" encoding="UTF-8"?>
<svg width="19px" height="19px" viewBox="0 0 19 19" version="1.1" xmlns="http://www.w3.org/2000/svg" xmlns:xlink="http://www.w3.org/1999/xlink">
    <!-- Generator: sketchtool 46 (44423) - http://www.bohemiancoding.com/sketch -->
    <title>E01A662A-87D7-4A49-9C91-9DF02717E8E7</title>
    <desc>Created with sketchtool.</desc>
    <defs></defs>
    <g id="SHP_New-Order" stroke="none" stroke-width="1" fill="none" fill-rule="evenodd">
        <g id="SHP_New_Order_v1.4_Step_1_Searching" transform="translate(-1248.000000, -487.000000)" fill-rule="nonzero" fill="#FC4A1F">
            <g id="pnResult" transform="translate(1105.000000, 150.000000)">
                <g id="Searching" transform="translate(39.000000, 337.000000)">
                    <path d="M110.446768,0.0885376491 C106.610735,1.46490013 104,5.11469448 104,9.25998776 C104,14.6390614 108.355993,19.0004086 113.730304,19.0004086 C117.897433,19.0004086 121.56065,16.3541644 122.915866,12.4801505 C123.189413,11.6981893 122.777262,10.8425305 121.995301,10.5689832 C121.21334,10.2954359 120.357681,10.7075869 120.084134,11.4895481 C119.146611,14.1695475 116.612135,16.0004086 113.730304,16.0004086 C110.013673,16.0004086 107,12.9830316 107,9.25998776 C107,6.39035989 108.807038,3.86413023 111.459922,2.91227962 C112.239677,2.63250483 112.64499,1.77358638 112.365216,0.993831567 C112.085441,0.214076754 111.226522,-0.191237139 110.446768,0.0885376491 Z" id="Spinner"></path>
                </g>
            </g>
        </g>
    </g>
</svg>